<svg width="129" height="21" viewBox="0 0 129 21" fill="none" xmlns="http://www.w3.org/2000/svg">
<path fill-rule="evenodd" clip-rule="evenodd" d="M26.4872 15.2615C26.5894 15.2744 26.6576 15.2888 26.7242 15.2888C28.2251 15.2903 29.726 15.3009 31.2261 15.2858C32.2969 15.2759 33.1223 14.7981 33.694 13.8909C33.9999 13.4047 34.2105 12.8747 34.3347 12.3151C34.6883 10.7384 35.0328 9.16031 35.3676 7.58067C35.4736 7.07937 35.5266 6.56897 35.4637 6.0548C35.3865 5.4028 35.0662 5.01281 34.4202 4.86439C34.0954 4.78942 33.7553 4.74852 33.4199 4.7455C31.9546 4.73338 30.4878 4.73868 29.0225 4.74019C28.921 4.74019 28.8195 4.75383 28.7067 4.7614C27.9646 8.27129 27.2278 11.7585 26.4872 15.2615ZM20.2383 19.8839C21.6377 13.2828 23.0242 6.74314 24.4191 0.165595H24.8076C28.01 0.165595 31.2117 0.164837 34.4149 0.166352C35.5334 0.166352 36.6496 0.226933 37.734 0.533622C38.0687 0.629037 38.4004 0.744897 38.7169 0.888777C40.0073 1.47414 40.7365 2.49341 40.9698 3.87616C41.15 4.94617 41.0977 6.0192 40.8819 7.07179C40.4503 9.16713 39.9846 11.2564 39.5045 13.3404C39.3008 14.2264 38.9592 15.0692 38.5458 15.8817C37.4523 18.0308 35.6985 19.2674 33.3411 19.6809C32.5013 19.8286 31.6547 19.8839 30.8043 19.8839C27.4163 19.8846 24.0284 19.8839 20.6381 19.8839H20.2383Z" fill="white"/>
<path fill-rule="evenodd" clip-rule="evenodd" d="M49.8657 4.73931C49.4901 6.5166 49.1198 8.26889 48.7404 10.0598H49.1402C50.3965 10.0591 51.6536 10.0613 52.9106 10.0583C53.109 10.0575 53.3074 10.0507 53.5043 10.0333C54.3842 9.96061 55.0014 9.5373 55.2278 8.66039C55.4186 7.93115 55.5716 7.19056 55.7223 6.45147C55.7677 6.22732 55.7723 5.98727 55.7556 5.75782C55.7208 5.2709 55.4542 4.95286 54.9741 4.8582C54.6455 4.79232 54.3077 4.74915 53.973 4.74461C52.7289 4.73249 51.4832 4.73931 50.2375 4.73931H49.8657ZM45.572 0.166223H45.993C49.1599 0.166223 52.3268 0.163951 55.4929 0.16698C56.5886 0.169252 57.6821 0.207116 58.7529 0.467613C59.1012 0.552426 59.448 0.666014 59.7752 0.811407C60.749 1.24304 61.2821 2.01318 61.4502 3.05592C61.579 3.86165 61.5237 4.66283 61.3662 5.45189C61.1632 6.46662 60.9179 7.47074 60.6733 8.47789C60.6059 8.75808 60.4877 9.02842 60.3734 9.29649C59.9425 10.2983 59.2322 11.0374 58.2531 11.5221C57.6866 11.8015 57.0922 11.9984 56.4796 12.1453C56.2978 12.1885 56.2986 12.1915 56.1971 12.3823C56.419 12.4156 56.6371 12.4247 56.8423 12.4823C57.1997 12.58 57.5685 12.6648 57.8964 12.8283C58.6219 13.188 59.002 13.8151 59.0618 14.6117C59.0906 14.9903 59.0747 15.3849 59.0012 15.7574C58.7453 17.0698 58.456 18.3753 58.1781 19.6831C58.1675 19.7391 58.1486 19.7936 58.1304 19.8656H52.897C52.9205 19.7224 52.9364 19.599 52.9606 19.4771C53.1438 18.6009 53.3385 17.7255 53.5051 16.8464C53.5611 16.5541 53.5732 16.2436 53.5535 15.9452C53.5149 15.3424 53.1696 14.9244 52.5895 14.7563C52.3896 14.6973 52.1791 14.6586 51.9724 14.6564C50.6335 14.6473 49.2947 14.6503 47.9566 14.6518C47.8983 14.6518 47.8423 14.6632 47.7597 14.673C47.3925 16.4011 47.0275 18.1269 46.6594 19.8648H41.3965C42.7883 13.3016 44.1756 6.75589 45.572 0.166223Z" fill="white"/>
<path fill-rule="evenodd" clip-rule="evenodd" d="M70.7358 15.4642C71.7248 15.4369 72.4336 15.449 73.1325 15.2855C73.8822 15.109 74.454 14.6963 74.7758 13.9981C74.9825 13.5476 75.1643 13.0735 75.2733 12.5904C75.6481 10.9471 75.9874 9.29554 76.338 7.64775C76.4561 7.09798 76.5258 6.54518 76.4698 5.98329C76.413 5.40778 76.1161 5.00492 75.5648 4.81712C75.346 4.74366 75.115 4.68762 74.8863 4.66264C73.808 4.54526 72.7259 4.55208 71.646 4.66264C70.5556 4.77547 69.7718 5.31615 69.3674 6.35132C69.2205 6.72995 69.0789 7.1154 68.9903 7.51069C68.6511 9.01839 68.3338 10.5321 68.0089 12.0436C67.8825 12.6373 67.7825 13.2333 67.812 13.8414C67.8507 14.6683 68.2043 15.0999 69.0017 15.3044C69.0797 15.3241 69.1592 15.346 69.2402 15.3521C69.8316 15.3983 70.4223 15.4415 70.7358 15.4642ZM70.3807 20.0509C68.9116 20.0448 67.4463 20.0024 66.0067 19.6783C65.4017 19.542 64.8193 19.3459 64.2734 19.0483C63.0564 18.3842 62.3999 17.3452 62.2113 15.9882C62.0629 14.9114 62.1954 13.8527 62.4181 12.8009C62.8368 10.8207 63.2458 8.83892 63.688 6.86474C63.822 6.26575 64.0189 5.67509 64.2446 5.10336C65.1851 2.71724 66.92 1.21029 69.3886 0.535574C70.392 0.262204 71.4158 0.119082 72.4525 0.0577439C73.8951 -0.0278263 75.3377 -0.0270693 76.778 0.119839C77.6821 0.211467 78.5727 0.378064 79.4223 0.720345C81.036 1.37083 81.9107 2.56048 82.0742 4.29309C82.1666 5.26768 82.0493 6.22183 81.8516 7.16992C81.4366 9.15015 81.0277 11.1319 80.5824 13.1061C80.4355 13.7603 80.222 14.407 79.9706 15.0318C79.0498 17.321 77.3785 18.7893 75.009 19.4693C74.1102 19.7275 73.1924 19.8752 72.264 19.9502C71.6377 19.9994 71.0084 20.0183 70.3807 20.0509Z" fill="white"/>
<path fill-rule="evenodd" clip-rule="evenodd" d="M89.5228 10.2324C89.6424 10.2415 89.7219 10.2528 89.8022 10.2528C90.8715 10.2536 91.9407 10.2597 93.0115 10.2491C93.3825 10.2468 93.7543 10.2112 94.1246 10.1733C94.8478 10.0991 95.3741 9.74094 95.6104 9.03745C95.777 8.54447 95.9125 8.03862 96.0382 7.53202C96.1715 6.99058 96.2798 6.44156 96.2495 5.87892C96.22 5.33369 95.9761 4.99974 95.4468 4.87631C95.0894 4.79225 94.713 4.75136 94.3435 4.74606C93.2402 4.72864 92.1353 4.73849 91.0305 4.73849H90.6746C90.2884 6.57863 89.9097 8.38393 89.5228 10.2324ZM86.3802 0.165405H86.8141C89.9461 0.165405 93.0774 0.165405 96.2101 0.166162C97.1431 0.166162 98.073 0.211597 98.9772 0.463764C99.168 0.516773 99.3565 0.578868 99.5406 0.65005C100.82 1.14151 101.539 2.08354 101.761 3.42086C101.902 4.26823 101.872 5.11788 101.749 5.95995C101.513 7.56458 101.152 9.13892 100.57 10.6565C100.465 10.9276 100.342 11.1918 100.215 11.4539C99.3838 13.1827 98.0064 14.1974 96.1374 14.5768C95.1969 14.7669 94.2458 14.8274 93.2909 14.835C91.8461 14.8464 90.402 14.8388 88.9586 14.8388H88.5459C88.1832 16.5245 87.8258 18.1912 87.4653 19.867H82.2031C83.5972 13.2955 84.9861 6.74598 86.3802 0.165405Z" fill="white"/>
<path fill-rule="evenodd" clip-rule="evenodd" d="M119.526 19.8642H114.261C115.327 14.8291 116.387 9.81609 117.459 4.75835C116.6 4.71216 115.781 4.74321 114.961 4.73715C114.136 4.73185 113.311 4.73488 112.43 4.73488C112.731 3.2037 113.07 1.71493 113.379 0.224642C113.634 0.148159 128.596 0.129228 128.999 0.20874C128.68 1.70736 128.362 3.20446 128.038 4.73109H122.731C121.659 9.79185 120.592 14.8269 119.526 19.8642Z" fill="white"/>
<path fill-rule="evenodd" clip-rule="evenodd" d="M106.914 19.8608H101.65C103.044 13.2878 104.432 6.74128 105.823 0.181152H111.088C109.694 6.75491 108.306 13.3014 106.914 19.8608Z" fill="white"/>
<path fill-rule="evenodd" clip-rule="evenodd" d="M8.31943 19.8716C6.08476 19.8716 3.84933 19.8701 1.61466 19.8731C1.00128 19.8739 0.534813 19.6111 0.225852 19.0917C-0.389799 18.0557 0.322781 16.7457 1.52228 16.6942C1.66161 16.6881 1.80246 16.6889 1.94104 16.6889H14.791C14.9303 16.6889 15.0704 16.6957 15.2105 16.6927C15.9284 16.679 16.7598 17.35 16.7242 18.3246C16.6924 19.1984 16.0442 19.8663 15.1635 19.8701C12.8812 19.8762 10.6003 19.8716 8.31943 19.8716Z" fill="#FF6633"/>
<path fill-rule="evenodd" clip-rule="evenodd" d="M11.6986 10.0659C13.3631 10.0659 15.0275 10.0659 16.692 10.0652C17.1933 10.0652 17.634 10.2159 17.9702 10.5975C18.392 11.0746 18.4995 11.632 18.2852 12.2249C18.0793 12.7913 17.6628 13.1412 17.0577 13.2396C16.876 13.2699 16.6889 13.2866 16.5042 13.2866C13.2798 13.2904 10.0553 13.2904 6.83094 13.2866C6.63481 13.2866 6.43641 13.2684 6.24255 13.2328C5.5118 13.0995 4.95597 12.4551 4.959 11.7016C4.96051 10.9126 5.43531 10.3348 6.11987 10.1402C6.30767 10.0864 6.50986 10.0697 6.70448 10.069C8.36969 10.0629 10.0334 10.0659 11.6986 10.0659Z" fill="#FF6633"/>
<path fill-rule="evenodd" clip-rule="evenodd" d="M14.986 6.65742C13.8456 6.65742 12.7059 6.65969 11.5655 6.65591C10.709 6.65439 10.1161 6.16217 9.94266 5.31783C9.76622 4.47046 10.4296 3.5678 11.2906 3.48678C11.4299 3.47314 11.5692 3.4739 11.7093 3.4739C13.8849 3.47314 16.0606 3.47314 18.2354 3.47314C18.3172 3.47314 18.399 3.47314 18.48 3.47466C19.3274 3.50041 19.9824 4.1047 20.0384 4.95965C20.0846 5.67677 19.6553 6.43554 18.7526 6.63092C18.6186 6.65969 18.4747 6.65591 18.3369 6.65591C17.2199 6.65818 16.103 6.65742 14.986 6.65742Z" fill="#FF6633"/>
</svg>
