<svg width="38" height="38" viewBox="0 0 38 38" fill="none" xmlns="http://www.w3.org/2000/svg">
<path d="M9.41758 7.6C9.98483 3.44886 14.1976 0 19.0002 0C23.8029 0 28.0157 3.44886 28.5829 7.6H34.141C36.2723 7.6 38 9.30132 38 11.4C38 11.5798 37.987 11.7594 37.9612 11.9374L34.6535 34.7374C34.3819 36.6095 32.7537 38 30.8333 38H7.1672C5.24677 38 3.61858 36.6095 3.34699 34.7374L0.0392764 11.9374C-0.26213 9.85981 1.2039 7.93499 3.31374 7.63819C3.49451 7.61276 3.67689 7.6 3.85949 7.6H9.41758ZM13.3509 7.6H24.6496C24.063 5.58235 21.6977 3.8 19.0002 3.8C16.3027 3.8 13.9375 5.58235 13.3509 7.6ZM9.35275 11.4H3.85949L7.1672 34.2H30.8333L34.141 11.4H28.6477V15.2H24.7887V11.4H13.2118V15.2H9.35275V11.4Z" fill="#8E8E8E"/>
</svg>
