<svg width="16" height="16" viewBox="0 0 16 16" fill="none" xmlns="http://www.w3.org/2000/svg">
<path d="M4 2.85728C4 2.70573 4.0602 2.56039 4.16737 2.45323C4.27453 2.34607 4.41988 2.28586 4.57143 2.28586H11.4286C11.5801 2.28586 11.7255 2.34607 11.8326 2.45323C11.9398 2.56039 12 2.70573 12 2.85728C12 3.00883 11.9398 3.15417 11.8326 3.26133C11.7255 3.36849 11.5801 3.42869 11.4286 3.42869H4.57143C4.41988 3.42869 4.27453 3.36849 4.16737 3.26133C4.0602 3.15417 4 3.00883 4 2.85728ZM13.1429 7.4286C13.1429 7.27705 13.0827 7.13171 12.9755 7.02455C12.8683 6.91739 12.723 6.85719 12.5714 6.85719H3.42857C3.27702 6.85719 3.13167 6.91739 3.02451 7.02455C2.91735 7.13171 2.85714 7.27705 2.85714 7.4286C2.85714 7.58015 2.91735 7.72549 3.02451 7.83265C3.13167 7.93981 3.27702 8.00002 3.42857 8.00002H12.5714C12.723 8.00002 12.8683 7.93981 12.9755 7.83265C13.0827 7.72549 13.1429 7.58015 13.1429 7.4286ZM4 5.71435H12C12.1516 5.71435 12.2969 5.65415 12.4041 5.54699C12.5112 5.43983 12.5714 5.29449 12.5714 5.14294C12.5714 4.99139 12.5112 4.84605 12.4041 4.73889C12.2969 4.63173 12.1516 4.57153 12 4.57153H4C3.84845 4.57153 3.7031 4.63173 3.59594 4.73889C3.48878 4.84605 3.42857 4.99139 3.42857 5.14294C3.42857 5.29449 3.48878 5.43983 3.59594 5.54699C3.7031 5.65415 3.84845 5.71435 4 5.71435ZM10.2857 13.1428H5.71429C5.56273 13.1428 5.41739 13.203 5.31023 13.3101C5.20306 13.4173 5.14286 13.5626 5.14286 13.7142C5.14286 13.8657 5.20306 14.0111 5.31023 14.1182C5.41739 14.2254 5.56273 14.2856 5.71429 14.2856H10.2857C10.4373 14.2856 10.5826 14.2254 10.6898 14.1182C10.7969 14.0111 10.8571 13.8657 10.8571 13.7142C10.8571 13.5626 10.7969 13.4173 10.6898 13.3101C10.5826 13.203 10.4373 13.1428 10.2857 13.1428ZM16 10.2857V15.4284C16 15.58 15.9398 15.7253 15.8326 15.8325C15.7255 15.9396 15.5801 15.9998 15.4286 15.9998H0.571429C0.419876 15.9998 0.274531 15.9396 0.167368 15.8325C0.0602039 15.7253 0 15.58 0 15.4284V10.2857C0 10.2857 0 10.2457 0 10.2228C0 10.2 0 10.1771 0 10.1543L2.28571 0.440194C2.31588 0.312351 2.38917 0.198804 2.49325 0.118666C2.59732 0.0385286 2.72583 -0.00330619 2.85714 0.00020423H13.1429C13.2742 -0.00330619 13.4027 0.0385286 13.5068 0.118666C13.6108 0.198804 13.6841 0.312351 13.7143 0.440194L16 10.1543C16 10.1543 16 10.2 16 10.2228C16 10.2457 16 10.2857 16 10.2857ZM1.29143 9.71426H5.71429C5.86584 9.71426 6.01118 9.77446 6.11835 9.88162C6.22551 9.98878 6.28571 10.1341 6.28571 10.2857C6.28571 11.1885 7.42857 11.4285 8 11.4285C8.57143 11.4285 9.71429 11.1885 9.71429 10.2857C9.71429 10.1341 9.77449 9.98878 9.88165 9.88162C9.98882 9.77446 10.1342 9.71426 10.2857 9.71426H14.7086L12.6914 1.14303H3.30857L1.29143 9.71426ZM14.8571 10.8571H10.7829C10.1543 13.1428 5.84571 13.1428 5.21714 10.8571H1.14286V14.857H14.8571V10.8571Z" fill="white"/>
</svg>
