<svg width="25" height="13" viewBox="0 0 25 13" fill="none" xmlns="http://www.w3.org/2000/svg">
<path d="M12.8001 12.7627C17.2776 12.7627 21.5503 10.6849 24.8573 6.88046C25.0621 6.64634 25.0329 6.32442 24.8573 6.11957C21.5503 2.31512 17.2776 0.237305 12.8293 0.237305C8.23475 0.237305 3.93279 2.31512 0.684379 6.0903C0.567319 6.20736 0.508789 6.35369 0.508789 6.50001C0.508789 6.64634 0.567319 6.79266 0.684379 6.90972C3.90353 10.6849 8.20548 12.7627 12.8001 12.7627ZM12.8001 1.4079C16.7801 1.4079 20.6138 3.22233 23.6281 6.50001C20.6138 9.77769 16.7801 11.5921 12.8001 11.5921C8.70299 11.5921 4.84001 9.77769 1.88424 6.50001C4.84001 3.22233 8.70299 1.4079 12.8001 1.4079Z" fill="#626262"/>
<path d="M12.7414 11.4751C15.4923 11.4751 17.7165 9.25092 17.7165 6.50001C17.7165 3.7491 15.4923 1.52496 12.7414 1.52496C9.9905 1.52496 7.76636 3.7491 7.76636 6.50001C7.76636 9.25092 9.9905 11.4751 12.7414 11.4751ZM12.7414 2.69556C14.8485 2.69556 16.5459 4.39293 16.5459 6.50001C16.5459 8.60709 14.8485 10.3045 12.7414 10.3045C10.6343 10.3045 8.93696 8.60709 8.93696 6.50001C8.93696 4.39293 10.6343 2.69556 12.7414 2.69556Z" fill="#626262"/>
<path d="M12.7416 8.40229C13.7921 8.40229 14.6438 7.55063 14.6438 6.50006C14.6438 5.44949 13.7921 4.59784 12.7416 4.59784C11.691 4.59784 10.8394 5.44949 10.8394 6.50006C10.8394 7.55063 11.691 8.40229 12.7416 8.40229Z" fill="#626262"/>
</svg>
