<svg width="16" height="17" viewBox="0 0 16 17" fill="none" xmlns="http://www.w3.org/2000/svg">
<path d="M15.7547 11.5131C15.7547 12.5164 14.9388 13.3309 13.9339 13.3309H1.82085C0.815281 13.3309 0 12.5175 0 11.5131C0 10.51 0.814598 9.6952 1.81848 9.6952C1.8173 9.6952 1.81785 6.05927 1.81785 6.05927C1.81785 2.71196 4.53036 0 7.87735 0C11.2244 0 13.9368 2.71261 13.9368 6.05927V9.69467C14.9386 9.6952 15.7547 10.5097 15.7547 11.5131ZM13.9362 10.9071C13.2666 10.9071 12.7249 10.3657 12.7249 9.69467V6.05927C12.7249 3.38191 10.555 1.2119 7.87735 1.2119C5.19962 1.2119 3.02975 3.38133 3.02975 6.05927V9.69467C3.02975 10.3638 2.48678 10.9071 1.81848 10.9071C1.48398 10.9071 1.2119 11.1793 1.2119 11.5131C1.2119 11.8475 1.48398 12.119 1.82085 12.119H13.9339C14.2699 12.119 14.5428 11.8466 14.5428 11.5131C14.5428 11.1795 14.2698 10.9071 13.9362 10.9071ZM5.15058 13.3309H6.36247C6.36247 14.1675 7.04071 14.8458 7.87735 14.8458C8.71399 14.8458 9.39223 14.1675 9.39223 13.3309H10.6041C10.6041 14.8369 9.38331 16.0577 7.87735 16.0577C6.37139 16.0577 5.15058 14.8369 5.15058 13.3309Z" fill="white"/>
</svg>
