<svg width="13" height="16" viewBox="0 0 13 16" fill="none" xmlns="http://www.w3.org/2000/svg">
<path fill-rule="evenodd" clip-rule="evenodd" d="M10.8333 2.18182H11.5556C12.3533 2.18182 13 2.83304 13 3.63636V14.5455C13 15.3488 12.3533 16 11.5556 16H1.44444C0.6467 16 0 15.3488 0 14.5455V3.63636C0 2.83304 0.6467 2.18182 1.44444 2.18182H2.16667C2.16667 1.37849 2.81337 0.727273 3.61111 0.727273H4.33039C4.8737 0.263982 5.6616 0 6.5 0C7.3384 0 8.1263 0.263982 8.66961 0.727273H9.38889C10.1866 0.727273 10.8333 1.37849 10.8333 2.18182ZM2.35991 3.63636H1.44444V14.5455H11.5556V3.63636H10.6401C10.3903 4.07113 9.92354 4.36364 9.38889 4.36364H3.61111C3.07646 4.36364 2.60966 4.07113 2.35991 3.63636ZM3.61111 10.9091V9.45455H7.94444V10.9091H3.61111ZM3.61111 8V6.54545H9.38889V8H3.61111ZM5.16869 1.93118L4.95272 2.18182H4.62319H3.61111V2.90909H9.38889V2.18182H8.04728L7.83131 1.93118C7.59403 1.65581 7.08542 1.45455 6.5 1.45455C5.91458 1.45455 5.40597 1.65581 5.16869 1.93118Z" fill="#FF6633"/>
</svg>
