<svg width="14" height="14" viewBox="0 0 14 14" fill="none" xmlns="http://www.w3.org/2000/svg">
<path d="M4.48965 0.0965518C4.58621 0.032184 4.71494 0 4.82759 0H13.3563C13.7103 0 14 0.289655 14 0.643678V9.01149C14 9.17241 13.9356 9.33333 13.823 9.46207L10.4437 13.0023C10.331 13.131 10.1701 13.1954 9.97701 13.1954H0.643678C0.289655 13.1954 -9.53674e-07 12.9057 -9.53674e-07 12.5517V3.21839C-9.53674e-07 2.9931 0.128736 2.78391 0.305747 2.67126L4.48965 0.0965518ZM10.6207 10.9425L12.7126 8.75402V1.94713L10.6207 3.54023V10.9425ZM11.4575 1.28736H5.02069L2.92873 2.57471H9.76782L11.4575 1.28736ZM1.28736 11.908H9.33333V3.86207H1.28736V11.908Z" fill="white"/>
</svg>
