<svg width="16" height="16" viewBox="0 0 16 16" fill="none" xmlns="http://www.w3.org/2000/svg">
<path fill-rule="evenodd" clip-rule="evenodd" d="M14.4533 12.8587L12.8408 14.4712L10.777 13.8963L10.1867 14.1397L9.12716 16H6.84747L5.79377 14.1334L5.20413 13.8861L3.14043 14.454L1.5287 12.8422L2.10365 10.7782L1.86017 10.1878L0 9.12742V6.84769L1.86733 5.79397L2.11453 5.20437L1.54669 3.14057L3.15781 1.52939L5.22171 2.10516L5.81143 1.86194L6.86941 0H9.14968L10.2034 1.86741L10.7929 2.11463L12.8563 1.54686L14.4699 3.15822L13.8949 5.22255L14.1382 5.81243L16 6.87046V9.15084L14.1328 10.2045L13.8854 10.7954L14.4533 12.8587ZM12.3497 10.697L12.9838 9.18268L14.5455 8.30142V7.71695L12.9843 6.82981L12.3594 5.31439L12.8406 3.58683L12.4269 3.17369L10.6941 3.65049L9.18143 3.01621L8.30031 1.45461H7.71586L6.82876 3.01581L5.31328 3.64086L3.58546 3.15884L3.17364 3.57068L3.65032 5.30319L3.01607 6.81595L1.45455 7.69711V8.28224L3.01441 9.17143L3.63917 10.6863L3.15784 12.4142L3.57052 12.827L5.30295 12.3502L6.81557 12.9845L7.69667 14.5454H8.2817L9.17015 12.9855L10.6851 12.3607L12.4129 12.842L12.8263 12.4286L12.3497 10.697ZM8 10.9096C6.39335 10.9096 5.09091 9.60709 5.09091 8.00037C5.09091 6.39365 6.39335 5.09114 8 5.09114C9.60665 5.09114 10.9091 6.39365 10.9091 8.00037C10.9091 9.60709 9.60665 10.9096 8 10.9096ZM8 9.45498C8.80332 9.45498 9.45455 8.80373 9.45455 8.00037C9.45455 7.19701 8.80332 6.54576 8 6.54576C7.19668 6.54576 6.54545 7.19701 6.54545 8.00037C6.54545 8.80373 7.19668 9.45498 8 9.45498Z" fill="white"/>
</svg>
