<svg width="16" height="16" viewBox="0 0 16 16" fill="none" xmlns="http://www.w3.org/2000/svg">
<path d="M1.29455 6.55224C0.926065 6.34958 0.613823 6.05673 0.387884 5.69988C0.133823 5.29939 -0.000964501 4.83491 5.19555e-06 4.36073V4.24824L1.48946 0H14.5105L16 4.24824V4.36073C16.001 4.83491 15.8662 5.29939 15.6121 5.69988C15.3862 6.05673 15.0739 6.34958 14.7054 6.55224V16H1.29455V6.55224ZM4.33843 6.06352C4.13964 6.27782 3.90497 6.45527 3.64509 6.58909C3.33188 6.74909 2.98958 6.84121 2.63952 6.85964V14.655H4.73891V11.4492C4.73891 10.5842 5.08218 9.75418 5.69406 9.1423C6.30594 8.53139 7.13503 8.18715 8 8.18715C8.86497 8.18715 9.69406 8.53139 10.3059 9.1423C10.9178 9.75418 11.2611 10.5842 11.2611 11.4492V14.655H13.3605V6.86449C13.0104 6.84509 12.6671 6.752 12.3539 6.59103C12.0941 6.45721 11.8594 6.27879 11.6616 6.06449C11.4647 6.27782 11.231 6.45527 10.9711 6.58909C10.6182 6.77042 10.2274 6.86449 9.83079 6.86449C9.43418 6.86449 9.04339 6.77042 8.69042 6.58909C8.43054 6.45527 8.19685 6.27782 8 6.06449C7.80315 6.27782 7.56945 6.45527 7.30958 6.58909C6.95661 6.77042 6.56582 6.86449 6.16921 6.86449C5.77261 6.86449 5.38182 6.77042 5.02885 6.58909C4.76897 6.45527 4.53527 6.27782 4.33843 6.06352ZM9.91224 14.655V11.4492C9.91224 10.9421 9.71054 10.4553 9.35176 10.0965C8.99297 9.73867 8.50715 9.53697 8 9.53697C7.49285 9.53697 7.00703 9.73867 6.64824 10.0965C6.28946 10.4553 6.08776 10.9421 6.08776 11.4492V14.655H9.91224ZM8.86497 14.0335H7.13988V13.1733H8.86497V14.0335ZM13.5535 1.33624H2.44655L2.35152 1.61552C2.35152 1.61552 1.76582 3.31345 1.76582 3.31539L1.33916 4.49552C1.36631 4.77382 1.49528 5.0337 1.70182 5.22473L1.70667 5.22958C1.89576 5.41576 2.14594 5.5263 2.41067 5.54182L2.42619 5.54279C2.4417 5.54473 2.45819 5.54473 2.4737 5.54279L2.496 5.54085C2.80243 5.53212 3.09334 5.40315 3.30473 5.18109C3.51709 4.95903 3.63249 4.66327 3.6257 4.35685L3.62182 4.10958H4.99782V4.352C4.99782 4.65939 5.12 4.95321 5.33721 5.17042C5.55443 5.38764 5.84824 5.50982 6.15564 5.50982C6.46303 5.50982 6.75782 5.38764 6.97503 5.17042C7.19224 4.95321 7.31442 4.65939 7.31442 4.352V4.10958H8.672V4.352C8.672 4.65939 8.79418 4.95321 9.01139 5.17042C9.22861 5.38764 9.52339 5.50982 9.83079 5.50982C10.1382 5.50982 10.433 5.38764 10.6502 5.17042C10.8674 4.95321 10.9896 4.65939 10.9896 4.352V4.10958H12.3375L12.3384 4.35103C12.3394 4.65842 12.4616 4.95224 12.6788 5.16945C12.896 5.38667 13.1908 5.50885 13.4972 5.50982H13.5118L13.5263 5.51176C13.5418 5.5137 13.5583 5.5137 13.5738 5.51176L13.5893 5.51079C13.8541 5.49527 14.1042 5.38473 14.2924 5.19855L14.2982 5.1937C14.5047 5.00267 14.6337 4.74279 14.6608 4.46449L14.2351 3.28533C14.2351 3.28533 13.6495 1.61745 13.6485 1.61552L13.5535 1.33624Z" fill="white"/>
</svg>
