<svg width="92" height="69" viewBox="0 0 92 69" fill="none" xmlns="http://www.w3.org/2000/svg">
<path d="M63.5 16H62.5H1.53993C0.688714 16 0 16.6895 0 17.5417V67.4581C0 67.6588 0.0407445 67.8586 0.11853 68.0469C0.274577 68.4245 0.574725 68.7251 0.951821 68.8813C1.13451 68.9571 1.32844 68.9946 1.5232 68.9967C1.52905 68.9968 1.53395 69 1.53993 69H75.4601C75.6604 69 75.8601 68.9592 76.0482 68.8813C76.4253 68.7251 76.7254 68.4245 76.8815 68.0469C76.9594 67.8586 77 67.6588 77 67.4581V29.5V28C77 28 72.5 28.5 68 25C63.5 21.5 63.5 16 63.5 16ZM66.5 25.5C69 28 73.92 29.5 73.92 29.5V63.7361L50.3403 40.1285C49.7387 39.5262 48.7642 39.5262 48.1625 40.1285L31.0632 57.248L21.4006 47.5741C20.7991 46.9719 19.8244 46.9719 19.2229 47.5741L3.07998 63.7361V19.0836H63C63 19.0836 64 23 66.5 25.5ZM39.7211 65.9163L33.2408 59.4283L49.2514 43.3989L71.7423 65.9163H39.7211ZM29.9742 60.5184L35.3658 65.9163H5.25772L20.3118 50.8444L29.9742 60.5184Z" fill="#8E8E8E"/>
<path d="M31.4993 42C35.6358 42 39 38.4111 39 34C39 29.5889 35.6358 26 31.4993 26C27.3642 26 24 29.5889 24 34C24 38.4111 27.3642 42 31.4993 42ZM31.4993 29.1477C34.0077 29.1477 36.0493 31.3241 36.0493 34C36.0493 36.6759 34.0077 38.8523 31.4993 38.8523C28.9909 38.8523 26.9507 36.6759 26.9507 34C26.9507 31.3241 28.9909 29.1477 31.4993 29.1477Z" fill="#8E8E8E"/>
<path d="M82.3539 14.5093C83.3446 15.59 81.6334 17.1211 80.6427 16.0404L77.6707 12.7081V21.1739C77.6707 22.705 75.3291 22.705 75.3291 21.1739V12.7081L72.357 16.0404C71.2763 17.1211 69.6552 15.59 70.6458 14.5093L75.5092 9.10558C75.9595 8.47514 77.0403 8.47514 77.4906 9.10558L82.3539 14.5093Z" fill="#8E8E8E" stroke="#8E8E8E" stroke-width="0.5"/>
<path d="M76.5 1C84.5155 1 91 7.48447 91 15.5C91 23.5155 84.5155 30 76.5 30C68.4845 30 62 23.5155 62 15.5C62 7.48447 68.4845 1 76.5 1ZM76.5 3.25155C69.7453 3.25155 64.2516 8.74534 64.2516 15.5C64.2516 22.2547 69.7453 27.6584 76.5 27.6584C83.2547 27.6584 88.6584 22.2547 88.6584 15.5C88.6584 8.74534 83.2547 3.25155 76.5 3.25155Z" fill="#8E8E8E" stroke="#8E8E8E" stroke-width="0.5"/>
</svg>
