<?xml version="1.0" standalone="no"?>
<!DOCTYPE svg PUBLIC "-//W3C//DTD SVG 1.1//EN" "http://www.w3.org/Graphics/SVG/1.1/DTD/svg11.dtd" >
<svg xmlns="http://www.w3.org/2000/svg" xmlns:xlink="http://www.w3.org/1999/xlink" version="1.1">
<metadata>
Created by FontForge 20170731 at Thu Feb 18 17:03:29 2021
 By Aleksey,,,
Copyright (c) 2017 by Alexander Slobzheninov. All rights reserved.
</metadata>
<defs>
<font id="FivoSans-Regular" horiz-adv-x="1157" >
  <font-face 
    font-family="Fivo Sans"
    font-weight="400"
    font-stretch="normal"
    units-per-em="2048"
    panose-1="0 0 0 0 0 0 0 0 0 0"
    ascent="1638"
    descent="-410"
    x-height="1024"
    cap-height="1434"
    bbox="-102 -514 2449 1966"
    underline-thickness="102"
    underline-position="1894"
    unicode-range="U+000D-E133"
  />
<missing-glyph horiz-adv-x="409" 
 />
    <glyph glyph-name=".notdef" horiz-adv-x="409" 
 />
    <glyph glyph-name=".null" horiz-adv-x="0" 
 />
    <glyph glyph-name="nonmarkingreturn" horiz-adv-x="682" 
 />
    <glyph glyph-name="NULL" horiz-adv-x="1628" 
d="M205 1434h1218v-1434h-1218v1434zM362 1278v-1122h904v1122h-904z" />
    <glyph glyph-name="NULL" horiz-adv-x="1628" 
d="M205 1434h1218v-1434h-1218v1434zM362 1278v-1122h904v1122h-904z" />
    <glyph glyph-name="CR" unicode="&#xd;" horiz-adv-x="512" 
 />
    <glyph glyph-name="space" unicode=" " horiz-adv-x="614" 
 />
    <glyph glyph-name="exclam" unicode="!" horiz-adv-x="559" 
d="M279 217q61 0 88.5 -28.5t27.5 -90.5q0 -61 -28 -89.5t-88 -28.5t-87.5 28t-27.5 90t27.5 90.5t87.5 28.5zM193 1434h172v-390l-31 -534h-111l-30 534v390z" />
    <glyph glyph-name="quotedbl" unicode="&#x22;" horiz-adv-x="651" 
d="M252 1434v-287l-14 -350h-119l-17 350v287h150zM549 1434v-287l-14 -350h-119l-15 350v287h148z" />
    <glyph glyph-name="numbersign" unicode="#" horiz-adv-x="1576" 
d="M842 0l59 418h-311l-60 -418h-127l60 418h-340v129h358l43 301h-340v129h359l65 457h127l-65 -457h311l66 457h127l-66 -457h346v-129h-364l-43 -301h346v-129h-365l-59 -418h-127zM963 848h-312l-43 -301h312z" />
    <glyph glyph-name="dollar" unicode="$" horiz-adv-x="1320" 
d="M594 -205v166q-246 12 -358.5 119.5t-112.5 329.5h166q0 -167 87 -240.5t286 -73.5q196 0 280 64t84 209q0 55 -25 98.5t-53.5 69t-96 51t-103 35t-124.5 30.5q-78 19 -118.5 30t-108 33.5t-103.5 48.5t-76 64t-57.5 90.5t-17.5 118.5q0 214 108 318.5t343 116.5v165h133
v-165q236 -12 343.5 -119.5t107.5 -329.5h-164q0 166 -82.5 239.5t-269.5 73.5q-186 0 -266.5 -63t-80.5 -209q0 -53 24.5 -93.5t67 -65t99 -45.5t120 -34.5t131 -31.5t131 -36t120 -50t99 -72t67 -102t24.5 -140q0 -216 -112 -320t-359 -114v-166h-133z" />
    <glyph glyph-name="percent" unicode="%" horiz-adv-x="1763" 
d="M432 1454q174 0 253 -94t79 -303t-79.5 -304.5t-252.5 -95.5q-172 0 -251 95.5t-79 304.5t79 303t251 94zM432 770q110 0 157.5 66.5t47.5 220.5q0 152 -48 219t-155 67q-110 0 -157.5 -66.5t-47.5 -219.5q0 -154 47 -220.5t156 -66.5zM506 -61h-152l901 1556h152z
M1329 799q174 0 253 -94.5t79 -303.5t-79.5 -304t-252.5 -95t-251.5 95t-78.5 304t78.5 303.5t251.5 94.5zM1329 115q109 0 157 66.5t48 219.5q0 152 -48 219.5t-157 67.5t-157 -67.5t-48 -219.5q0 -153 48 -219.5t157 -66.5z" />
    <glyph glyph-name="ampersand" unicode="&#x26;" horiz-adv-x="1597" 
d="M1536 0h-209l-203 190q-210 -231 -524 -231q-230 0 -353.5 109t-123.5 294q0 78 28.5 145.5t83.5 122.5t113 95.5t137 83.5q-80 86 -129 170t-49 178q0 163 104.5 240.5t288.5 77.5q375 0 375 -301q0 -51 -20.5 -98t-50.5 -82.5t-81 -74t-94 -64t-108 -60.5l393 -387
q82 143 98 311h136q-19 -233 -131 -414zM621 96h-1q114 0 219 50.5t185 138.5l-442 428q-135 -77 -209 -155.5t-74 -182.5q0 -130 93.5 -204.5t227.5 -74.5h1zM629 881q63 33 97 51.5t81 49t70.5 55t41 57t17.5 67.5q0 99 -63 146t-168 47q-106 0 -176 -50.5t-70 -154.5
q0 -63 46.5 -128t123.5 -140z" />
    <glyph glyph-name="quotesingle" unicode="'" horiz-adv-x="354" 
d="M252 1434v-287l-14 -350h-119l-17 350v287h150z" />
    <glyph glyph-name="parenleft" unicode="(" horiz-adv-x="583" 
d="M387 -410q-7 17 -42.5 85t-69 146t-70.5 184.5t-59.5 244.5t-22.5 282t22.5 278t59 234t71 173.5t69 135.5t42.5 81h135q-7 -18 -41.5 -81t-68 -136t-69 -173t-57.5 -234t-22 -278t22 -281.5t58 -245t68.5 -184.5t68 -146t41.5 -85h-135z" />
    <glyph glyph-name="parenright" unicode=")" horiz-adv-x="583" 
d="M199 -410h-138q6 16 41.5 85t68 146t68.5 184.5t58 245t22 281.5t-22 278t-57.5 234t-69 173t-68 136t-41.5 81h138q8 -19 42.5 -81.5t68.5 -135.5t70 -173t58.5 -234t22.5 -278t-22.5 -281.5t-59 -244.5t-69.5 -184.5t-68.5 -146.5t-42.5 -85z" />
    <glyph glyph-name="asterisk" unicode="*" horiz-adv-x="780" 
d="M346 819v123l8 82v39l-35 -21l-65 -49l-109 -61l-43 80l107 63l76 33l28 16l-30 19l-74 35l-107 61l43 80l107 -62l67 -47l35 -20v39l-8 82v123h88v-123l-8 -82v-39l35 20l67 50l107 59l43 -80l-107 -61l-73 -33l-33 -19l33 -18l73 -35l107 -61l-43 -80l-107 61l-67 47
l-35 21v-37l8 -82v-123h-88z" />
    <glyph glyph-name="plus" unicode="+" horiz-adv-x="1269" 
d="M1167 596v-137h-467v-459h-133v459h-465v137h465v428h133v-428h467z" />
    <glyph glyph-name="comma" unicode="," horiz-adv-x="434" 
d="M209 217q64 0 93.5 -49t29.5 -156q0 -154 -50 -225.5t-159 -71.5v92q51 0 73.5 41t22.5 132q-59 0 -86.5 26t-30.5 84q-3 66 22.5 96.5t84.5 30.5z" />
    <glyph glyph-name="hyphen" unicode="-" horiz-adv-x="880" 
d="M778 479h-676v137h676v-137z" />
    <glyph glyph-name="period" unicode="." horiz-adv-x="436" 
d="M217 217q61 0 89 -28.5t28 -90.5q0 -61 -28.5 -89.5t-88.5 -28.5t-87.5 27.5t-27.5 90.5q0 62 27.5 90.5t87.5 28.5z" />
    <glyph glyph-name="slash" unicode="/" horiz-adv-x="763" 
d="M551 1434l151 -2l-491 -1434l-150 2z" />
    <glyph glyph-name="zero" unicode="0" horiz-adv-x="1419" 
d="M711 1475q307 0 446 -180t139 -578t-139 -578t-446 -180q-309 0 -448.5 180t-139.5 578t139.5 578t448.5 180zM711 96q218 0 315.5 147t97.5 474t-97.5 473.5t-315.5 146.5q-220 0 -318 -146.5t-98 -473.5t98 -474t318 -147z" />
    <glyph glyph-name="one" unicode="1" horiz-adv-x="718" 
d="M102 1296v138h412v-1434h-166v1296h-246z" />
    <glyph glyph-name="two" unicode="2" horiz-adv-x="1212" 
d="M348 137h742v-137h-988v109q90 79 210 175t201.5 159t170 142t141 142.5t87 141.5t34.5 157q0 166 -76.5 238.5t-253.5 72.5q-175 0 -252 -88t-77 -286h-164q0 269 117 390.5t376 121.5t376.5 -107t117.5 -342q0 -84 -33 -166.5t-81 -147.5t-131.5 -144.5t-153.5 -135.5
t-181.5 -145.5t-181.5 -149.5z" />
    <glyph glyph-name="three" unicode="3" horiz-adv-x="1310" 
d="M625 684h-64v129h64q186 0 269 61.5t83 196.5q0 143 -77 204.5t-255 61.5t-255 -82.5t-77 -271.5h-149q0 258 114.5 375t366.5 117q253 0 367 -94.5t114 -301.5q0 -64 -15 -115.5t-37 -84t-53 -57t-58 -36.5t-57 -19t-44.5 -8t-25.5 -1q12 0 30 -1.5t54 -9.5t69 -22
t70.5 -41.5t65 -64t45.5 -95t18 -129.5q0 -229 -128.5 -332.5t-414.5 -103.5q-284 0 -413.5 122t-129.5 390h158q0 -198 90.5 -286.5t294.5 -88.5q202 0 290.5 69.5t88.5 229.5q0 152 -94 220.5t-305 68.5z" />
    <glyph glyph-name="four" unicode="4" horiz-adv-x="1345" 
d="M846 1434h190v-899h144v-138h-144v-397h-164v397h-772v168zM250 535h622v737z" />
    <glyph glyph-name="five" unicode="5" horiz-adv-x="1290" 
d="M432 1296l-2 -2l-68 -401q109 90 320 90q255 0 370 -121.5t115 -390.5t-127.5 -390.5t-410.5 -121.5q-249 0 -369 107t-137 344h149q17 -166 102.5 -240t262.5 -74q194 0 280.5 88.5t86.5 286.5t-84 286.5t-271 88.5q-152 0 -228 -52.5t-104 -177.5h-141l135 818h754
v-138h-633z" />
    <glyph glyph-name="six" unicode="6" horiz-adv-x="1310" 
d="M123 696q0 409 129.5 594t413.5 185q210 0 324 -97t157 -313h-156q-37 151 -111.5 216t-213.5 65q-204 0 -291.5 -146t-87.5 -481q0 6 1 15.5t9.5 36.5t22.5 52t44 55.5t70 52.5t104.5 37t143.5 15q265 0 385.5 -121.5t120.5 -390.5t-123.5 -390.5t-398.5 -121.5
q-157 0 -262 42.5t-167 136t-88 227t-26 331.5zM666 846q-187 0 -272 -89t-85 -286t85 -286t272 -89q190 0 274 87.5t84 287.5q0 198 -84 286.5t-274 88.5z" />
    <glyph glyph-name="seven" unicode="7" horiz-adv-x="1114" 
d="M1032 1325l-614 -1325h-174l608 1296h-750v138h930v-109z" />
    <glyph glyph-name="eight" unicode="8" horiz-adv-x="1372" 
d="M377 758q-193 81 -193 321q0 207 120 301.5t382 94.5q264 0 383 -94.5t119 -301.5q0 -241 -191 -321q130 -41 191 -131.5t61 -237.5q0 -224 -133.5 -326t-429.5 -102q-295 0 -429 102t-134 326q0 147 62 237.5t192 131.5zM688 96q212 0 305.5 69t93.5 226t-92.5 225
t-306.5 68q-212 0 -304.5 -68t-92.5 -225t92.5 -226t304.5 -69zM686 1337q-184 0 -264 -61.5t-80 -200.5q0 -141 79.5 -201.5t264.5 -60.5q184 0 265 61t81 201q0 138 -81 200t-265 62z" />
    <glyph glyph-name="nine" unicode="9" horiz-adv-x="1310" 
d="M1188 737q0 -409 -128.5 -593.5t-414.5 -184.5q-209 0 -323.5 97.5t-157.5 312.5h158q35 -151 110 -216t213 -65q205 0 293 146.5t88 480.5q0 -6 -1.5 -15.5t-10 -36.5t-22.5 -52t-44 -55.5t-70 -52.5t-104 -37t-143 -15q-267 0 -387.5 121.5t-120.5 390.5t124 390.5
t398 121.5q158 0 263 -42.5t167 -136.5t87.5 -227.5t25.5 -331.5zM645 588q188 0 273.5 89.5t85.5 285.5q0 197 -85 285.5t-274 88.5q-190 0 -273 -87t-83 -287q0 -198 83.5 -286.5t272.5 -88.5z" />
    <glyph glyph-name="colon" unicode=":" horiz-adv-x="436" 
d="M219 217q60 0 87.5 -28.5t27.5 -90.5t-28 -90t-89 -28q-60 0 -87.5 28t-27.5 90t28 90.5t89 28.5zM219 1036q60 0 87.5 -28t27.5 -90t-28 -90.5t-89 -28.5q-60 0 -87.5 28.5t-27.5 90.5t28 90t89 28z" />
    <glyph glyph-name="semicolon" unicode=";" horiz-adv-x="436" 
d="M219 1036q60 0 87.5 -28t27.5 -90t-28 -90.5t-89 -28.5q-60 0 -87.5 28.5t-27.5 90.5t28 90t89 28zM211 217q64 0 93.5 -49t29.5 -156q0 -154 -51.5 -225.5t-159.5 -71.5v92q52 0 75 41t23 132q-62 0 -89.5 26t-27.5 84q0 66 25.5 96.5t81.5 30.5z" />
    <glyph glyph-name="less" unicode="&#x3c;" horiz-adv-x="1024" 
d="M102 606l820 418v-168l-674 -344l674 -344v-168l-820 418v188z" />
    <glyph glyph-name="equal" unicode="=" horiz-adv-x="1331" 
d="M1229 424v-137h-1127v137h1127zM1229 799v-137h-1127v137h1127z" />
    <glyph glyph-name="greater" unicode="&#x3e;" horiz-adv-x="1024" 
d="M102 1024l820 -418v-188l-820 -418v168l674 344l-674 344v168z" />
    <glyph glyph-name="question" unicode="?" horiz-adv-x="1091" 
d="M535 217q60 0 87 -28.5t27 -90.5t-27 -90t-87 -28q-61 0 -89 28t-28 90t28 90.5t89 28.5zM451 473q0 83 20 147t52.5 103.5t71.5 71.5t78 58.5t71.5 56t52.5 74t20 101.5q0 132 -66 192t-212 60q-147 0 -213 -79t-66 -254h-158q0 247 105.5 359t337.5 112
q233 0 338.5 -93t105.5 -297q0 -75 -22 -132t-57 -93t-77.5 -65.5t-84.5 -57.5t-77 -60.5t-57 -84t-22 -119.5h-141z" />
    <glyph glyph-name="at" unicode="@" horiz-adv-x="1732" 
d="M1247 942v-553q0 -124 26 -180.5t83 -56.5q66 0 96.5 85.5t30.5 274.5q0 362 -139.5 523t-454.5 161q-339 0 -489 -160.5t-150 -523.5q0 -349 132.5 -506.5t428.5 -157.5q185 0 330 99v-133q-130 -86 -328 -86q-362 0 -526 186t-164 598q0 424 181.5 614.5t584.5 190.5
q378 0 549.5 -191.5t171.5 -613.5q0 -245 -62 -358t-192 -113q-90 0 -144 41.5t-77 128.5q-84 -129 -295 -129q-198 0 -287.5 102t-89.5 328q0 236 89.5 343.5t287.5 107.5q194 0 286 -138l21 117h100zM862 193q135 0 194.5 75t59.5 244q0 175 -59.5 252.5t-194.5 77.5
q-141 0 -202.5 -76.5t-61.5 -253.5q0 -170 61.5 -244.5t202.5 -74.5z" />
    <glyph glyph-name="A" unicode="A" horiz-adv-x="1419" 
d="M1149 0l-121 348h-641l-123 -348h-182l512 1434h248l495 -1434h-188zM709 1266l-275 -781h545z" />
    <glyph glyph-name="B" unicode="B" horiz-adv-x="1402" 
d="M979 758q6 0 17 -1.5t42 -10.5t59.5 -22.5t63.5 -40.5t60 -62t42 -90.5t17 -122.5q0 -214 -121.5 -311t-388.5 -97h-565v1434h559q238 0 346.5 -87.5t108.5 -279.5q0 -58 -13 -106t-34.5 -79t-47 -55t-51 -36.5t-47 -20.5t-34.5 -10zM748 137q184 0 264 63t80 208
q0 146 -81 211t-263 65h-363v-547h363zM385 1296v-483h354q153 0 222 58.5t69 187.5q0 126 -68 181.5t-223 55.5h-354z" />
    <glyph glyph-name="C" unicode="C" horiz-adv-x="1546" 
d="M1243 469h180q-75 -268 -224 -389t-408 -121q-348 0 -508 180.5t-160 577.5t160 577.5t508 180.5q284 0 432.5 -121t199.5 -389h-180q-46 192 -149.5 273t-302.5 81q-252 0 -366 -142t-114 -460q0 -319 113.5 -460.5t366.5 -141.5q182 0 285.5 81t166.5 273z" />
    <glyph glyph-name="D" unicode="D" horiz-adv-x="1480" 
d="M1358 717q0 -376 -157.5 -546.5t-504.5 -170.5h-491v1434h491q347 0 504.5 -170.5t157.5 -546.5zM688 1288h-303v-1143h303q255 0 368 134.5t113 437.5q0 301 -113 436t-368 135z" />
    <glyph glyph-name="E" unicode="E" horiz-adv-x="1269" 
d="M1167 1288h-782v-467h700v-145h-700v-531h782v-145h-962v1434h962v-146z" />
    <glyph glyph-name="F" unicode="F" horiz-adv-x="1249" 
d="M1167 1288h-782v-467h700v-145h-700v-676h-180v1434h962v-146z" />
    <glyph glyph-name="G" unicode="G" horiz-adv-x="1566" 
d="M805 655v138h639v-76q0 -398 -151.5 -578t-487.5 -180q-358 0 -520 180t-162 578t162 578t520 180q274 0 420.5 -117t197.5 -375h-172q-41 178 -146 257t-300 79q-262 0 -378 -141t-116 -461q0 -319 116.5 -460.5t377.5 -141.5q248 0 357.5 126.5t109.5 413.5h-467z" />
    <glyph glyph-name="H" unicode="H" horiz-adv-x="1525" 
d="M1141 1434h180v-1434h-180v684h-756v-684h-180v1434h180v-594h756v594z" />
    <glyph glyph-name="I" unicode="I" horiz-adv-x="589" 
d="M205 1434h180v-1434h-180v1434z" />
    <glyph glyph-name="J" unicode="J" horiz-adv-x="1165" 
d="M102 430v47h174v-47q0 -168 61.5 -241.5t201.5 -73.5t201 73.5t61 241.5v1004h180v-1004q0 -243 -105 -353t-337 -110q-229 0 -333 110t-104 353z" />
    <glyph glyph-name="K" unicode="K" horiz-adv-x="1339" 
d="M385 1434v-627l608 627h224l-676 -697l716 -737h-223l-649 668v-668h-180v1434h180z" />
    <glyph glyph-name="L" unicode="L" horiz-adv-x="1187" 
d="M1085 156v-156h-880v1434h180v-1278h700z" />
    <glyph glyph-name="M" unicode="M" horiz-adv-x="1869" 
d="M205 0v1434h246l487 -1166l487 1166h240v-1434h-172v1188l-500 -1188h-119l-497 1188v-1188h-172z" />
    <glyph glyph-name="N" unicode="N" horiz-adv-x="1542" 
d="M1165 1434h172v-1434h-217l-743 1190v-1190h-172v1434h215l745 -1190v1190z" />
    <glyph glyph-name="O" unicode="O" horiz-adv-x="1607" 
d="M805 1475q357 0 518.5 -180t161.5 -578t-161.5 -578t-518.5 -180q-358 0 -520 180t-162 578t162 578t520 180zM805 1319q-261 0 -377.5 -141.5t-116.5 -460.5t116.5 -460.5t377.5 -141.5t377 141.5t116 460.5t-116 460.5t-377 141.5z" />
    <glyph glyph-name="P" unicode="P" horiz-adv-x="1382" 
d="M1280 985q0 -214 -120.5 -330t-375.5 -116h-399v-539h-180v1434h579q496 0 496 -449zM1100 985q0 156 -77 229.5t-247 73.5h-391v-604h391q169 0 246.5 74t77.5 227z" />
    <glyph glyph-name="Q" unicode="Q" horiz-adv-x="1607" 
d="M805 1475q358 0 519 -179t161 -577q0 -439 -201 -617l201 -243h-172l-142 170q-146 -70 -366 -70q-358 0 -520 180t-162 578t162 578t520 180zM805 1321q-262 0 -379 -141.5t-117 -460.5t116.5 -460.5t377.5 -141.5q156 0 256 47l-322 391h172l258 -313q131 140 131 477
q0 319 -116 460.5t-377 141.5z" />
    <glyph glyph-name="R" unicode="R" horiz-adv-x="1439" 
d="M1124 0l-297 545h-442v-547h-180v1434h612q496 0 496 -449q0 -350 -312 -418l316 -565h-193zM385 684h424q168 0 246 74t78 227q0 156 -77 229.5t-247 73.5h-424v-604z" />
    <glyph glyph-name="S" unicode="S" horiz-adv-x="1320" 
d="M315 1065q0 -53 24.5 -93.5t67 -65t99 -45.5t120 -34.5t131 -31.5t131 -36t120 -50t99 -72t67 -102t24.5 -140q0 -229 -127 -332.5t-409 -103.5q-283 0 -411 107.5t-128 343.5h166q0 -167 87 -240.5t286 -73.5q196 0 280 64t84 209q0 55 -25 98.5t-53.5 69t-96 51
t-103 35t-124.5 30.5q-78 19 -118.5 30t-108 33.5t-103.5 48.5t-76 64t-57.5 90.5t-17.5 118.5q0 229 123.5 333t395.5 104q271 0 393.5 -107t122.5 -344h-164q0 166 -82.5 239.5t-269.5 73.5q-186 0 -266.5 -63t-80.5 -209z" />
    <glyph glyph-name="T" unicode="T" horiz-adv-x="1280" 
d="M1178 1434v-156h-449v-1278h-180v1278h-447v156h1076z" />
    <glyph glyph-name="U" unicode="U" horiz-adv-x="1484" 
d="M184 520v914h181v-914q0 -215 88.5 -310t289.5 -95q200 0 288.5 95t88.5 310v914h180v-914q0 -295 -132.5 -428t-424.5 -133q-293 0 -426 133t-133 428z" />
    <glyph glyph-name="V" unicode="V" horiz-adv-x="1411" 
d="M264 1434l443 -1307l442 1307h180l-495 -1434h-254l-498 1434h182z" />
    <glyph glyph-name="W" unicode="W" horiz-adv-x="2072" 
d="M928 1434h217l305 -1266l340 1266h180l-399 -1434h-232l-311 1266l-295 -1266h-231l-400 1434h181l340 -1266z" />
    <glyph glyph-name="X" unicode="X" horiz-adv-x="1368" 
d="M303 1434l387 -594l381 594h195l-457 -697l477 -737h-201l-397 635l-414 -635h-192l479 737l-459 697h201z" />
    <glyph glyph-name="Y" unicode="Y" horiz-adv-x="1329" 
d="M756 580h-2v-580h-172v580l-500 854h201l387 -689l387 689h190z" />
    <glyph glyph-name="Z" unicode="Z" horiz-adv-x="1290" 
d="M317 145h871v-145h-1086v119l848 1169h-827v146h1044v-119z" />
    <glyph glyph-name="bracketleft" unicode="[" horiz-adv-x="632" 
d="M205 1434h366v-138h-225v-1568h225v-138h-366v1844z" />
    <glyph glyph-name="backslash" unicode="\" horiz-adv-x="763" 
d="M61 1432l150 2l491 -1434l-151 -2z" />
    <glyph glyph-name="bracketright" unicode="]" horiz-adv-x="632" 
d="M61 1434h367v-1844h-367v138h226v1568h-226v138z" />
    <glyph glyph-name="asciicircum" unicode="^" horiz-adv-x="991" 
d="M584 1372l305 -717h-135l-258 605l-258 -605h-136l306 717h176z" />
    <glyph glyph-name="underscore" unicode="_" horiz-adv-x="1064" 
d="M1065 0v-137h-1065v137h1065z" />
    <glyph glyph-name="grave" unicode="`" horiz-adv-x="604" 
d="M274 1434l228 -308h-142l-258 308h172z" />
    <glyph glyph-name="a" unicode="a" horiz-adv-x="1116" 
d="M840 0l-21 121q-93 -141 -340 -141q-198 0 -287.5 74.5t-89.5 240.5q0 183 109 265.5t352 82.5h246v53q0 126 -60 182t-194 56q-136 0 -195 -50.5t-59 -166.5h-158q0 172 99 249.5t317 77.5q216 0 315 -87t99 -279v-678h-133zM809 532h-242q-158 0 -229.5 -53.5
t-71.5 -173.5q0 -107 58 -151.5t194 -44.5q148 0 219.5 69t71.5 219v135z" />
    <glyph glyph-name="b" unicode="b" horiz-adv-x="1218" 
d="M1116 512q0 -280 -103 -407.5t-333 -127.5q-256 0 -358 162l-25 -139h-133v1434h164v-539q102 149 350 149q230 0 334 -126t104 -406zM643 115q163 0 237 94t74 301t-74 301t-237 94q-164 0 -238.5 -94t-74.5 -301t74.5 -301t238.5 -94z" />
    <glyph glyph-name="c" unicode="c" 
d="M891 354h164q-26 -196 -134.5 -285t-320.5 -89q-261 0 -379.5 126t-118.5 406t118.5 406t379.5 126q212 0 320.5 -89t134.5 -285h-164q-25 124 -94 180.5t-197 56.5q-175 0 -254.5 -94t-79.5 -301t79.5 -301t254.5 -94q127 0 196 56t95 181z" />
    <glyph glyph-name="d" unicode="d" horiz-adv-x="1218" 
d="M539 -20q-230 0 -333.5 127t-103.5 407t104.5 406.5t334.5 126.5q247 0 350 -150v539h164v-1434h-133l-25 139q-102 -161 -358 -161zM580 119q163 0 237 94t74 301t-74 301t-237 94q-164 0 -239 -94t-75 -301t75 -301t239 -94z" />
    <glyph glyph-name="e" unicode="e" 
d="M268 422q14 -167 87.5 -244.5t224.5 -77.5q119 0 182.5 46.5t95.5 158.5h156q-37 -170 -140 -247.5t-294 -77.5q-251 0 -364.5 126t-113.5 406t113 406t365 126q249 0 362 -131.5t113 -423.5v-67h-787zM891 532q0 209 -74 300.5t-239 91.5q-164 0 -239 -93t-75 -299h627z
" />
    <glyph glyph-name="f" unicode="f" horiz-adv-x="829" 
d="M600 1296q-164 0 -164 -143v-129h312v-121h-312v-903h-166v903h-188v121h188v129q0 131 74.5 206t216.5 75h187v-138h-148z" />
    <glyph glyph-name="g" unicode="g" horiz-adv-x="1218" 
d="M541 -20q-231 0 -335 125.5t-104 404.5q0 280 104.5 407t334.5 127q258 0 360 -165l21 145h133v-922q0 -281 -112.5 -406.5t-362.5 -125.5q-199 0 -302.5 77.5t-134.5 248.5h158q25 -112 87 -158.5t183 -46.5q169 0 244.5 90.5t75.5 294.5v53q-102 -149 -350 -149z
M580 115q166 0 238.5 92t72.5 303t-72.5 303t-238.5 92q-167 0 -240.5 -92t-73.5 -303q0 -210 73.5 -302.5t240.5 -92.5z" />
    <glyph glyph-name="h" unicode="h" horiz-adv-x="1177" 
d="M164 0v1434h164v-521q96 131 323 131q201 0 292 -116.5t91 -374.5v-553h-164v553q0 189 -60 271.5t-198 82.5q-152 0 -218 -82.5t-66 -271.5v-553h-164z" />
    <glyph glyph-name="i" unicode="i" horiz-adv-x="518" 
d="M342 0h-166v1024h166v-1024zM258 1448q61 0 89 -27.5t28 -87.5q0 -59 -28 -85.5t-89 -26.5q-60 0 -87.5 27t-27.5 85q0 60 27.5 87.5t87.5 27.5z" />
    <glyph glyph-name="j" unicode="j" horiz-adv-x="524" 
d="M4 -231q91 0 135.5 43t44.5 118v1094h164v-1112q0 -131 -74 -206t-215 -75h-161v138h106zM266 1448q60 0 87.5 -27.5t27.5 -87.5q0 -58 -27.5 -85t-87.5 -27t-88 27t-28 85q0 60 27.5 87.5t88.5 27.5z" />
    <glyph glyph-name="k" unicode="k" horiz-adv-x="1091" 
d="M328 1434v-852l460 442h201l-512 -492l553 -532h-201l-501 483v-483h-164v1434h164z" />
    <glyph glyph-name="l" unicode="l" horiz-adv-x="491" 
d="M164 0v1434h164v-1434h-164z" />
    <glyph glyph-name="m" unicode="m" horiz-adv-x="1753" 
d="M582 907q-134 0 -194 -83.5t-60 -270.5v-553h-164v1024h133l25 -147q80 167 303 167q116 0 190.5 -47.5t112.5 -148.5q41 101 122.5 148.5t209.5 47.5q184 0 267 -116.5t83 -374.5v-553h-164v553q0 186 -53.5 270t-171.5 84q-132 0 -191 -83.5t-59 -270.5v-553h-166v553
q0 189 -51.5 271.5t-171.5 82.5z" />
    <glyph glyph-name="n" unicode="n" horiz-adv-x="1177" 
d="M319 903q97 141 332 141q201 0 292 -116.5t91 -374.5v-553h-164v553q0 189 -60.5 271.5t-197.5 82.5q-149 0 -216.5 -84t-67.5 -270v-553h-164v1024h133z" />
    <glyph glyph-name="o" unicode="o" horiz-adv-x="1198" 
d="M600 1044q260 0 378 -126.5t118 -405.5t-118 -405.5t-378 -126.5q-261 0 -379.5 126t-118.5 406t118.5 406t379.5 126zM266 512q0 -209 78.5 -302t255.5 -93q175 0 253.5 93t78.5 302q0 211 -77.5 303t-254.5 92q-178 0 -256 -92t-78 -303z" />
    <glyph glyph-name="p" unicode="p" horiz-adv-x="1218" 
d="M322 883q52 83 139 122t217 39q230 0 334 -127t104 -407t-104 -406.5t-334 -126.5q-247 0 -350 150v-539h-164v1434h133zM641 905q-164 0 -238.5 -94t-74.5 -301t74.5 -301t238.5 -94q163 0 237 94t74 301t-74 301t-237 94z" />
    <glyph glyph-name="q" unicode="q" horiz-adv-x="1218" 
d="M102 512q0 280 104.5 406t334.5 126q130 0 217 -38.5t139 -120.5l25 139h133v-1434h-164v539q-102 -149 -350 -149q-230 0 -334.5 126t-104.5 406zM578 909q-164 0 -239 -94t-75 -301t75 -301t239 -94q163 0 237 94t74 301t-74 301t-237 94z" />
    <glyph glyph-name="r" unicode="r" horiz-adv-x="780" 
d="M586 889q-148 0 -203 -82.5t-55 -294.5v-512h-164v1024h133l25 -123q81 143 264 143h112v-155h-112z" />
    <glyph glyph-name="s" unicode="s" horiz-adv-x="1026" 
d="M272 768q0 -54 36 -88.5t93.5 -51.5t127 -30t139 -31t127 -47t93.5 -86.5t36 -140.5q0 -164 -99 -238.5t-319 -74.5q-212 0 -308 77.5t-96 249.5h158q0 -116 58.5 -166.5t191.5 -50.5t191.5 43t58.5 141q0 46 -22 79.5t-59.5 52.5t-86 32.5t-101.5 24t-106.5 22.5
t-102 31.5t-86 48t-59.5 76.5t-22 111q0 154 94 223t301 69q203 0 295 -73t92 -234h-149q0 104 -56 150.5t-182 46.5q-128 0 -183 -38.5t-55 -127.5z" />
    <glyph glyph-name="t" unicode="t" horiz-adv-x="825" 
d="M432 299q0 -75 44 -118.5t134 -43.5h133v-137h-186q-142 0 -216.5 75t-74.5 206v622h-164v121h164v244h166v-244h311v-121h-311v-604z" />
    <glyph glyph-name="u" unicode="u" horiz-adv-x="1177" 
d="M838 121q-97 -141 -332 -141q-201 0 -292 116.5t-91 374.5v553h164v-553q0 -189 60.5 -271.5t197.5 -82.5q149 0 216.5 84t67.5 270v553h164v-1024h-133z" />
    <glyph glyph-name="v" unicode="v" horiz-adv-x="1107" 
d="M557 115l315 909h175l-373 -1024h-240l-373 1024h175z" />
    <glyph glyph-name="w" unicode="w" horiz-adv-x="1738" 
d="M1317 0h-197l-252 899l-252 -899h-198l-336 1024h166l276 -889l248 889h199l243 -891l277 891h166z" />
    <glyph glyph-name="x" unicode="x" horiz-adv-x="1050" 
d="M260 1024l264 -399l264 399h181l-340 -492l360 -532h-180l-285 438l-284 -438h-179l361 532l-340 492h178z" />
    <glyph glyph-name="y" unicode="y" horiz-adv-x="1075" 
d="M504 12l4 13l-447 999h160l357 -799l278 799h158l-381 -1065q-62 -172 -143 -250t-199 -78h-113v121h107q71 0 123 62t96 198z" />
    <glyph glyph-name="z" unicode="z" horiz-adv-x="1005" 
d="M283 129h641v-129h-842v102l620 793h-600v129h801v-102z" />
    <glyph glyph-name="braceleft" unicode="{" horiz-adv-x="755" 
d="M383 213v-324q0 -85 45 -123t143 -38h123v-138h-112q-177 0 -257.5 56.5t-80.5 179.5v479q0 83 -29 120.5t-92 37.5v119q58 0 86 36.5t33 118.5v387q0 163 76 236.5t245 73.5h131v-138h-123q-98 0 -143 -38t-45 -123v-310q0 -123 -27.5 -194.5t-89.5 -108.5
q62 -23 89.5 -96.5t27.5 -212.5z" />
    <glyph glyph-name="bar" unicode="|" horiz-adv-x="550" 
d="M205 1434h141v-1844h-141v1844z" />
    <glyph glyph-name="braceright" unicode="}" horiz-adv-x="755" 
d="M377 213q0 139 27.5 212.5t89.5 96.5q-62 37 -89.5 108.5t-27.5 194.5v310q0 84 -45 122.5t-144 38.5h-122v138h131q169 0 245 -73.5t76 -236.5v-387q5 -82 33 -118.5t86 -36.5v-119q-63 0 -92 -37.5t-29 -120.5v-479q0 -123 -80.5 -179.5t-257.5 -56.5h-112v138h122
q99 0 144 38.5t45 122.5v324z" />
    <glyph glyph-name="asciitilde" unicode="~" horiz-adv-x="1433" 
d="M102 469v135q85 79 180 102t182 0.5t177.5 -63.5t179 -82t172.5 -63t172 1.5t166 104.5v-135q-68 -64 -141 -92.5t-141.5 -24.5t-139.5 26t-140 54.5t-137 65.5t-136.5 55.5t-133 27.5t-132 -22.5t-128.5 -89.5z" />
    <glyph glyph-name="space_" unicode="&#xa0;" horiz-adv-x="614" 
 />
    <glyph glyph-name="exclamdown" unicode="&#xa1;" horiz-adv-x="559" 
d="M383 -410h-174v390l31 534h110l33 -534v-390zM279 795q-60 0 -87.5 28t-27.5 90q0 63 27.5 91t87.5 28t88 -28.5t28 -90.5t-27.5 -90t-88.5 -28z" />
    <glyph glyph-name="cent" unicode="&#xa2;" 
d="M532 -193v175q-224 15 -327 142t-103 388t103 388t327 142v166h134v-166q178 -12 271 -101t118 -271h-164q-25 124 -94 180.5t-197 56.5q-175 0 -254.5 -94t-79.5 -301t79.5 -301t254.5 -94q127 0 196 56t95 181h164q-25 -182 -118 -271t-271 -101v-175h-134z" />
    <glyph glyph-name="sterling" unicode="&#xa3;" horiz-adv-x="1363" 
d="M1262 145v-143h-1139v176q120 43 173.5 117.5t53.5 196.5v172h-227v137h227v223q0 236 103.5 343.5t332.5 107.5q217 0 315.5 -107.5t98.5 -343.5h-156q0 171 -60.5 246.5t-197.5 75.5q-143 0 -207.5 -76.5t-64.5 -245.5v-223h565v-137h-565v-193q0 -117 -56.5 -194.5
t-181.5 -131.5h986z" />
    <glyph glyph-name="currency" unicode="&#xa4;" horiz-adv-x="1241" 
d="M1104 1008l-96 -99q110 -124 110 -397t-110 -397l96 -99l-88 -94l-111 113q-110 -55 -284 -55q-175 0 -285 55l-111 -113l-88 94l96 99q-110 124 -110 397t110 397l-96 99l88 94l111 -113q110 55 285 55q174 0 284 -55l111 113zM289 512q0 -209 78.5 -302t255.5 -93
q175 0 253 93t78 302q0 211 -77 303t-254 92q-178 0 -256 -92t-78 -303z" />
    <glyph glyph-name="yen" unicode="&#xa5;" horiz-adv-x="1370" 
d="M776 580h-2v-187h436v-129h-436v-264h-172v264h-442v129h442v187l-12 22h-430v129h354l-412 703h201l387 -689l387 689h191l-404 -703h348v-129h-424z" />
    <glyph glyph-name="section" unicode="&#xa7;" horiz-adv-x="1333" 
d="M653 1337q-145 0 -206.5 -53t-61.5 -176q0 -51 23 -92t62.5 -68t92.5 -50.5t112.5 -40t122 -37t122 -40.5t112.5 -51t92.5 -68.5t62.5 -93.5t23 -125q0 -115 -38 -188.5t-121 -112.5q55 -77 55 -188q0 -212 -108 -308t-347 -96q-234 0 -340 107t-106 344h141
q0 -166 71.5 -239.5t233.5 -73.5q155 0 223 55.5t68 183.5q0 59 -28 104.5t-75.5 74t-109 51t-129.5 41t-135.5 38t-129 48.5t-109 66.5t-75.5 97t-28 135.5q0 111 44.5 180t139.5 106q-82 88 -82 224q0 201 102 292t326 91q227 0 329.5 -107t102.5 -344h-141
q0 168 -67.5 240.5t-223.5 72.5zM1055 428q0 54 -30.5 96t-78.5 67.5t-116.5 50t-134 41.5t-142.5 44t-131 57q-74 -23 -106.5 -66t-32.5 -116q0 -57 33.5 -100t86 -68t125.5 -48.5t143.5 -40.5t148.5 -46t132 -63q55 27 79 73t24 119z" />
    <glyph glyph-name="dieresis" unicode="&#xa8;" horiz-adv-x="798" 
d="M217 1489q61 0 89 -28.5t28 -90.5q0 -61 -28.5 -90t-88.5 -29t-87.5 28.5t-27.5 90.5q0 63 27.5 91t87.5 28zM582 1489q60 0 87 -28.5t27 -90.5t-27 -90.5t-87 -28.5t-87.5 28.5t-27.5 90.5q0 63 27.5 91t87.5 28z" />
    <glyph glyph-name="copyright" unicode="&#xa9;" horiz-adv-x="1792" 
d="M897 1475q406 0 589 -180t183 -578t-183 -578t-589 -180q-407 0 -590.5 180t-183.5 578t183.5 578t590.5 180zM897 80q344 0 498.5 151t154.5 486t-154.5 486t-498.5 151q-346 0 -500.5 -150.5t-154.5 -488.5q0 -333 155.5 -484t499.5 -151zM897 1126q190 0 285.5 -77.5
t117.5 -249.5h-133q-20 117 -82 167t-188 50q-151 0 -218 -70.5t-67 -228.5q0 -157 68 -228t217 -71q126 0 188 50t82 167h133q-22 -172 -117.5 -250t-285.5 -78q-220 0 -319 97.5t-99 312.5t99.5 312t318.5 97z" />
    <glyph glyph-name="guillemotleft" unicode="&#xab;" horiz-adv-x="907" 
d="M352 922h160l-242 -390l242 -409h-160l-250 409zM645 922h160l-242 -390l242 -409h-160l-250 409z" />
    <glyph glyph-name="logicalnot" unicode="&#xac;" horiz-adv-x="1290" 
d="M1167 616v-403h-135v266h-930v137h1065z" />
    <glyph glyph-name="registered" unicode="&#xae;" horiz-adv-x="1792" 
d="M897 1475q406 0 589 -180t183 -578t-183 -578t-589 -180q-407 0 -590.5 180t-183.5 578t183.5 578t590.5 180zM897 80q347 0 500 149.5t153 487.5t-153 487.5t-500 149.5q-348 0 -501.5 -150t-153.5 -489q0 -337 154 -486t501 -149zM1073 629h-2h-2l186 -281h-122
l-172 268h-259v-268h-108v737h356q152 0 220.5 -55t68.5 -178q0 -94 -40 -148.5t-126 -74.5zM702 991v-280h246q97 0 137.5 32t40.5 109q0 75 -40.5 107t-137.5 32h-246z" />
    <glyph glyph-name="macron" unicode="&#xaf;" horiz-adv-x="901" 
d="M102 1251v113h697v-113h-697z" />
    <glyph glyph-name="degree" unicode="&#xb0;" horiz-adv-x="983" 
d="M102 1065q0 204 92.5 296.5t297.5 92.5q204 0 296.5 -92.5t92.5 -296.5t-92.5 -296.5t-296.5 -92.5t-297 92.5t-93 296.5zM213 1065q0 -150 64.5 -214.5t214.5 -64.5q149 0 213.5 65t64.5 214t-64.5 213.5t-213.5 64.5q-150 0 -214.5 -64.5t-64.5 -213.5z" />
    <glyph glyph-name="plusminus" unicode="&#xb1;" horiz-adv-x="1269" 
d="M102 0v137h1065v-137h-1065zM1167 711v-138h-467v-346h-133v346h-465v138h465v313h133v-313h467z" />
    <glyph glyph-name="acute" unicode="&#xb4;" horiz-adv-x="604" 
d="M102 1126l228 308h172l-258 -308h-142z" />
    <glyph glyph-name="paragraph" unicode="&#xb6;" horiz-adv-x="1761" 
d="M1389 1296v-1706h-142v1706h-526v-1706h-141v1024q-239 0 -348 97.5t-109 312.5t121.5 312.5t390.5 97.5h962v-138h-208z" />
    <glyph glyph-name="periodcentered" unicode="&#xb7;" horiz-adv-x="436" 
d="M217 647q61 0 89 -28.5t28 -90.5q0 -61 -28.5 -89.5t-88.5 -28.5t-87.5 28t-27.5 90t27.5 90.5t87.5 28.5z" />
    <glyph glyph-name="cedilla" unicode="&#xb8;" horiz-adv-x="608" 
d="M240 35h98l-43 -139q9 -1 23 -4t50.5 -16t64 -31t50.5 -53t23 -79q0 -108 -103 -166.5t-301 -58.5v84q279 0 279 141q0 31 -22 54t-56 34t-66.5 16t-62.5 5z" />
    <glyph glyph-name="guillemotright" unicode="&#xbb;" horiz-adv-x="919" 
d="M102 922h162l260 -390l-260 -409h-162l252 409zM393 922h162l262 -390l-262 -409h-162l254 409z" />
    <glyph glyph-name="questiondown" unicode="&#xbf;" horiz-adv-x="1091" 
d="M641 551q0 -73 -16 -131.5t-41.5 -96t-58.5 -70t-67.5 -54.5t-67.5 -48.5t-58.5 -53t-41.5 -67t-16 -91.5q0 -132 66.5 -192t212.5 -60t212 79t66 254h158q0 -247 -105.5 -359t-338.5 -112q-232 0 -337.5 93t-105.5 297q0 75 22 132t57 93t77.5 65.5t85 57.5t77.5 60.5
t57 84t22 119.5h141zM569 795q-60 0 -87 28t-27 90t27 90.5t87 28.5q62 0 89.5 -28t27.5 -91q0 -62 -28 -90t-89 -28z" />
    <glyph glyph-name="Agrave" unicode="&#xc0;" horiz-adv-x="1419" 
d="M1149 0l-121 348h-641l-123 -348h-182l512 1434h248l495 -1434h-188zM709 1266l-275 -781h545zM805 1536h-135l-244 246h158z" />
    <glyph glyph-name="Aacute" unicode="&#xc1;" horiz-adv-x="1419" 
d="M1149 0l-121 348h-641l-123 -348h-182l512 1434h248l495 -1434h-188zM709 1266l-275 -781h545zM606 1536l213 246h166l-237 -246h-142z" />
    <glyph glyph-name="Acircumflex" unicode="&#xc2;" horiz-adv-x="1419" 
d="M1149 0l-121 348h-641l-123 -348h-182l512 1434h248l495 -1434h-188zM709 1266l-275 -781h545zM989 1536h-125l-159 162l-158 -162h-127l203 246h165z" />
    <glyph glyph-name="Atilde" unicode="&#xc3;" horiz-adv-x="1419" 
d="M1149 0l-121 348h-641l-123 -348h-182l512 1434h248l495 -1434h-188zM709 1266l-275 -781h545zM383 1556q0 103 48.5 158t125.5 55q44 0 82 -14.5t65.5 -35t53 -40.5t53.5 -34.5t57 -14.5q37 0 58.5 28t21.5 83h80q0 -103 -49 -158t-125 -55q-44 0 -82.5 14.5t-66 35
t-52.5 40.5t-53.5 34.5t-58.5 14.5q-35 0 -56.5 -28t-21.5 -83h-80z" />
    <glyph glyph-name="Adieresis" unicode="&#xc4;" horiz-adv-x="1419" 
d="M1149 0l-121 348h-641l-123 -348h-182l512 1434h248l495 -1434h-188zM709 1266l-275 -781h545zM516 1741q60 0 87.5 -25.5t27.5 -81.5q0 -54 -27.5 -79t-87.5 -25q-61 0 -89 25t-28 79q0 57 27.5 82t89.5 25zM895 1741q60 0 87.5 -25.5t27.5 -81.5q0 -54 -27.5 -79
t-87.5 -25t-87.5 25t-27.5 79q0 57 27 82t88 25z" />
    <glyph glyph-name="Aring" unicode="&#xc5;" horiz-adv-x="1419" 
d="M1149 0l-121 348h-641l-123 -348h-182l512 1434h248l495 -1434h-188zM709 1266l-275 -781h545zM705 1886q120 0 174.5 -47t54.5 -153t-54.5 -154.5t-174.5 -48.5t-174 48.5t-54 154.5t54 153t174 47zM705 1569q73 0 103 26t30 91q0 63 -30.5 89.5t-102.5 26.5t-103 -26.5
t-31 -89.5q0 -64 31 -90.5t103 -26.5z" />
    <glyph glyph-name="AE" unicode="&#xc6;" horiz-adv-x="1910" 
d="M1808 1288h-696v-467h614v-145h-614v-531h696v-145h-860v348h-499l-183 -348h-184l762 1434h964v-146zM948 1305l-428 -820h428v820z" />
    <glyph glyph-name="Ccedilla" unicode="&#xc7;" horiz-adv-x="1546" 
d="M733 -39h2q-318 14 -465 194.5t-147 561.5q0 397 160 577.5t508 180.5q284 0 432.5 -121t199.5 -389h-180q-46 192 -149.5 273t-302.5 81q-252 0 -366 -142t-114 -460q0 -319 113.5 -460.5t366.5 -141.5q182 0 285.5 81t166.5 273h180q-72 -257 -213 -379t-379 -131
l-20 -63q9 -1 23 -4t50.5 -16t64 -31t50.5 -53t23 -79q0 -108 -103.5 -166.5t-300.5 -58.5v84q279 0 279 141q0 31 -22 54t-56.5 34t-66.5 16t-62 5z" />
    <glyph glyph-name="Egrave" unicode="&#xc8;" horiz-adv-x="1269" 
d="M1167 1288h-782v-467h700v-145h-700v-531h782v-145h-962v1434h962v-146zM786 1536h-135l-243 246h157z" />
    <glyph glyph-name="Eacute" unicode="&#xc9;" horiz-adv-x="1269" 
d="M1167 1288h-782v-467h700v-145h-700v-531h782v-145h-962v1434h962v-146zM586 1536l215 246h164l-236 -246h-143z" />
    <glyph glyph-name="Ecircumflex" unicode="&#xca;" horiz-adv-x="1269" 
d="M1167 1288h-782v-467h700v-145h-700v-531h782v-145h-962v1434h962v-146zM971 1536h-127l-158 162l-158 -162h-127l203 246h164z" />
    <glyph glyph-name="Edieresis" unicode="&#xcb;" horiz-adv-x="1269" 
d="M1167 1288h-782v-467h700v-145h-700v-531h782v-145h-962v1434h962v-146zM496 1741q60 0 88 -26t28 -81q0 -54 -28 -79t-88 -25t-87.5 25t-27.5 79q0 57 27.5 82t87.5 25zM874 1741q60 0 88.5 -26t28.5 -81q0 -54 -28 -79t-89 -25q-60 0 -87 25t-27 79q0 57 27 82t87 25z
" />
    <glyph glyph-name="Igrave" unicode="&#xcc;" horiz-adv-x="585" 
d="M190 1434h181v-1434h-181v1434zM381 1536h-135l-246 246h160z" />
    <glyph glyph-name="Iacute" unicode="&#xcd;" horiz-adv-x="604" 
d="M215 1434h180v-1434h-180v1434zM205 1536l213 246h166l-236 -246h-143z" />
    <glyph glyph-name="Icircumflex" unicode="&#xce;" horiz-adv-x="610" 
d="M215 1434h180v-1434h-180v1434zM590 1536h-127l-158 162l-160 -162h-125l203 246h164z" />
    <glyph glyph-name="Idieresis" unicode="&#xcf;" horiz-adv-x="624" 
d="M223 1434h180v-1434h-180v1434zM135 1729q60 0 88.5 -25t28.5 -80t-28.5 -80.5t-88.5 -25.5t-87.5 25.5t-27.5 80.5t27.5 80t87.5 25zM489 1729q60 0 87.5 -25t27.5 -80t-27.5 -80.5t-87.5 -25.5t-87 25t-27 81t26.5 80.5t87.5 24.5z" />
    <glyph glyph-name="Ntilde" unicode="&#xd1;" horiz-adv-x="1542" 
d="M1165 1434h172v-1434h-217l-743 1190v-1190h-172v1434h215l745 -1190v1190zM449 1556q0 103 48.5 158t125.5 55q44 0 82 -14.5t65.5 -35t53 -40.5t53.5 -34.5t57 -14.5q37 0 58.5 28t21.5 83h80q0 -103 -49 -158t-125 -55q-44 0 -83 14.5t-66.5 35t-52.5 40.5t-53.5 34.5
t-58.5 14.5q-35 0 -56.5 -28t-21.5 -83h-79z" />
    <glyph glyph-name="Ograve" unicode="&#xd2;" horiz-adv-x="1607" 
d="M805 1475q357 0 518.5 -180t161.5 -578t-161.5 -578t-518.5 -180q-358 0 -520 180t-162 578t162 578t520 180zM805 1319q-261 0 -377.5 -141.5t-116.5 -460.5t116.5 -460.5t377.5 -141.5t377 141.5t116 460.5t-116 460.5t-377 141.5zM905 1536h-135l-246 246h160z" />
    <glyph glyph-name="Oacute" unicode="&#xd3;" horiz-adv-x="1607" 
d="M805 1475q357 0 518.5 -180t161.5 -578t-161.5 -578t-518.5 -180q-358 0 -520 180t-162 578t162 578t520 180zM805 1319q-261 0 -377.5 -141.5t-116.5 -460.5t116.5 -460.5t377.5 -141.5t377 141.5t116 460.5t-116 460.5t-377 141.5zM705 1536l213 246h165l-235 -246
h-143z" />
    <glyph glyph-name="Ocircumflex" unicode="&#xd4;" horiz-adv-x="1607" 
d="M805 1475q357 0 518.5 -180t161.5 -578t-161.5 -578t-518.5 -180q-358 0 -520 180t-162 578t162 578t520 180zM805 1319q-261 0 -377.5 -141.5t-116.5 -460.5t116.5 -460.5t377.5 -141.5t377 141.5t116 460.5t-116 460.5t-377 141.5zM1090 1536h-127l-158 162l-160 -162
h-125l203 246h164z" />
    <glyph glyph-name="Otilde" unicode="&#xd5;" horiz-adv-x="1607" 
d="M805 1475q357 0 518.5 -180t161.5 -578t-161.5 -578t-518.5 -180q-358 0 -520 180t-162 578t162 578t520 180zM805 1319q-261 0 -377.5 -141.5t-116.5 -460.5t116.5 -460.5t377.5 -141.5t377 141.5t116 460.5t-116 460.5t-377 141.5zM481 1556q0 103 49 158t125 55
q44 0 83 -14.5t66.5 -35t52.5 -40.5t53.5 -34.5t58.5 -14.5q35 0 56.5 28t21.5 83h79q0 -103 -48.5 -158t-125.5 -55q-44 0 -82 14.5t-65.5 35t-53 40.5t-53.5 34.5t-57 14.5q-37 0 -58.5 -28t-21.5 -83h-80z" />
    <glyph glyph-name="Odieresis" unicode="&#xd6;" horiz-adv-x="1607" 
d="M805 1475q356 0 518 -180.5t162 -577.5t-162 -577.5t-518 -180.5q-359 0 -520.5 180t-161.5 578t162 578t520 180zM805 1319q-262 0 -378 -141t-116 -461t116 -461t378 -141q261 0 376 141t115 461t-115 461t-376 141zM614 1729q60 0 87.5 -25t27.5 -80t-27.5 -80.5
t-87.5 -25.5t-88 25.5t-28 80.5q0 56 27.5 80.5t88.5 24.5zM993 1729q60 0 88.5 -25t28.5 -80t-28.5 -80.5t-88.5 -25.5t-87 25t-27 81q0 55 27 80t87 25z" />
    <glyph glyph-name="multiply" unicode="&#xd7;" horiz-adv-x="1118" 
d="M193 971l362 -361l363 363l96 -105l-357 -356l359 -356l-96 -105l-361 363l-360 -361l-97 105l359 358l-357 358z" />
    <glyph glyph-name="Oslash" unicode="&#xd8;" horiz-adv-x="1607" 
d="M1038 1452l49 150h119l-61 -181q176 -72 258 -243t82 -459q0 -398 -161.5 -578t-518.5 -180q-77 0 -162 10l-47 -133h-119l53 156q-211 60 -309 235.5t-98 489.5q0 398 162 578t520 180q124 0 233 -25zM985 1298q-79 21 -180 21q-261 0 -377.5 -141.5t-116.5 -460.5
q0 -242 66.5 -380.5t208.5 -189.5zM694 121q52 -6 111 -6q261 0 377 141.5t116 460.5q0 214 -50 344.5t-158 193.5z" />
    <glyph glyph-name="Ugrave" unicode="&#xd9;" horiz-adv-x="1484" 
d="M184 520v914h181v-914q0 -215 88.5 -310t289.5 -95q200 0 288.5 95t88.5 310v914h180v-914q0 -295 -132.5 -428t-424.5 -133q-293 0 -426 133t-133 428zM842 1536h-133l-246 246h158z" />
    <glyph glyph-name="Uacute" unicode="&#xda;" horiz-adv-x="1484" 
d="M184 520v914h181v-914q0 -215 88.5 -310t289.5 -95q200 0 288.5 95t88.5 310v914h180v-914q0 -295 -132.5 -428t-424.5 -133q-293 0 -426 133t-133 428zM643 1536l213 246h166l-238 -246h-141z" />
    <glyph glyph-name="Ucircumflex" unicode="&#xdb;" horiz-adv-x="1484" 
d="M184 520v914h181v-914q0 -215 88.5 -310t289.5 -95q200 0 288.5 95t88.5 310v914h180v-914q0 -295 -132.5 -428t-424.5 -133q-293 0 -426 133t-133 428zM1026 1536h-125l-158 162l-159 -162h-125l200 246h166z" />
    <glyph glyph-name="Udieresis" unicode="&#xdc;" horiz-adv-x="1484" 
d="M184 520v914h181v-914q0 -215 88 -310t288 -95q201 0 290 95t89 310v914h180v-914q0 -295 -133 -428t-426 -133t-425 133t-132 428zM553 1729q60 0 87.5 -25t27.5 -80t-27.5 -80.5t-87.5 -25.5q-61 0 -89 25t-28 81q0 55 27.5 80t89.5 25zM932 1729q60 0 87.5 -25
t27.5 -80t-27.5 -80.5t-87.5 -25.5t-87.5 25.5t-27.5 80.5q0 56 27 80.5t88 24.5z" />
    <glyph glyph-name="Yacute" unicode="&#xdd;" horiz-adv-x="1329" 
d="M756 580h-2v-580h-172v580l-500 854h201l387 -689l387 689h190zM559 1536l213 246h166l-236 -246h-143z" />
    <glyph glyph-name="germandbls" unicode="&#xdf;" horiz-adv-x="1286" 
d="M654 1475q233 0 338.5 -93t105.5 -297q0 -119 -77.5 -183t-232.5 -85q196 -23 284.5 -117.5t88.5 -281.5q0 -219 -92 -318.5t-295 -99.5q-109 0 -211 41v129q100 -33 174 -33q136 0 198 69.5t62 221.5q0 162 -93.5 235.5t-299.5 73.5v142q185 0 262.5 51t77.5 174
q0 118 -66 175.5t-214 57.5q-166 0 -241 -79t-75 -252v-1006h-164v1024q0 228 115.5 339.5t354.5 111.5z" />
    <glyph glyph-name="agrave" unicode="&#xe0;" horiz-adv-x="1116" 
d="M840 0l-21 121q-93 -141 -340 -141q-198 0 -287.5 74.5t-89.5 240.5q0 183 109 265.5t352 82.5h246v53q0 126 -60 182t-194 56q-136 0 -195 -50.5t-59 -166.5h-158q0 172 99 249.5t317 77.5q216 0 315 -87t99 -279v-678h-133zM809 532h-242q-158 0 -229.5 -53.5
t-71.5 -173.5q0 -107 58 -151.5t194 -44.5q148 0 219.5 69t71.5 219v135zM428 1434l227 -308h-141l-258 308h172z" />
    <glyph glyph-name="aacute" unicode="&#xe1;" horiz-adv-x="1116" 
d="M840 0l-21 121q-93 -141 -340 -141q-198 0 -287.5 74.5t-89.5 240.5q0 183 109 265.5t352 82.5h246v53q0 126 -60 182t-194 56q-136 0 -195 -50.5t-59 -166.5h-158q0 172 99 249.5t317 77.5q216 0 315 -87t99 -279v-678h-133zM809 532h-242q-158 0 -229.5 -53.5
t-71.5 -173.5q0 -107 58 -151.5t194 -44.5q148 0 219.5 69t71.5 219v135zM676 1434h172l-258 -308h-141z" />
    <glyph glyph-name="acircumflex" unicode="&#xe2;" horiz-adv-x="1116" 
d="M840 0l-21 121q-93 -141 -340 -141q-198 0 -287.5 74.5t-89.5 240.5q0 183 109 265.5t352 82.5h246v53q0 126 -60 182t-194 56q-136 0 -195 -50.5t-59 -166.5h-158q0 172 99 249.5t317 77.5q216 0 315 -87t99 -279v-678h-133zM809 532h-242q-158 0 -229.5 -53.5
t-71.5 -173.5q0 -107 58 -151.5t194 -44.5q148 0 219.5 69t71.5 219v135zM639 1434l188 -308h-114l-156 213l-158 -213h-114l188 308h166z" />
    <glyph glyph-name="atilde" unicode="&#xe3;" horiz-adv-x="1116" 
d="M840 0l-21 121q-93 -141 -340 -141q-198 0 -287.5 74.5t-89.5 240.5q0 183 109 265.5t352 82.5h246v53q0 126 -60 182t-194 56q-136 0 -195 -50.5t-59 -166.5h-158q0 172 99 249.5t317 77.5q216 0 315 -87t99 -279v-678h-133zM809 532h-242q-158 0 -229.5 -53.5
t-71.5 -173.5q0 -107 58 -151.5t194 -44.5q148 0 219.5 69t71.5 219v135zM233 1178q0 105 51 173t124 68q44 0 83 -19.5t66 -47.5t51.5 -56t51 -47.5t53.5 -19.5q35 0 56.5 35.5t21.5 97.5h88q0 -106 -50 -175t-124 -69q-44 0 -83 19.5t-66.5 48t-52 56.5t-51 47.5
t-53.5 19.5q-34 0 -55.5 -35t-21.5 -96h-89z" />
    <glyph glyph-name="adieresis" unicode="&#xe4;" horiz-adv-x="1116" 
d="M840 0l-21 121q-93 -141 -340 -141q-198 0 -287.5 74.5t-89.5 240.5q0 183 109 265.5t352 82.5h246v53q0 126 -60 182t-194 56q-136 0 -195 -50.5t-59 -166.5h-158q0 172 99 249.5t317 77.5q216 0 315 -87t99 -279v-678h-133zM809 532h-242q-158 0 -229.5 -53.5
t-71.5 -173.5q0 -107 58 -151.5t194 -44.5q148 0 219.5 69t71.5 219v135zM375 1407q60 0 87 -28.5t27 -90.5t-27 -90.5t-87 -28.5q-61 0 -89 28.5t-28 90.5q0 63 27.5 91t89.5 28zM737 1407q61 0 89 -28.5t28 -90.5t-28 -90.5t-89 -28.5q-60 0 -87 28.5t-27 90.5q0 63 27 91
t87 28z" />
    <glyph glyph-name="aring" unicode="&#xe5;" horiz-adv-x="1116" 
d="M840 0l-21 121q-93 -141 -340 -141q-198 0 -287.5 74.5t-89.5 240.5q0 183 109 265.5t352 82.5h246v53q0 126 -60 182t-194 56q-136 0 -195 -50.5t-59 -166.5h-158q0 172 99 249.5t317 77.5q216 0 315 -87t99 -279v-678h-133zM809 532h-242q-158 0 -229.5 -53.5
t-71.5 -173.5q0 -107 58 -151.5t194 -44.5q148 0 219.5 69t71.5 219v135zM557 1477q119 0 173 -47.5t54 -153.5t-54.5 -154.5t-174.5 -48.5q-118 0 -172.5 48.5t-54.5 154.5t54.5 153.5t174.5 47.5zM557 1159q72 0 101.5 26.5t29.5 90.5q0 63 -29.5 90t-101.5 27
q-73 0 -103 -27t-30 -90q0 -65 30 -91t103 -26z" />
    <glyph glyph-name="ae" unicode="&#xe6;" horiz-adv-x="1863" 
d="M975 422q14 -168 86.5 -246t222.5 -78q120 0 183.5 46.5t95.5 158.5h157q-37 -170 -140.5 -248t-295.5 -78q-159 0 -256 60.5t-141 189.5q-32 -128 -131 -187.5t-277 -59.5q-198 0 -287.5 74.5t-89.5 240.5q0 179 104.5 263.5t332.5 84.5h270v53q0 120 -61.5 174
t-196.5 54t-192.5 -47.5t-57.5 -159.5h-158q0 172 99 249.5t317 77.5q145 0 231 -44.5t123 -139.5q99 184 371 184q251 0 364 -131.5t113 -423.5v-67h-786zM809 532h-229q-167 0 -240.5 -53t-73.5 -174q0 -103 60 -149.5t192 -46.5q152 0 221.5 65.5t69.5 210.5v147z
M1597 530q0 210 -74 301t-241 91q-162 0 -236.5 -93t-74.5 -299h626z" />
    <glyph glyph-name="ccedilla" unicode="&#xe7;" 
d="M537 -18v2q-227 13 -331 140t-104 388q0 280 118.5 406t379.5 126q212 0 320.5 -89t134.5 -285h-164q-25 124 -94 180.5t-197 56.5q-175 0 -254.5 -94t-79.5 -301t79.5 -301t254.5 -94q127 0 196 56t95 181h164q-25 -189 -125 -278.5t-295 -95.5l-27 -84q9 -1 23 -4
t50.5 -16t64 -31t50.5 -53t23 -79q0 -108 -103 -166.5t-300 -58.5v84q278 0 278 141q0 31 -22 54t-57 34t-67.5 16t-62.5 5z" />
    <glyph glyph-name="egrave" unicode="&#xe8;" 
d="M268 422q14 -167 87.5 -244.5t224.5 -77.5q119 0 182.5 46.5t95.5 158.5h156q-37 -170 -140 -247.5t-294 -77.5q-251 0 -364.5 126t-113.5 406t113 406t365 126q249 0 362 -131.5t113 -423.5v-67h-787zM580 924h-2q-164 0 -239 -93t-75 -299h627q0 210 -73 301t-238 91z
M676 1126h-141l-259 308h173z" />
    <glyph glyph-name="eacute" unicode="&#xe9;" 
d="M268 422q14 -167 87.5 -244.5t224.5 -77.5q119 0 182.5 46.5t95.5 158.5h156q-37 -170 -141.5 -247.5t-297.5 -77.5q-248 0 -360.5 126.5t-112.5 405.5q0 280 111.5 406t359.5 126q253 0 367.5 -131.5t114.5 -423.5v-67h-787zM580 924h-2q-164 0 -239 -93t-75 -299h627
q0 210 -73 301t-238 91zM477 1126l228 308h172l-259 -308h-141z" />
    <glyph glyph-name="ecircumflex" unicode="&#xea;" 
d="M268 422q14 -167 87.5 -244.5t224.5 -77.5q119 0 182.5 46.5t95.5 158.5h156q-37 -170 -141.5 -247.5t-297.5 -77.5q-248 0 -360.5 126.5t-112.5 405.5q0 280 111.5 406t359.5 126q253 0 367.5 -131.5t114.5 -423.5v-67h-787zM580 924h-2q-164 0 -239 -93t-75 -299h627
q0 210 -73 301t-238 91zM848 1126h-115l-155 213l-158 -213h-115l189 308h165z" />
    <glyph glyph-name="edieresis" unicode="&#xeb;" 
d="M268 422q14 -167 87.5 -244.5t224.5 -77.5q119 0 182.5 46.5t95.5 158.5h156q-37 -170 -141.5 -247.5t-297.5 -77.5q-248 0 -360.5 126.5t-112.5 405.5q0 280 111.5 406t359.5 126q253 0 367.5 -131.5t114.5 -423.5v-67h-787zM580 924h-2q-164 0 -239 -93t-75 -299h627
q0 210 -73 301t-238 91zM393 1407q61 0 89 -28.5t28 -90.5t-27.5 -90.5t-87.5 -28.5q-61 0 -88.5 28.5t-27.5 90.5q0 63 27 91t87 28zM758 1407q61 0 88.5 -28.5t27.5 -90.5t-27.5 -90.5t-88.5 -28.5q-60 0 -87.5 28.5t-27.5 90.5q0 63 27.5 91t87.5 28z" />
    <glyph glyph-name="igrave" unicode="&#xec;" horiz-adv-x="501" 
d="M342 0h-166v1024h166v-1024zM358 1126h-141l-258 308h172z" />
    <glyph glyph-name="iacute" unicode="&#xed;" horiz-adv-x="501" 
d="M332 0h-164v1024h164v-1024zM143 1126l228 308h172l-258 -308h-142z" />
    <glyph glyph-name="icircumflex" unicode="&#xee;" horiz-adv-x="501" 
d="M334 0h-166v1024h166v-1024zM522 1126h-116l-156 213l-156 -213h-114l188 308h166z" />
    <glyph glyph-name="idieresis" unicode="&#xef;" horiz-adv-x="487" 
d="M328 0h-166v1024h166v-1024zM76 1372q60 0 87 -28.5t27 -90.5t-27 -90t-87 -28q-61 0 -89 28t-28 90q0 63 27.5 91t89.5 28zM414 1372q60 0 87 -28.5t27 -90.5t-27 -90t-87 -28t-87.5 28t-27.5 90q0 63 27 91t88 28z" />
    <glyph glyph-name="ntilde" unicode="&#xf1;" horiz-adv-x="1177" 
d="M319 903q97 141 332 141q201 0 292 -116.5t91 -374.5v-553h-164v553q0 189 -60.5 271.5t-197.5 82.5q-149 0 -216.5 -84t-67.5 -270v-553h-164v1024h133zM276 1178q0 105 51 173t124 68q44 0 83 -19.5t66 -47.5t51.5 -56t51 -47.5t53.5 -19.5q35 0 56.5 35.5t21.5 97.5
h88q0 -106 -50 -175t-124 -69q-44 0 -83 19.5t-66.5 48t-52 56.5t-51 47.5t-53.5 19.5q-34 0 -55.5 -35t-21.5 -96h-89z" />
    <glyph glyph-name="ograve" unicode="&#xf2;" horiz-adv-x="1198" 
d="M600 1044q260 0 378 -126.5t118 -405.5t-118 -405.5t-378 -126.5q-261 0 -379.5 126t-118.5 406t118.5 406t379.5 126zM266 512q0 -209 78.5 -302t255.5 -93q175 0 253.5 93t78.5 302q0 211 -77.5 303t-254.5 92q-178 0 -256 -92t-78 -303zM698 1126h-141l-258 308h172z
" />
    <glyph glyph-name="oacute" unicode="&#xf3;" horiz-adv-x="1198" 
d="M600 1044q260 0 378 -126.5t118 -405.5t-118 -405.5t-378 -126.5q-261 0 -379.5 126t-118.5 406t118.5 406t379.5 126zM266 512q0 -209 78.5 -302t255.5 -93q175 0 253.5 93t78.5 302q0 211 -77.5 303t-254.5 92q-178 0 -256 -92t-78 -303zM500 1126l227 308h172
l-258 -308h-141z" />
    <glyph glyph-name="ocircumflex" unicode="&#xf4;" horiz-adv-x="1198" 
d="M600 1044q260 0 378 -126.5t118 -405.5t-118 -405.5t-378 -126.5q-261 0 -379.5 126t-118.5 406t118.5 406t379.5 126zM266 512q0 -209 78.5 -302t255.5 -93q175 0 253.5 93t78.5 302q0 211 -77.5 303t-254.5 92q-178 0 -256 -92t-78 -303zM870 1126h-114l-156 213
l-158 -213h-114l188 308h166z" />
    <glyph glyph-name="otilde" unicode="&#xf5;" horiz-adv-x="1198" 
d="M600 1044q260 0 378 -126.5t118 -405.5t-118 -405.5t-378 -126.5q-261 0 -379.5 126t-118.5 406t118.5 406t379.5 126zM266 512q0 -209 78.5 -302t255.5 -93q175 0 253.5 93t78.5 302q0 211 -77.5 303t-254.5 92q-178 0 -256 -92t-78 -303zM276 1178q0 105 51 173t124 68
q44 0 83 -19.5t66 -47.5t51.5 -56t51 -47.5t53.5 -19.5q35 0 56.5 35.5t21.5 97.5h88q0 -106 -50 -175t-124 -69q-44 0 -83 19.5t-66.5 48t-52 56.5t-51 47.5t-53.5 19.5q-34 0 -55.5 -35t-21.5 -96h-89z" />
    <glyph glyph-name="odieresis" unicode="&#xf6;" horiz-adv-x="1198" 
d="M600 1044q260 0 378 -126.5t118 -405.5t-118 -405.5t-378 -126.5q-261 0 -379.5 126t-118.5 406t118.5 406t379.5 126zM266 512q0 -209 78.5 -302t255.5 -93q175 0 253.5 93t78.5 302q0 211 -77.5 303t-254.5 92q-178 0 -256 -92t-78 -303zM418 1407q60 0 87 -28.5
t27 -90.5t-27 -90.5t-87 -28.5q-61 0 -89 28.5t-28 90.5q0 63 27.5 91t89.5 28zM780 1407q61 0 89 -28.5t28 -90.5t-28 -90.5t-89 -28.5q-60 0 -87 28.5t-27 90.5q0 63 27 91t87 28z" />
    <glyph glyph-name="divide" unicode="&#xf7;" horiz-adv-x="1269" 
d="M514 113q0 53 33 86.5t88 33.5q54 0 87.5 -33.5t33.5 -86.5t-33.5 -87t-87.5 -34q-55 0 -88 34t-33 87zM1167 469h-1065v137h1065v-137zM514 961q0 53 33.5 87.5t87.5 34.5t87.5 -34.5t33.5 -87.5t-33.5 -87t-87.5 -34t-87.5 34t-33.5 87z" />
    <glyph glyph-name="oslash" unicode="&#xf8;" horiz-adv-x="1196" 
d="M597 1044q66 0 134 -10l45 133h88l-51 -151q144 -46 211.5 -168.5t67.5 -335.5q0 -279 -118 -405.5t-378 -126.5q-67 0 -135 10l-45 -133h-88l51 151q-144 46 -211.5 168.5t-67.5 335.5q0 279 118.5 405.5t378.5 126.5zM596 907v2q-178 0 -256 -92t-78 -303
q0 -150 39 -239.5t123 -127.5l260 754q-40 6 -88 6zM764 881l-258 -756q40 -6 90 -6q175 0 253.5 93t78.5 302q0 152 -39.5 241.5t-124.5 125.5z" />
    <glyph glyph-name="ugrave" unicode="&#xf9;" horiz-adv-x="1177" 
d="M838 121q-97 -141 -332 -141q-201 0 -292 116.5t-91 374.5v553h164v-553q0 -189 60.5 -271.5t197.5 -82.5q149 0 216.5 84t67.5 270v553h164v-1024h-133zM479 1434l228 -308h-142l-258 308h172z" />
    <glyph glyph-name="uacute" unicode="&#xfa;" horiz-adv-x="1177" 
d="M838 121q-97 -141 -332 -141q-201 0 -292 116.5t-91 374.5v553h164v-553q0 -189 60.5 -271.5t197.5 -82.5q149 0 216.5 84t67.5 270v553h164v-1024h-133zM653 1434h172l-260 -308h-141z" />
    <glyph glyph-name="ucircumflex" unicode="&#xfb;" horiz-adv-x="1177" 
d="M838 121q-97 -141 -332 -141q-201 0 -292 116.5t-91 374.5v553h164v-553q0 -189 60.5 -271.5t197.5 -82.5q149 0 216.5 84t67.5 270v553h164v-1024h-133zM649 1434l189 -308h-117l-156 213l-155 -213h-115l188 308h166z" />
    <glyph glyph-name="udieresis" unicode="&#xfc;" horiz-adv-x="1177" 
d="M838 121q-97 -141 -332 -141q-201 0 -292 116.5t-91 374.5v553h164v-553q0 -189 60.5 -271.5t197.5 -82.5q149 0 216.5 84t67.5 270v553h164v-1024h-133zM389 1407q60 0 87.5 -28.5t27.5 -90.5t-27.5 -90.5t-87.5 -28.5t-88.5 29t-28.5 90q0 63 27.5 91t89.5 28z
M754 1407q60 0 87 -28.5t27 -90.5t-27.5 -90.5t-88.5 -28.5q-60 0 -87.5 28.5t-27.5 90.5q0 63 27.5 91t89.5 28z" />
    <glyph glyph-name="yacute" unicode="&#xfd;" horiz-adv-x="1075" 
d="M504 12l4 13l-447 999h160l357 -799l278 799h158l-381 -1065q-62 -172 -143 -250t-199 -78h-113v121h107q71 0 123 62t96 198zM453 1126l227 308h172l-258 -308h-141z" />
    <glyph glyph-name="ydieresis" unicode="&#xff;" horiz-adv-x="1075" 
d="M504 12l4 13l-447 999h160l357 -799l278 799h158l-381 -1065q-62 -172 -143 -250t-199 -78h-113v121h107q71 0 123 62t96 198zM362 1407q60 0 88.5 -29t28.5 -90t-28.5 -90t-88.5 -29t-87 28.5t-27 90.5q0 63 27 91t87 28zM727 1407q60 0 87.5 -28.5t27.5 -90.5
t-27.5 -90.5t-87.5 -28.5t-87.5 28.5t-27.5 90.5q0 63 27 91t88 28z" />
    <glyph glyph-name="Amacron" unicode="&#x100;" horiz-adv-x="1419" 
d="M1149 0l-121 348h-641l-123 -348h-182l512 1434h248l495 -1434h-188zM709 1266l-275 -781h545zM356 1681h697v-110h-697v110z" />
    <glyph glyph-name="amacron" unicode="&#x101;" horiz-adv-x="1116" 
d="M840 0l-21 121q-93 -141 -340 -141q-198 0 -287.5 74.5t-89.5 240.5q0 183 109 265.5t352 82.5h246v53q0 126 -60 182t-194 56q-136 0 -195 -50.5t-59 -166.5h-158q0 172 99 249.5t317 77.5q216 0 315 -87t99 -279v-678h-133zM809 532h-242q-158 0 -229.5 -53.5
t-71.5 -173.5q0 -107 58 -151.5t194 -44.5q148 0 219.5 69t71.5 219v135zM207 1200v111h696v-111h-696z" />
    <glyph glyph-name="Abreve" unicode="&#x102;" horiz-adv-x="1419" 
d="M1149 0l-121 348h-641l-123 -348h-182l512 1434h248l495 -1434h-188zM709 1266l-275 -781h545zM1028 1782q0 -129 -76.5 -187.5t-246.5 -58.5q-169 0 -245.5 58.5t-76.5 187.5h125q0 -79 47 -115.5t150 -36.5t149.5 36t46.5 116h127z" />
    <glyph glyph-name="abreve" unicode="&#x103;" horiz-adv-x="1116" 
d="M840 0l-21 121q-93 -141 -340 -141q-198 0 -287.5 74.5t-89.5 240.5q0 183 109 265.5t352 82.5h246v53q0 126 -60 182t-194 56q-136 0 -195 -50.5t-59 -166.5h-158q0 172 99 249.5t317 77.5q216 0 315 -87t99 -279v-678h-133zM809 532h-242q-158 0 -229.5 -53.5
t-71.5 -173.5q0 -107 58 -151.5t194 -44.5q148 0 219.5 69t71.5 219v135zM760 1434h119q0 -161 -76.5 -234.5t-245.5 -73.5q-170 0 -247 73.5t-77 234.5h119q0 -107 49 -156t156 -49q108 0 155.5 48t47.5 157z" />
    <glyph glyph-name="Aogonek" unicode="&#x104;" horiz-adv-x="1433" 
d="M1184 0h-35l-121 348h-641l-123 -348h-182l512 1434h248l495 -1434h-59q-109 -77 -147 -181q-33 -91 11 -141q30 -34 89 -34q30 0 60.5 9t45.5 19l15 9v-152q-62 -41 -144 -41q-62 0 -107 26.5t-67.5 68.5t-24.5 97.5t15.5 111.5t59 111.5t100.5 96.5zM709 1266
l-275 -781h545z" />
    <glyph glyph-name="aogonek" unicode="&#x105;" horiz-adv-x="1144" 
d="M840 4l2 -2l-21 117q-93 -142 -340 -142q-198 0 -287.5 75t-89.5 241q0 183 109 265.5t352 82.5h246v53q0 126 -60 182t-194 56q-136 0 -195 -50.5t-59 -166.5h-158q0 172 99 249.5t317 77.5q216 0 315 -87t99 -279v-678h-45q-109 -77 -147 -181q-33 -91 11 -141
q30 -34 89 -34q30 0 60.5 9t45.5 18l15 9v-151q-62 -41 -144 -41q-75 0 -126 37.5t-66 97t-4.5 128t57 137.5t119.5 118zM809 532h-242q-158 0 -229.5 -53.5t-71.5 -173.5q0 -107 58 -151.5t194 -44.5q148 0 219.5 69t71.5 219v135z" />
    <glyph glyph-name="Cacute" unicode="&#x106;" horiz-adv-x="1546" 
d="M1243 469h180q-75 -268 -224 -389t-408 -121q-348 0 -508 180.5t-160 577.5t160 577.5t508 180.5q284 0 432.5 -121t199.5 -389h-180q-46 192 -149.5 273t-302.5 81q-252 0 -366 -142t-114 -460q0 -319 113.5 -460.5t366.5 -141.5q182 0 285.5 81t166.5 273zM705 1536
l213 246h165l-235 -246h-143z" />
    <glyph glyph-name="cacute" unicode="&#x107;" 
d="M891 354h164q-26 -196 -134.5 -285t-320.5 -89q-261 0 -379.5 126t-118.5 406t118.5 406t379.5 126q212 0 320.5 -89t134.5 -285h-164q-25 124 -94 180.5t-197 56.5q-175 0 -254.5 -94t-79.5 -301t79.5 -301t254.5 -94q127 0 196 56t95 181zM500 1126l227 308h172
l-258 -308h-141z" />
    <glyph glyph-name="Ccircumflex" unicode="&#x108;" horiz-adv-x="1546" 
d="M1243 469h180q-75 -268 -224 -389t-408 -121q-348 0 -508 180.5t-160 577.5t160 577.5t508 180.5q284 0 432.5 -121t199.5 -389h-180q-46 192 -149.5 273t-302.5 81q-252 0 -366 -142t-114 -460q0 -319 113.5 -460.5t366.5 -141.5q182 0 285.5 81t166.5 273zM1090 1536
h-127l-158 162l-160 -162h-125l203 246h164z" />
    <glyph glyph-name="ccircumflex" unicode="&#x109;" 
d="M891 354h164q-26 -196 -134.5 -285t-320.5 -89q-261 0 -379.5 126t-118.5 406t118.5 406t379.5 126q212 0 320.5 -89t134.5 -285h-164q-25 124 -94 180.5t-197 56.5q-175 0 -254.5 -94t-79.5 -301t79.5 -301t254.5 -94q127 0 196 56t95 181zM870 1126h-114l-156 213
l-158 -213h-114l188 308h166z" />
    <glyph glyph-name="Cdotaccent" unicode="&#x10a;" horiz-adv-x="1546" 
d="M1243 469h180q-75 -268 -224 -389t-408 -121q-348 0 -508 180.5t-160 577.5t160 577.5t508 180.5q284 0 432.5 -121t199.5 -389h-180q-46 192 -149.5 273t-302.5 81q-252 0 -366 -142t-114 -460q0 -319 113.5 -460.5t366.5 -141.5q182 0 285.5 81t166.5 273zM805 1749
q60 0 87.5 -24.5t27.5 -79.5q0 -56 -27.5 -81.5t-87.5 -25.5t-88.5 26t-28.5 81t27.5 79.5t89.5 24.5z" />
    <glyph glyph-name="cdotaccent" unicode="&#x10b;" 
d="M891 354h164q-26 -196 -134.5 -285t-320.5 -89q-261 0 -379.5 126t-118.5 406t118.5 406t379.5 126q212 0 320.5 -89t134.5 -285h-164q-25 124 -94 180.5t-197 56.5q-175 0 -254.5 -94t-79.5 -301t79.5 -301t254.5 -94q127 0 196 56t95 181zM598 1395q61 0 89 -27t28 -86
q0 -60 -28 -87.5t-89 -27.5q-60 0 -87.5 27.5t-27.5 87.5t27.5 86.5t87.5 26.5z" />
    <glyph glyph-name="Ccaron" unicode="&#x10c;" horiz-adv-x="1546" 
d="M1243 469h180q-75 -268 -224 -389t-408 -121q-348 0 -508 180.5t-160 577.5t160 577.5t508 180.5q284 0 432.5 -121t199.5 -389h-180q-46 192 -149.5 273t-302.5 81q-252 0 -366 -142t-114 -460q0 -319 113.5 -460.5t366.5 -141.5q182 0 285.5 81t166.5 273zM1081 1782
l-202 -246h-164l-203 246h127l158 -162l157 162h127z" />
    <glyph glyph-name="ccaron" unicode="&#x10d;" 
d="M891 354h164q-26 -196 -134.5 -285t-320.5 -89q-261 0 -379.5 126t-118.5 406t118.5 406t379.5 126q212 0 320.5 -89t134.5 -285h-164q-25 124 -94 180.5t-197 56.5q-175 0 -254.5 -94t-79.5 -301t79.5 -301t254.5 -94q127 0 196 56t95 181zM870 1434l-188 -308h-166
l-188 308h114l156 -213l156 213h116z" />
    <glyph glyph-name="Dcaron" unicode="&#x10e;" horiz-adv-x="1480" 
d="M1358 717q0 -376 -157.5 -546.5t-504.5 -170.5h-491v1434h491q347 0 504.5 -170.5t157.5 -546.5zM688 1288h-303v-1143h303q255 0 368 134.5t113 437.5q0 301 -113 436t-368 135zM952 1782l-200 -246h-166l-203 246h127l158 -162l159 162h125z" />
    <glyph glyph-name="dcaron" unicode="&#x10f;" horiz-adv-x="1394" 
d="M539 -20q-230 0 -333.5 127t-103.5 407t104.5 406.5t334.5 126.5q247 0 350 -150v539h164v-1434h-133l-25 139q-102 -161 -358 -161zM580 119q163 0 237 94t74 301t-74 301t-237 94q-164 0 -239 -94t-75 -301t75 -301t239 -94zM1243 1444q47 0 68.5 -36t21.5 -116
q0 -101 -39.5 -148.5t-122.5 -47.5v73q38 0 56 26t18 83q-49 0 -71.5 17.5t-22.5 54.5q0 49 22 71.5t70 22.5z" />
    <glyph glyph-name="Dcroat" unicode="&#x110;" horiz-adv-x="1542" 
d="M1419 717q0 -377 -157 -547t-504 -170h-492v750h-184v129h184v555h492q347 0 504 -170t157 -547zM750 1288h-304v-409h383v-129h-383v-605h304q255 0 368 134.5t113 437.5q0 301 -113 436t-368 135z" />
    <glyph glyph-name="dcroat" unicode="&#x111;" horiz-adv-x="1300" 
d="M1239 1290v-92h-182v-1196h-133l-25 139q-102 -161 -358 -161q-230 0 -334.5 126t-104.5 406t104.5 406t334.5 126q248 0 350 -149v301h-418v94h418v144h164v-144h184zM580 117q163 0 237 94t74 301t-74 301t-237 94q-164 0 -239 -94t-75 -301t75 -301t239 -94z" />
    <glyph glyph-name="Emacron" unicode="&#x112;" horiz-adv-x="1269" 
d="M1167 1288h-782v-467h700v-145h-700v-531h782v-145h-962v1434h962v-146zM338 1681h696v-110h-696v110z" />
    <glyph glyph-name="emacron" unicode="&#x113;" 
d="M268 422q14 -167 87.5 -244.5t224.5 -77.5q119 0 182.5 46.5t95.5 158.5h156q-37 -170 -141.5 -247.5t-297.5 -77.5q-248 0 -360.5 126.5t-112.5 405.5q0 280 111.5 406t359.5 126q253 0 367.5 -131.5t114.5 -423.5v-67h-787zM580 924q-164 0 -240 -93t-76 -299h627
q0 210 -73 301t-238 91zM227 1311h697v-111h-697v111z" />
    <glyph glyph-name="Ebreve" unicode="&#x114;" horiz-adv-x="1269" 
d="M1167 1288h-782v-467h700v-145h-700v-531h782v-145h-962v1434h962v-146zM1010 1782q0 -129 -77.5 -187.5t-246.5 -58.5t-246.5 58.5t-77.5 187.5h127q0 -79 47 -115.5t150 -36.5t150 36.5t47 115.5h127z" />
    <glyph glyph-name="ebreve" unicode="&#x115;" 
d="M268 422q14 -167 87.5 -244.5t224.5 -77.5q119 0 182.5 46.5t95.5 158.5h156q-37 -170 -141.5 -247.5t-297.5 -77.5q-248 0 -360.5 126.5t-112.5 405.5q0 280 111.5 406t359.5 126q253 0 367.5 -131.5t114.5 -423.5v-67h-787zM580 924q-164 0 -240 -93t-76 -299h627
q0 210 -73 301t-238 91zM899 1434q0 -161 -76 -234.5t-245 -73.5q-170 0 -247 73.5t-77 234.5h119q0 -107 49 -156t156 -49q108 0 155 48t47 157h119z" />
    <glyph glyph-name="Edotaccent" unicode="&#x116;" horiz-adv-x="1269" 
d="M1167 1288h-782v-467h700v-145h-700v-531h782v-145h-962v1434h962v-146zM686 1749q60 0 87.5 -24.5t27.5 -79.5q0 -56 -27.5 -81.5t-87.5 -25.5t-87.5 25.5t-27.5 81.5t27 80t88 24z" />
    <glyph glyph-name="edotaccent" unicode="&#x117;" 
d="M268 422q14 -167 87.5 -244.5t224.5 -77.5q119 0 182.5 46.5t95.5 158.5h156q-37 -170 -141.5 -247.5t-297.5 -77.5q-248 0 -360.5 126.5t-112.5 405.5q0 280 111.5 406t359.5 126q253 0 367.5 -131.5t114.5 -423.5v-67h-787zM580 924h-2q-164 0 -239 -93t-75 -299h627
q0 210 -73 301t-238 91zM575 1395q61 0 89 -27t28 -86q0 -60 -28 -87.5t-89 -27.5q-60 0 -87 27.5t-27 87.5t27 86.5t87 26.5z" />
    <glyph glyph-name="Eogonek" unicode="&#x118;" horiz-adv-x="1275" 
d="M1167 0h-69q-108 -77 -146 -181q-33 -93 12 -142q30 -33 89 -33q30 0 60.5 9t45.5 19l15 9v-152q-62 -41 -144 -41q-74 0 -124.5 36.5t-65.5 95.5t-5.5 126t55 136t116.5 118h-801v1434h962v-146h-782v-467h700v-145h-700v-531h782v-145z" />
    <glyph glyph-name="eogonek" unicode="&#x119;" 
d="M717 -8v2q-105 -79 -139 -181q-29 -91 18 -138q29 -29 84 -29q16 0 31.5 2.5t27 5.5t23.5 8t18.5 8t13.5 7l7 4v-152q-61 -41 -146 -41q-71 0 -119.5 34t-65.5 89.5t-11 120t44.5 132t100.5 118.5h-24q-251 0 -364.5 126t-113.5 406t112 406.5t359 126.5
q253 0 367.5 -131.5t114.5 -423.5v-68h-787q14 -167 87.5 -244.5t224.5 -77.5q119 0 182.5 46.5t95.5 158.5h156q-29 -137 -101 -213.5t-196 -101.5zM584 926q-164 0 -240 -92.5t-76 -298.5h627q0 210 -73 300.5t-238 90.5z" />
    <glyph glyph-name="Ecaron" unicode="&#x11a;" horiz-adv-x="1269" 
d="M1167 1288h-782v-467h700v-145h-700v-531h782v-145h-962v1434h962v-146zM963 1782l-201 -246h-166l-203 246h127l158 -162l160 162h125z" />
    <glyph glyph-name="ecaron" unicode="&#x11b;" 
d="M268 422q14 -167 87.5 -244.5t224.5 -77.5q119 0 182.5 46.5t95.5 158.5h156q-37 -170 -141.5 -247.5t-297.5 -77.5q-248 0 -360.5 126.5t-112.5 405.5q0 280 111.5 406t359.5 126q253 0 367.5 -131.5t114.5 -423.5v-67h-787zM891 532q0 209 -74 300.5t-239 91.5
q-164 0 -239 -93t-75 -299h627zM848 1434l-189 -308h-165l-189 308h115l158 -213l155 213h115z" />
    <glyph glyph-name="Gbreve" unicode="&#x11e;" horiz-adv-x="1566" 
d="M805 655v138h639v-76q0 -398 -151.5 -578t-487.5 -180q-358 0 -520 180t-162 578t162 578t520 180q274 0 420.5 -117t197.5 -375h-172q-41 178 -146 257t-300 79q-262 0 -378 -141t-116 -461q0 -319 116.5 -460.5t377.5 -141.5q248 0 357.5 126.5t109.5 413.5h-467z
M1126 1782q0 -129 -76 -187.5t-245 -58.5q-170 0 -247 58.5t-77 187.5h127q0 -79 47 -115.5t150 -36.5t149.5 36t46.5 116h125z" />
    <glyph glyph-name="gbreve" unicode="&#x11f;" horiz-adv-x="1218" 
d="M541 -20q-231 0 -335 125.5t-104 404.5q0 280 104.5 407t334.5 127q258 0 360 -165l21 145h133v-922q0 -281 -112.5 -406.5t-362.5 -125.5q-199 0 -302.5 77.5t-134.5 248.5h158q25 -112 87 -158.5t183 -46.5q169 0 244.5 90.5t75.5 294.5v53q-102 -149 -350 -149z
M580 115q166 0 238.5 92t72.5 303t-72.5 303t-238.5 92q-167 0 -240.5 -92t-73.5 -303q0 -210 73.5 -302.5t240.5 -92.5zM940 1434q0 -161 -77 -234.5t-247 -73.5q-169 0 -245 73.5t-76 234.5h117q0 -107 48.5 -156t155.5 -49q110 0 157.5 48t47.5 157h119z" />
    <glyph glyph-name="Gdotaccent" unicode="&#x120;" horiz-adv-x="1566" 
d="M805 655v138h639v-76q0 -398 -151.5 -578t-487.5 -180q-358 0 -520 180t-162 578t162 578t520 180q274 0 420.5 -117t197.5 -375h-172q-41 178 -146 257t-300 79q-262 0 -378 -141t-116 -461q0 -319 116.5 -460.5t377.5 -141.5q248 0 357.5 126.5t109.5 413.5h-467z
M805 1749q60 0 87.5 -24.5t27.5 -79.5q0 -56 -27.5 -81.5t-87.5 -25.5t-88.5 26t-28.5 81t27.5 79.5t89.5 24.5z" />
    <glyph glyph-name="gdotaccent" unicode="&#x121;" horiz-adv-x="1208" 
d="M541 -20q-231 0 -335 125.5t-104 404.5q0 280 104.5 407t334.5 127q258 0 360 -165l21 145h133v-922q0 -281 -112.5 -406.5t-362.5 -125.5q-199 0 -302.5 77.5t-134.5 248.5h158q25 -112 87 -158.5t183 -46.5q169 0 244.5 90.5t75.5 294.5v53q-102 -149 -350 -149z
M580 115q166 0 238.5 92t72.5 303t-72.5 303t-238.5 92q-167 0 -240.5 -92t-73.5 -303q0 -210 73.5 -302.5t240.5 -92.5zM629 1370q61 0 88.5 -27.5t27.5 -87.5q0 -59 -27.5 -85.5t-88.5 -26.5q-60 0 -87.5 27t-27.5 85q0 60 27.5 87.5t87.5 27.5z" />
    <glyph glyph-name="Gcedilla" unicode="&#x122;" horiz-adv-x="1566" 
d="M805 655v138h639v-76q0 -397 -152 -577.5t-487 -180.5q-358 0 -520 180t-162 578t162 578t520 180q274 0 420.5 -117t197.5 -375h-172q-41 178 -146.5 257t-299.5 79q-262 0 -378 -141t-116 -461t116 -461t378 -141q248 0 357.5 126.5t109.5 413.5h-467zM803 -94
q47 0 69.5 -36.5t22.5 -115.5q0 -103 -39 -149.5t-125 -46.5v73q40 0 58 26t18 83q-49 0 -71.5 21t-22.5 67q0 41 21.5 59.5t68.5 18.5z" />
    <glyph glyph-name="gcedilla" unicode="&#x123;" horiz-adv-x="1218" 
d="M541 -20q-231 0 -335 125.5t-104 404.5q0 280 104.5 407t334.5 127q258 0 360 -165l21 145h133v-922q0 -281 -112.5 -406.5t-362.5 -125.5q-199 0 -302.5 77.5t-134.5 248.5h158q25 -112 87 -158.5t183 -46.5q169 0 244.5 90.5t75.5 294.5v53q-102 -149 -350 -149z
M580 115q166 0 238.5 92t72.5 303t-72.5 303t-238.5 92q-167 0 -240.5 -92t-73.5 -303q0 -210 73.5 -302.5t240.5 -92.5zM594 1139q-48 0 -70 36t-22 115q0 102 40.5 149.5t123.5 47.5v-74q-38 0 -56 -25.5t-18 -82.5q48 0 71 -19t23 -65q0 -43 -20.5 -62.5t-71.5 -19.5z
" />
    <glyph glyph-name="Itilde" unicode="&#x128;" horiz-adv-x="604" 
d="M213 1434h180v-1434h-180v1434zM-20 1556q0 103 49 158t125 55q44 0 82.5 -14.5t66 -35t52.5 -40.5t53.5 -34.5t58.5 -14.5q36 0 58 28t22 83h78q0 -103 -48.5 -158t-125.5 -55q-44 0 -82.5 14.5t-66 35t-52.5 40.5t-53.5 34.5t-57.5 14.5q-37 0 -58.5 -28t-21.5 -83h-79
z" />
    <glyph glyph-name="itilde" unicode="&#x129;" horiz-adv-x="481" 
d="M322 0h-164v1024h164v-1024zM-82 1178q0 106 50 173.5t124 67.5q44 0 82.5 -19.5t65.5 -47.5t51.5 -56t51 -47.5t52.5 -19.5q36 0 58 35.5t22 97.5h88q0 -106 -50.5 -175t-123.5 -69q-44 0 -83 19.5t-66.5 48t-52 56.5t-51 47.5t-52.5 19.5q-36 0 -58 -35t-22 -96h-86z
" />
    <glyph glyph-name="Imacron" unicode="&#x12a;" horiz-adv-x="614" 
d="M217 1434h180v-1434h-180v1434zM-41 1671h696v-112h-696v112z" />
    <glyph glyph-name="imacron" unicode="&#x12b;" horiz-adv-x="491" 
d="M328 0h-164v1024h164v-1024zM-102 1311h696v-111h-696v111z" />
    <glyph glyph-name="Iogonek" unicode="&#x12e;" horiz-adv-x="589" 
d="M389 0h-39q-108 -77 -146 -181q-34 -93 11 -142q30 -33 88 -33q30 0 61 9t46 19l16 9v-152q-61 -41 -143 -41q-74 0 -124.5 36.5t-66 95.5t-6 126t55 136t116.5 118h-49v1434h180v-1434z" />
    <glyph glyph-name="iogonek" unicode="&#x12f;" horiz-adv-x="487" 
d="M328 0h-39q-108 -77 -146 -181q-34 -93 11 -142q30 -33 88 -33q30 0 61 9t47 19l15 9v-152q-62 -41 -144 -41q-74 0 -124.5 36.5t-65.5 95.5t-5.5 126t55 136t116.5 118h-33v1024h164v-1024zM246 1448q60 0 87 -27.5t27 -87.5q0 -59 -27 -85.5t-87 -26.5t-87.5 27
t-27.5 85q0 60 27 87.5t88 27.5z" />
    <glyph glyph-name="Idotaccent" unicode="&#x130;" horiz-adv-x="600" 
d="M209 1434h180v-1434h-180v1434zM299 1749q61 0 89 -24.5t28 -79.5t-28.5 -81t-88.5 -26t-87.5 25.5t-27.5 81.5t27 80t88 24z" />
    <glyph glyph-name="dotlessi" unicode="&#x131;" horiz-adv-x="491" 
d="M328 0h-164v1024h164v-1024z" />
    <glyph glyph-name="IJ" unicode="&#x132;" horiz-adv-x="1708" 
d="M205 1434h180v-1434h-180v1434zM645 430v47h172v-47q0 -169 61.5 -242t202.5 -73q140 0 201 73.5t61 241.5v1004h181v-1004q0 -243 -105.5 -353t-337.5 -110q-229 0 -332.5 110t-103.5 353z" />
    <glyph glyph-name="ij" unicode="&#x133;" horiz-adv-x="974" 
d="M342 0h-166v1024h166v-1024zM455 -231q90 0 134 43t44 118v1094h166v-1112q0 -131 -74.5 -206t-216.5 -75h-162v138h109zM258 1448q61 0 89 -27.5t28 -87.5q0 -59 -28 -85.5t-89 -26.5q-60 0 -87.5 27t-27.5 85q0 60 27.5 87.5t87.5 27.5zM715 1448q61 0 88.5 -27.5
t27.5 -87.5q0 -59 -27.5 -85.5t-88.5 -26.5q-60 0 -87.5 27t-27.5 85q0 60 27.5 87.5t87.5 27.5z" />
    <glyph glyph-name="Kcedilla" unicode="&#x136;" horiz-adv-x="1339" 
d="M385 1434v-627l608 627h224l-676 -697l716 -737h-223l-649 668v-668h-180v1434h180zM645 -94q47 0 69.5 -36.5t22.5 -115.5q0 -102 -40 -149t-124 -47v73q38 0 56 26t18 83q-49 0 -71.5 17.5t-22.5 54.5q0 49 22 71.5t70 22.5z" />
    <glyph glyph-name="kcedilla" unicode="&#x137;" horiz-adv-x="1091" 
d="M328 1434v-850l460 440h201l-512 -492l553 -532h-201l-501 481v-481h-164v1434h164zM535 -94q47 0 69.5 -36.5t22.5 -115.5q0 -102 -40 -149t-124 -47v73q38 0 56 26t18 83q-50 0 -72.5 18.5t-22.5 59.5q0 88 93 88z" />
    <glyph glyph-name="Lacute" unicode="&#x139;" horiz-adv-x="1189" 
d="M1087 156v-156h-880v1434h180v-1278h700zM205 1536l213 246h166l-238 -246h-141z" />
    <glyph glyph-name="lacute" unicode="&#x13a;" horiz-adv-x="503" 
d="M166 0v1434h166v-1434h-166zM143 1536l215 246h166l-237 -246h-144z" />
    <glyph glyph-name="Lcedilla" unicode="&#x13b;" horiz-adv-x="1187" 
d="M1085 156v-156h-880v1434h180v-1278h700zM631 -94h2q51 0 73.5 -36t22.5 -114q0 -103 -40 -150.5t-124 -47.5v73q38 0 56 26t18 83q-51 0 -72.5 18.5t-21.5 61.5q0 86 86 86z" />
    <glyph glyph-name="lcedilla" unicode="&#x13c;" horiz-adv-x="471" 
d="M152 0v1434h163v-1434h-163zM229 -94h2q51 0 74 -36t23 -114q0 -103 -40 -150.5t-124 -47.5v73q38 0 56 26t18 83q-51 0 -73 18.5t-22 61.5q0 86 86 86z" />
    <glyph glyph-name="Lcaron" unicode="&#x13d;" horiz-adv-x="1187" 
d="M1085 156v-156h-880v1434h180v-1278h700zM567 1454h2q51 0 74 -35.5t23 -113.5q0 -103 -40 -151t-124 -48v74q38 0 55.5 25.5t17.5 82.5q-51 0 -72.5 18.5t-21.5 61.5q0 86 86 86z" />
    <glyph glyph-name="lcaron" unicode="&#x13e;" horiz-adv-x="665" 
d="M164 0v1434h164v-1434h-164zM506 1454h2q51 0 73.5 -35.5t22.5 -113.5q0 -103 -40 -151t-124 -48v74q38 0 56 25.5t18 82.5q-51 0 -72.5 18.5t-21.5 61.5q0 86 86 86z" />
    <glyph glyph-name="Lslash" unicode="&#x141;" horiz-adv-x="1220" 
d="M1118 156v-156h-880v633l-197 -121v141l197 121v660h180v-547l502 309v-143l-502 -310v-587h700z" />
    <glyph glyph-name="lslash" unicode="&#x142;" horiz-adv-x="722" 
d="M82 635v143l197 123v533h163v-430l197 122l2 -141l-199 -125v-860h-163v758z" />
    <glyph glyph-name="Nacute" unicode="&#x143;" horiz-adv-x="1542" 
d="M1165 1434h172v-1434h-217l-743 1190v-1190h-172v1434h215l745 -1190v1190zM672 1536l213 246h166l-238 -246h-141z" />
    <glyph glyph-name="nacute" unicode="&#x144;" horiz-adv-x="1177" 
d="M319 903q97 141 332 141q201 0 292 -116.5t91 -374.5v-553h-164v553q0 189 -60.5 271.5t-197.5 82.5q-149 0 -216.5 -84t-67.5 -270v-553h-164v1024h133zM727 1434h172l-258 -308h-141z" />
    <glyph glyph-name="Ncedilla" unicode="&#x145;" horiz-adv-x="1542" 
d="M1163 1434h174v-1434h-217l-743 1190v-1190h-172v1434h215l743 -1190v1190zM774 -94h2q51 0 73.5 -36t22.5 -114q0 -103 -39.5 -150.5t-123.5 -47.5v73q38 0 55.5 26t17.5 83q-51 0 -72.5 18.5t-21.5 61.5q0 86 86 86z" />
    <glyph glyph-name="ncedilla" unicode="&#x146;" horiz-adv-x="1177" 
d="M319 903q97 141 332 141q201 0 292 -116.5t91 -374.5v-553h-164v553q0 189 -60.5 271.5t-197.5 82.5q-149 0 -216.5 -84t-67.5 -270v-553h-164v1024h133zM598 -94h2q51 0 73.5 -36t22.5 -114q0 -103 -40 -150.5t-124 -47.5v73q38 0 56 26t18 83q-51 0 -72.5 18.5
t-21.5 61.5q0 86 86 86z" />
    <glyph glyph-name="Ncaron" unicode="&#x147;" horiz-adv-x="1542" 
d="M1165 1434h172v-1434h-217l-743 1190v-1190h-172v1434h215l745 -1190v1190zM1047 1782l-201 -246h-166l-201 246h125l160 -162l158 162h125z" />
    <glyph glyph-name="ncaron" unicode="&#x148;" horiz-adv-x="1177" 
d="M319 903q97 141 332 141q201 0 292 -116.5t91 -374.5v-553h-164v553q0 189 -60.5 271.5t-197.5 82.5q-149 0 -216.5 -84t-67.5 -270v-553h-164v1024h133zM682 1126h-166l-188 308h114l158 -213l156 213h114z" />
    <glyph glyph-name="Omacron" unicode="&#x14c;" horiz-adv-x="1607" 
d="M805 1475q357 0 518.5 -180t161.5 -578t-161.5 -578t-518.5 -180q-358 0 -520 180t-162 578t162 578t520 180zM805 1319q-261 0 -377.5 -141.5t-116.5 -460.5t116.5 -460.5t377.5 -141.5t377 141.5t116 460.5t-116 460.5t-377 141.5zM457 1694h696v-111h-696v111z" />
    <glyph glyph-name="omacron" unicode="&#x14d;" horiz-adv-x="1198" 
d="M600 1044q260 0 378 -126.5t118 -405.5t-118 -405.5t-378 -126.5q-261 0 -379.5 126t-118.5 406t118.5 406t379.5 126zM266 512q0 -209 78.5 -302t255.5 -93q175 0 253.5 93t78.5 302q0 211 -77.5 303t-254.5 92q-178 0 -256 -92t-78 -303zM250 1284h696v-110h-696v110z
" />
    <glyph glyph-name="Obreve" unicode="&#x14e;" horiz-adv-x="1607" 
d="M805 1475q357 0 518.5 -180t161.5 -578t-161.5 -578t-518.5 -180q-358 0 -520 180t-162 578t162 578t520 180zM805 1319q-261 0 -377.5 -141.5t-116.5 -460.5t116.5 -460.5t377.5 -141.5t377 141.5t116 460.5t-116 460.5t-377 141.5zM1126 1782q0 -129 -76 -187.5
t-245 -58.5q-170 0 -247 58.5t-77 187.5h127q0 -79 47 -115.5t150 -36.5t149.5 36t46.5 116h125z" />
    <glyph glyph-name="obreve" unicode="&#x14f;" horiz-adv-x="1198" 
d="M600 1044q260 0 378 -126.5t118 -405.5t-118 -405.5t-378 -126.5q-261 0 -379.5 126t-118.5 406t118.5 406t379.5 126zM266 512q0 -209 78.5 -302t255.5 -93q175 0 253.5 93t78.5 302q0 211 -77.5 303t-254.5 92q-178 0 -256 -92t-78 -303zM922 1434q0 -161 -76.5 -234.5
t-245.5 -73.5q-170 0 -247 73.5t-77 234.5h119q0 -109 48 -157t157 -48q108 0 155.5 48t47.5 157h119z" />
    <glyph glyph-name="Ohungarumlaut" unicode="&#x150;" horiz-adv-x="1607" 
d="M805 1475q357 0 518.5 -180t161.5 -578t-161.5 -578t-518.5 -180q-358 0 -520 180t-162 578t162 578t520 180zM805 1319q-261 0 -377.5 -141.5t-116.5 -460.5t116.5 -460.5t377.5 -141.5t377 141.5t116 460.5t-116 460.5t-377 141.5zM563 1536l209 307h164l-240 -307
h-133zM895 1536l207 307h164l-240 -307h-131z" />
    <glyph glyph-name="ohungarumlaut" unicode="&#x151;" horiz-adv-x="1198" 
d="M600 1044q260 0 378 -126.5t118 -405.5t-118 -405.5t-378 -126.5q-261 0 -379.5 126t-118.5 406t118.5 406t379.5 126zM266 512q0 -209 78.5 -302t255.5 -93q175 0 253.5 93t78.5 302q0 211 -77.5 303t-254.5 92q-178 0 -256 -92t-78 -303zM358 1126l209 308h162
l-240 -308h-131zM688 1126l209 308h164l-240 -308h-133z" />
    <glyph glyph-name="OE" unicode="&#x152;" horiz-adv-x="2349" 
d="M2245 1288l2 -2h-766v-467h684v-145h-684v-531h766v-145h-932v242q-120 -258 -449 -279q-86 -4 -131 -2q-321 13 -466.5 193.5t-145.5 562.5q0 398 158 578t507 180q199 0 328.5 -69t196.5 -214v244h932v-146zM805 1319q-261 0 -377.5 -141.5t-116.5 -460.5t116.5 -460.5
t377.5 -141.5t377 141.5t116 460.5t-116 460.5t-377 141.5z" />
    <glyph glyph-name="oe" unicode="&#x153;" horiz-adv-x="1974" 
d="M1083 422l-2 -4q13 -158 85.5 -239.5t226.5 -80.5q115 0 181 49t97 156h158q-37 -160 -147.5 -243t-288.5 -83q-272 0 -385 187q-52 -96 -151.5 -141.5t-256.5 -45.5q-261 0 -379.5 126.5t-118.5 406.5t118.5 406t379.5 126q157 0 256.5 -44.5t151.5 -139.5
q112 186 387 186q235 0 356 -140t121 -415v-67h-789zM268 512q0 -209 78.5 -302t255.5 -93q175 0 253.5 93t78.5 302q0 211 -77.5 303t-254.5 92q-178 0 -256 -92t-78 -303zM1393 920q-168 0 -240.5 -99t-75.5 -293h627q0 202 -75.5 297t-235.5 95z" />
    <glyph glyph-name="Racute" unicode="&#x154;" horiz-adv-x="1439" 
d="M1124 0l-297 545h-442v-547h-180v1434h612q496 0 496 -449q0 -350 -312 -418l316 -565h-193zM385 684h424q168 0 246 74t78 227q0 156 -77 229.5t-247 73.5h-424v-604zM582 1534l213 246h166l-238 -246h-141z" />
    <glyph glyph-name="racute" unicode="&#x155;" horiz-adv-x="786" 
d="M586 889q-148 0 -203 -82.5t-55 -294.5v-512h-164v1024h133l25 -123q81 143 264 143h112v-155h-112zM305 1126l227 308h173l-259 -308h-141z" />
    <glyph glyph-name="Rcedilla" unicode="&#x156;" horiz-adv-x="1439" 
d="M1124 0l-297 545h-442v-547h-180v1434h612q496 0 496 -449q0 -350 -312 -418l316 -565h-193zM385 684h424q168 0 246 74t78 227q0 156 -77 229.5t-247 73.5h-424v-604zM713 -94h2q51 0 73.5 -36t22.5 -114q0 -103 -40 -150.5t-124 -47.5v73q38 0 56 26t18 83
q-51 0 -72.5 18.5t-21.5 61.5q0 86 86 86z" />
    <glyph glyph-name="rcedilla" unicode="&#x157;" horiz-adv-x="786" 
d="M592 889q-148 0 -203 -82.5t-55 -294.5v-512h-164v1024h133l25 -123q81 143 264 143h113v-155h-113zM250 -94h2q51 0 73.5 -36t22.5 -114q0 -103 -40 -150.5t-124 -47.5v73q38 0 56 26t18 83q-51 0 -72.5 18.5t-21.5 61.5q0 86 86 86z" />
    <glyph glyph-name="Rcaron" unicode="&#x158;" horiz-adv-x="1439" 
d="M1126 0l-303 539h-438v-541h-180v1434h612q130 0 228 -36.5t155 -100t85 -142t28 -170.5q0 -150 -78.5 -265t-239.5 -157l322 -561h-191zM385 684h432q86 0 149.5 26t98.5 70t51.5 95.5t16.5 109.5q0 64 -16.5 116.5t-52 95.5t-98.5 67t-149 24h-432v-604zM958 1780
l-202 -246h-164l-203 246h125l160 -162l157 162h127z" />
    <glyph glyph-name="rcaron" unicode="&#x159;" horiz-adv-x="811" 
d="M616 889q-148 0 -203 -82.5t-55 -294.5v-512h-163v1024h133l24 -123q81 143 264 143h113v-155h-113zM707 1434l-189 -308h-164l-190 308h117l155 -213l156 213h115z" />
    <glyph glyph-name="Sacute" unicode="&#x15a;" horiz-adv-x="1320" 
d="M315 1065q0 -53 24.5 -93.5t67 -65t99 -45.5t120 -34.5t131 -31.5t131 -36t120 -50t99 -72t67 -102t24.5 -140q0 -229 -127 -332.5t-409 -103.5q-283 0 -411 107.5t-128 343.5h166q0 -167 87 -240.5t286 -73.5q196 0 280 64t84 209q0 55 -25 98.5t-53.5 69t-96 51
t-103 35t-124.5 30.5q-78 19 -118.5 30t-108 33.5t-103.5 48.5t-76 64t-57.5 90.5t-17.5 118.5q0 229 123.5 333t395.5 104q271 0 393.5 -107t122.5 -344h-164q0 166 -82.5 239.5t-269.5 73.5q-186 0 -266.5 -63t-80.5 -209zM561 1536l213 246h166l-235 -246h-144z" />
    <glyph glyph-name="sacute" unicode="&#x15b;" horiz-adv-x="1026" 
d="M272 768q0 -54 36 -88.5t93.5 -51.5t127 -30t139 -31t127 -47t93.5 -86.5t36 -140.5q0 -164 -99 -238.5t-319 -74.5q-212 0 -308 77.5t-96 249.5h158q0 -116 58.5 -166.5t191.5 -50.5t191.5 43t58.5 141q0 46 -22 79.5t-59.5 52.5t-86 32.5t-101.5 24t-106.5 22.5
t-102 31.5t-86 48t-59.5 76.5t-22 111q0 154 94 223t301 69q203 0 295 -73t92 -234h-149q0 104 -56 150.5t-182 46.5q-128 0 -183 -38.5t-55 -127.5zM410 1126l227 308h172l-258 -308h-141z" />
    <glyph glyph-name="Scircumflex" unicode="&#x15c;" horiz-adv-x="1320" 
d="M315 1065q0 -53 24.5 -93.5t67 -65t99 -45.5t120 -34.5t131 -31.5t131 -36t120 -50t99 -72t67 -102t24.5 -140q0 -229 -127 -332.5t-409 -103.5q-283 0 -411 107.5t-128 343.5h166q0 -167 87 -240.5t286 -73.5q196 0 280 64t84 209q0 55 -25 98.5t-53.5 69t-96 51
t-103 35t-124.5 30.5q-78 19 -118.5 30t-108 33.5t-103.5 48.5t-76 64t-57.5 90.5t-17.5 118.5q0 229 123.5 333t395.5 104q271 0 393.5 -107t122.5 -344h-164q0 166 -82.5 239.5t-269.5 73.5q-186 0 -266.5 -63t-80.5 -209zM946 1536h-127l-157 162l-160 -162h-125l203 246
h163z" />
    <glyph glyph-name="scircumflex" unicode="&#x15d;" horiz-adv-x="1026" 
d="M272 768q0 -54 36 -88.5t93.5 -51.5t127 -30t139 -31t127 -47t93.5 -86.5t36 -140.5q0 -164 -99 -238.5t-319 -74.5q-212 0 -308 77.5t-96 249.5h158q0 -116 58.5 -166.5t191.5 -50.5t191.5 43t58.5 141q0 46 -22 79.5t-59.5 52.5t-86 32.5t-101.5 24t-106.5 22.5
t-102 31.5t-86 48t-59.5 76.5t-22 111q0 154 94 223t301 69q203 0 295 -73t92 -234h-149q0 104 -56 150.5t-182 46.5q-128 0 -183 -38.5t-55 -127.5zM780 1126h-114l-156 213l-156 -213h-116l190 308h164z" />
    <glyph glyph-name="Scedilla" unicode="&#x15e;" horiz-adv-x="1320" 
d="M549 -178l43 137q-245 12 -357 119.5t-112 329.5h166q0 -167 87 -240.5t286 -73.5q196 0 280 64t84 209q0 55 -25 98.5t-53.5 69t-96 51t-103 35t-124.5 30.5q-78 19 -118.5 30t-108 33.5t-103.5 48.5t-76 64t-57.5 90.5t-17.5 118.5q0 229 123.5 333t395.5 104
q271 0 393.5 -107t122.5 -344h-164q0 166 -82.5 239.5t-269.5 73.5q-186 0 -266.5 -63t-80.5 -209q0 -53 24.5 -93.5t67 -65t99 -45.5t120 -34.5t131 -31.5t131 -36t120 -50t99 -72t67 -102t24.5 -140q0 -224 -121.5 -329t-386.5 -105l-20 -63q9 -1 23 -4t50.5 -16t64 -31
t50.5 -53t23 -79q0 -108 -103.5 -166.5t-300.5 -58.5v84q279 0 279 141q0 31 -22 54t-56.5 34t-66.5 16t-62 5z" />
    <glyph glyph-name="scedilla" unicode="&#x15f;" horiz-adv-x="1026" 
d="M444 -20q-178 10 -260 88.5t-82 238.5h158q0 -116 58.5 -166.5t191.5 -50.5t191.5 43t58.5 141q0 46 -22 79.5t-59.5 52.5t-86 32.5t-101.5 24t-106.5 22.5t-102 31.5t-86 48t-59.5 76.5t-22 111q0 154 94 223t301 69q203 0 295 -73t92 -234h-149q0 104 -56 150.5
t-182 46.5q-128 0 -183 -38.5t-55 -127.5q0 -54 36 -88.5t93.5 -51.5t127 -30t139 -31t127 -47t93.5 -86.5t36 -140.5q0 -157 -91 -232t-290 -81l-27 -84q9 -1 23 -4t50.5 -16t64 -31t50.5 -53t23 -79q0 -108 -103 -166.5t-300 -58.5v84q278 0 278 141q0 31 -22 54t-56.5 34
t-66.5 16t-62 5z" />
    <glyph glyph-name="Scaron" unicode="&#x160;" horiz-adv-x="1320" 
d="M315 1065q0 -53 24.5 -93.5t67 -65t99 -45.5t120 -34.5t131 -31.5t131 -36t120 -50t99 -72t67 -102t24.5 -140q0 -229 -127 -332.5t-409 -103.5q-283 0 -411 107.5t-128 343.5h166q0 -167 87 -240.5t286 -73.5q196 0 280 64t84 209q0 55 -25 98.5t-53.5 69t-96 51
t-103 35t-124.5 30.5q-78 19 -118.5 30t-108 33.5t-103.5 48.5t-76 64t-57.5 90.5t-17.5 118.5q0 229 123.5 333t395.5 104q271 0 393.5 -107t122.5 -344h-164q0 166 -82.5 239.5t-269.5 73.5q-186 0 -266.5 -63t-80.5 -209zM938 1782l-203 -246h-164l-202 246h127l157 -162
l158 162h127z" />
    <glyph glyph-name="scaron" unicode="&#x161;" horiz-adv-x="1026" 
d="M272 768q0 -54 36 -88.5t93.5 -51.5t127 -30t139 -31t127 -47t93.5 -86.5t36 -140.5q0 -164 -99 -238.5t-319 -74.5q-212 0 -308 77.5t-96 249.5h158q0 -116 58.5 -166.5t191.5 -50.5t191.5 43t58.5 141q0 46 -22 79.5t-59.5 52.5t-86 32.5t-101.5 24t-106.5 22.5
t-102 31.5t-86 48t-59.5 76.5t-22 111q0 154 94 223t301 69q203 0 295 -73t92 -234h-149q0 104 -56 150.5t-182 46.5q-128 0 -183 -38.5t-55 -127.5zM780 1434l-188 -308h-164l-190 308h114l158 -213l156 213h114z" />
    <glyph glyph-name="Tcedilla" unicode="&#x162;" horiz-adv-x="1280" 
d="M586 0h-35v1278h-449v156h1076v-156h-447v-1278h-49l-33 -104q9 -1 23 -4t50.5 -16t64 -31t50.5 -53t23 -79q0 -108 -102.5 -166.5t-300.5 -58.5v84q278 0 278 141q0 31 -22 54t-56 34t-66.5 16t-62.5 5z" />
    <glyph glyph-name="tcedilla" unicode="&#x163;" horiz-adv-x="825" 
d="M457 12h-2q-93 24 -141 94.5t-48 174.5v622h-164v121h164v244h166v-244h311v-121h-311v-604q0 -75 44 -118.5t134 -43.5h133v-137h-186h-6l-35 -104q9 -1 23 -4t50.5 -16t64 -31t50.5 -53t23 -79q0 -108 -103 -166.5t-300 -58.5v84q278 0 278 141q0 31 -22 54t-56 34
t-66.5 16t-62.5 5z" />
    <glyph glyph-name="Tcaron" unicode="&#x164;" horiz-adv-x="1280" 
d="M1178 1434v-156h-447v-1278h-180v1278h-449v156h1076zM918 1782l-203 -246h-164l-203 246h127l158 -162l158 162h127z" />
    <glyph glyph-name="tcaron" unicode="&#x165;" horiz-adv-x="825" 
d="M432 299q0 -75 44 -118.5t134 -43.5h133v-137h-186q-142 0 -216.5 75t-74.5 206v622h-164v121h164v244h166v-244h311v-121h-311v-604zM594 1456h2q51 0 73.5 -35.5t22.5 -113.5q0 -103 -40 -151t-124 -48v74q38 0 56 25.5t18 82.5q-51 0 -72.5 18.5t-21.5 61.5
q0 86 86 86z" />
    <glyph glyph-name="Utilde" unicode="&#x168;" horiz-adv-x="1484" 
d="M184 520v914h181v-914q0 -215 88.5 -310t289.5 -95q200 0 288.5 95t88.5 310v914h180v-914q0 -295 -132.5 -428t-424.5 -133q-293 0 -426 133t-133 428zM420 1556q0 103 49 158t125 55q44 0 82.5 -14.5t66 -35t52.5 -40.5t53.5 -34.5t58.5 -14.5q35 0 56.5 28t21.5 83h80
q0 -103 -48.5 -158t-125.5 -55q-44 0 -82.5 14.5t-66 35t-52.5 40.5t-53 34.5t-57 14.5q-37 0 -58.5 -28t-21.5 -83h-80z" />
    <glyph glyph-name="utilde" unicode="&#x169;" horiz-adv-x="1177" 
d="M838 121q-97 -141 -332 -141q-201 0 -292 116.5t-91 374.5v553h164v-553q0 -189 60.5 -271.5t197.5 -82.5q149 0 216.5 84t67.5 270v553h164v-1024h-133zM256 1229q0 106 50.5 175t123.5 69q44 0 83 -19.5t66 -47.5t51.5 -56.5t51 -48t53.5 -19.5q35 0 56.5 34.5
t21.5 96.5h88q0 -106 -50 -175t-124 -69q-44 0 -83 19.5t-66 47.5t-51.5 56.5t-51 48t-53.5 19.5q-35 0 -56.5 -34.5t-21.5 -96.5h-88z" />
    <glyph glyph-name="Umacron" unicode="&#x16a;" horiz-adv-x="1484" 
d="M184 520v914h181v-914q0 -215 88.5 -310t289.5 -95q200 0 288.5 95t88.5 310v914h180v-914q0 -295 -132.5 -428t-424.5 -133q-293 0 -426 133t-133 428zM393 1681h697v-110h-697v110z" />
    <glyph glyph-name="umacron" unicode="&#x16b;" horiz-adv-x="1177" 
d="M838 121q-97 -141 -332 -141q-201 0 -292 116.5t-91 374.5v553h164v-553q0 -189 60.5 -271.5t197.5 -82.5q149 0 216.5 84t67.5 270v553h164v-1024h-133zM229 1200v111h697v-111h-697z" />
    <glyph glyph-name="Ubreve" unicode="&#x16c;" horiz-adv-x="1484" 
d="M184 520v914h181v-914q0 -215 88.5 -310t289.5 -95q200 0 288.5 95t88.5 310v914h180v-914q0 -295 -132.5 -428t-424.5 -133q-293 0 -426 133t-133 428zM1065 1782q0 -129 -76.5 -187.5t-245.5 -58.5q-170 0 -246.5 58.5t-76.5 187.5h127q0 -80 46.5 -116t149.5 -36
t150 36.5t47 115.5h125z" />
    <glyph glyph-name="ubreve" unicode="&#x16d;" horiz-adv-x="1177" 
d="M838 121q-97 -141 -332 -141q-201 0 -292 116.5t-91 374.5v553h164v-553q0 -189 60.5 -271.5t197.5 -82.5q149 0 216.5 84t67.5 270v553h164v-1024h-133zM762 1434h119q0 -161 -76.5 -234.5t-245.5 -73.5q-170 0 -246.5 73t-76.5 235h118q0 -109 48 -157t157 -48
q108 0 155.5 48t47.5 157z" />
    <glyph glyph-name="Uring" unicode="&#x16e;" horiz-adv-x="1484" 
d="M184 520v914h181v-914q0 -215 88.5 -310t289.5 -95q200 0 288.5 95t88.5 310v914h180v-914q0 -295 -132.5 -428t-424.5 -133q-293 0 -426 133t-133 428zM743 1817q119 0 173.5 -48t54.5 -153q0 -106 -55 -154.5t-175 -48.5q-118 0 -172.5 48.5t-54.5 154.5t54.5 153.5
t174.5 47.5zM743 1497q72 0 101.5 27t29.5 92q0 63 -29.5 90t-101.5 27q-73 0 -103 -27t-30 -90q0 -65 30 -92t103 -27z" />
    <glyph glyph-name="uring" unicode="&#x16f;" horiz-adv-x="1177" 
d="M838 121q-97 -141 -332 -141q-201 0 -292 116.5t-91 374.5v553h164v-553q0 -189 60.5 -271.5t197.5 -82.5q149 0 216.5 84t67.5 270v553h164v-1024h-133zM551 1513q120 0 173.5 -48t53.5 -154t-53.5 -154.5t-173.5 -48.5t-174.5 48.5t-54.5 154.5t54.5 154t174.5 48z
M551 1194q72 0 102.5 27t30.5 90t-30.5 89.5t-102.5 26.5t-102.5 -26.5t-30.5 -89.5t30.5 -90t102.5 -27z" />
    <glyph glyph-name="Uhungarumlaut" unicode="&#x170;" horiz-adv-x="1484" 
d="M184 520v914h181v-914q0 -215 88.5 -310t289.5 -95q200 0 288.5 95t88.5 310v914h180v-914q0 -295 -132.5 -428t-424.5 -133q-293 0 -426 133t-133 428zM502 1536l209 307h161l-239 -307h-131zM831 1536l209 307h164l-239 -307h-134z" />
    <glyph glyph-name="uhungarumlaut" unicode="&#x171;" horiz-adv-x="1177" 
d="M838 121q-97 -141 -332 -141q-201 0 -292 116.5t-91 374.5v553h164v-553q0 -189 60.5 -271.5t197.5 -82.5q149 0 216.5 84t67.5 270v553h164v-1024h-133zM518 1434h164l-240 -308h-133zM848 1434h164l-240 -308h-131z" />
    <glyph glyph-name="Uogonek" unicode="&#x172;" horiz-adv-x="1484" 
d="M1300 520q0 -232 -82.5 -363t-256.5 -175q-81 -65 -117 -145t-11.5 -136.5t103.5 -56.5q30 0 61 9t47 19l15 9v-152q-64 -41 -146 -41q-87 0 -139 49.5t-60.5 121t25 155.5t105.5 149q-66 -4 -101 -4q-293 0 -426 133t-133 428v914h181v-914q0 -215 88.5 -310t289.5 -95
q200 0 288.5 95t88.5 310v914h180v-914z" />
    <glyph glyph-name="uogonek" unicode="&#x173;" horiz-adv-x="1206" 
d="M870 -2h-10l-22 121q-98 -142 -332 -142q-201 0 -292 117t-91 375v553h164v-553q0 -189 60.5 -271.5t197.5 -82.5q149 0 216.5 84t67.5 270v553h164v-1006h-2v-16h-24q-109 -77 -147 -181q-33 -91 11 -141q30 -34 89 -34q30 0 60 9t45 19l15 9v-152q-61 -41 -143 -41
q-92 0 -145 56t-56.5 134.5t41.5 168t133 151.5z" />
    <glyph glyph-name="Wcircumflex" unicode="&#x174;" horiz-adv-x="2072" 
d="M928 1434h217l305 -1266l340 1266h180l-399 -1434h-232l-311 1266l-295 -1266h-231l-400 1434h181l340 -1266zM1317 1536h-125l-160 162l-158 -162h-126l202 246h164z" />
    <glyph glyph-name="wcircumflex" unicode="&#x175;" horiz-adv-x="1738" 
d="M1321 0h-199l-252 899l-252 -899h-198l-338 1024h166l276 -889l250 889h199l241 -889l277 889h166zM1147 1126h-117l-156 213l-155 -213h-115l189 308h163z" />
    <glyph glyph-name="Ycircumflex" unicode="&#x176;" horiz-adv-x="1329" 
d="M756 580h-2v-580h-172v580l-500 854h201l387 -689l387 689h190zM944 1536h-127l-158 162l-159 -162h-125l203 246h163z" />
    <glyph glyph-name="ycircumflex" unicode="&#x177;" horiz-adv-x="1075" 
d="M504 12l4 13l-447 999h160l357 -799l278 799h158l-381 -1065q-62 -172 -143 -250t-199 -78h-113v121h107q71 0 123 62t96 198zM817 1126h-117l-155 213l-156 -213h-117l191 308h164z" />
    <glyph glyph-name="Ydieresis" unicode="&#x178;" horiz-adv-x="1329" 
d="M756 580h-2v-580h-172v580l-500 854h201l387 -689l387 689h190zM469 1729q60 0 88.5 -25t28.5 -80t-28.5 -80.5t-88.5 -25.5t-87.5 25.5t-27.5 80.5t27.5 80t87.5 25zM848 1729q62 0 89.5 -25t27.5 -80q0 -56 -28 -81t-89 -25q-60 0 -87.5 25.5t-27.5 80.5t27.5 80
t87.5 25z" />
    <glyph glyph-name="Zacute" unicode="&#x179;" horiz-adv-x="1290" 
d="M317 145h871v-145h-1086v119l848 1169h-827v146h1044v-119zM537 1536l213 246h165l-235 -246h-143z" />
    <glyph glyph-name="zacute" unicode="&#x17a;" horiz-adv-x="1005" 
d="M283 129h641v-129h-842v102l620 793h-600v129h801v-102zM403 1126l228 308h172l-258 -308h-142z" />
    <glyph glyph-name="Zdotaccent" unicode="&#x17b;" horiz-adv-x="1290" 
d="M317 145h871v-145h-1086v119l848 1169h-827v146h1044v-119zM645 1749q60 0 87.5 -24.5t27.5 -79.5q0 -56 -27.5 -81.5t-87.5 -25.5q-61 0 -89 25.5t-28 81.5q0 55 27.5 79.5t89.5 24.5z" />
    <glyph glyph-name="zdotaccent" unicode="&#x17c;" horiz-adv-x="1005" 
d="M283 129h641v-129h-842v102l620 793h-600v129h801v-102zM502 1395q61 0 88.5 -27t27.5 -86q0 -60 -27.5 -87.5t-88.5 -27.5q-60 0 -87.5 27.5t-27.5 87.5t27.5 86.5t87.5 26.5z" />
    <glyph glyph-name="Zcaron" unicode="&#x17d;" horiz-adv-x="1290" 
d="M317 145h871v-145h-1086v119l848 1169h-827v146h1044v-119zM922 1782l-203 -246h-164l-203 246h127l158 -162l158 162h127z" />
    <glyph glyph-name="zcaron" unicode="&#x17e;" horiz-adv-x="1005" 
d="M283 129h641v-129h-842v102l620 793h-600v129h801v-102zM774 1434l-188 -308h-166l-189 308h115l158 -213l155 213h115z" />
    <glyph glyph-name="Aacutering" unicode="&#x1fa;" horiz-adv-x="1419" 
d="M82 0l514 1434h244l497 -1434h-188l-117 348h-649l-119 -348h-182zM430 485h555l-276 820zM950 1966l-139 -149q61 -18 95 -59t34 -101q0 -83 -61 -128.5t-166 -45.5q-106 0 -168 45.5t-62 128.5q0 82 62 127t168 45h6l112 137h119zM711 1559q66 0 102.5 24.5t36.5 73.5
q0 47 -37 71.5t-102 24.5q-67 0 -104.5 -24.5t-37.5 -71.5q0 -49 37.5 -73.5t104.5 -24.5z" />
    <glyph glyph-name="aacutering" unicode="&#x1fb;" horiz-adv-x="1116" 
d="M840 0l-21 121q-93 -141 -340 -141q-198 0 -287.5 74.5t-89.5 240.5q0 183 109 265.5t352 82.5h246v53q0 126 -60 182t-194 56q-136 0 -195 -50.5t-59 -166.5h-158q0 172 99 249.5t317 77.5q216 0 315 -87t99 -279v-678h-133zM809 532h-242q-158 0 -229.5 -53.5
t-71.5 -173.5q0 -107 58 -151.5t194 -44.5q148 0 219.5 69t71.5 219v135zM705 1620h133l-156 -160q102 -44 102 -170q0 -96 -58 -144.5t-171 -47.5q-227 0 -227 192q0 193 229 193h29zM557 1182q73 0 102 24.5t29 83.5t-29.5 84t-101.5 25q-73 0 -103 -25t-30 -84t30 -83.5
t103 -24.5z" />
    <glyph glyph-name="AEacute" unicode="&#x1fc;" horiz-adv-x="1910" 
d="M1808 1288h-696v-467h614v-145h-614v-531h696v-145h-860v348h-499l-183 -348h-184l762 1434h964v-146zM948 1305l-428 -820h428v820zM1008 1536l213 246h165l-237 -246h-141z" />
    <glyph glyph-name="aeacute" unicode="&#x1fd;" horiz-adv-x="1904" 
d="M975 422q14 -168 86.5 -246t222.5 -78q120 0 183.5 46.5t95.5 158.5h157q-37 -170 -140.5 -248t-295.5 -78q-159 0 -256 60.5t-141 189.5q-32 -128 -131 -187.5t-277 -59.5q-198 0 -287.5 74.5t-89.5 240.5q0 179 104.5 263.5t332.5 84.5h270v53q0 120 -61.5 174
t-196.5 54t-192.5 -47.5t-57.5 -159.5h-158q0 172 99 249.5t317 77.5q145 0 231 -44.5t123 -139.5q99 184 371 184q251 0 364 -131.5t113 -423.5v-67h-786zM809 532h-229q-167 0 -240.5 -53t-73.5 -174q0 -103 60 -149.5t192 -46.5q152 0 221.5 65.5t69.5 210.5v147z
M1597 530q0 210 -74 301t-241 91q-162 0 -236.5 -93t-74.5 -299h626zM805 1124l227 308h172l-258 -308h-141z" />
    <glyph glyph-name="Oslashacute" unicode="&#x1fe;" horiz-adv-x="1607" 
d="M1038 1452l49 150h119l-61 -181q176 -72 258 -243t82 -459q0 -398 -161.5 -578t-518.5 -180q-77 0 -162 10l-47 -133h-119l53 156q-211 60 -309 235.5t-98 489.5q0 398 162 578t520 180q124 0 233 -25zM985 1298q-79 21 -180 21q-261 0 -377.5 -141.5t-116.5 -460.5
q0 -242 66.5 -380.5t208.5 -189.5zM694 121q52 -6 111 -6q261 0 377 141.5t116 460.5q0 214 -50 344.5t-158 193.5zM680 1540l213 246h166l-238 -246h-141z" />
    <glyph glyph-name="oslashacute" unicode="&#x1ff;" horiz-adv-x="1196" 
d="M597 1044q66 0 134 -10l45 133h88l-51 -151q144 -46 211.5 -168.5t67.5 -335.5q0 -279 -118 -405.5t-378 -126.5q-67 0 -135 10l-45 -133h-88l51 151q-144 46 -211.5 168.5t-67.5 335.5q0 279 118.5 405.5t378.5 126.5zM596 907v2q-178 0 -256 -92t-78 -303
q0 -150 39 -239.5t123 -127.5l260 754q-40 6 -88 6zM764 881l-258 -756q40 -6 90 -6q175 0 253.5 93t78.5 302q0 152 -39.5 241.5t-124.5 125.5zM467 1128l227 308h172l-258 -308h-141z" />
    <glyph glyph-name="Scommaaccent" unicode="&#x218;" horiz-adv-x="1320" 
d="M315 1065q0 -53 24.5 -93.5t67 -65t99 -45.5t120 -34.5t131 -31.5t131 -36t120 -50t99 -72t67 -102t24.5 -140q0 -229 -127 -332.5t-409 -103.5q-283 0 -411 107.5t-128 343.5h166q0 -167 87 -240.5t286 -73.5q196 0 280 64t84 209q0 55 -25 98.5t-53.5 69t-96 51
t-103 35t-124.5 30.5q-78 19 -118.5 30t-108 33.5t-103.5 48.5t-76 64t-57.5 90.5t-17.5 118.5q0 229 123.5 333t395.5 104q271 0 393.5 -107t122.5 -344h-164q0 166 -82.5 239.5t-269.5 73.5q-186 0 -266.5 -63t-80.5 -209zM657 -94h2q51 0 74 -36t23 -114
q0 -103 -40 -150.5t-124 -47.5v73q38 0 56 26t18 83q-51 0 -73 18.5t-22 61.5q0 86 86 86z" />
    <glyph glyph-name="scommaaccent" unicode="&#x219;" horiz-adv-x="1026" 
d="M272 768q0 -54 36 -88.5t93.5 -51.5t127 -30t139 -31t127 -47t93.5 -86.5t36 -140.5q0 -164 -99.5 -238.5t-320.5 -74.5q-211 0 -306.5 77.5t-95.5 249.5h156q0 -116 58.5 -166.5t193.5 -50.5q133 0 191.5 43t58.5 141q0 46 -22 79.5t-59.5 52.5t-86 32.5t-101.5 24
t-106.5 22.5t-102 31.5t-86 48t-59.5 76.5t-22 111q0 154 94 223t301 69q202 0 293.5 -73t91.5 -234h-147q0 104 -56 150.5t-182 46.5q-128 0 -183 -38.5t-55 -127.5zM508 -94h2q51 0 73.5 -36t22.5 -114q0 -103 -40 -150.5t-124 -47.5v73q38 0 56 26t18 83
q-51 0 -72.5 18.5t-21.5 61.5q0 86 86 86z" />
    <glyph glyph-name="uni021A" unicode="&#x21a;" horiz-adv-x="1280" 
d="M1178 1434v-156h-447v-1278h-180v1278h-449v156h1076zM639 -94h2q51 0 73.5 -36t22.5 -114q0 -103 -40 -150.5t-124 -47.5v73q38 0 56 26t18 83q-51 0 -72.5 18.5t-21.5 61.5q0 86 86 86z" />
    <glyph glyph-name="uni021B" unicode="&#x21b;" horiz-adv-x="825" 
d="M432 299q0 -75 44 -118.5t134 -43.5h133v-137h-186q-142 0 -216.5 75t-74.5 206v622h-164v121h164v244h166v-244h311v-121h-311v-604zM461 -94h2q51 0 73.5 -36t22.5 -114q0 -103 -40 -150.5t-124 -47.5v73q38 0 56 26t18 83q-51 0 -72.5 18.5t-21.5 61.5q0 86 86 86z
" />
    <glyph glyph-name="circumflex" unicode="&#x2c6;" horiz-adv-x="747" 
d="M457 1434l188 -308h-115l-155 213l-158 -213h-115l189 308h166z" />
    <glyph glyph-name="caron" unicode="&#x2c7;" horiz-adv-x="747" 
d="M645 1434l-188 -308h-166l-189 308h115l158 -213l155 213h115z" />
    <glyph glyph-name="breve" unicode="&#x2d8;" horiz-adv-x="849" 
d="M629 1434v-2h116q0 -162 -76.5 -235t-246.5 -73q-169 0 -245.5 73.5t-76.5 234.5h119q0 -109 48 -157t155 -48q110 0 158 47.5t49 157.5h-2z" />
    <glyph glyph-name="dotaccent" unicode="&#x2d9;" horiz-adv-x="436" 
d="M217 1477q60 0 88.5 -27.5t28.5 -85.5q0 -60 -28.5 -87.5t-88.5 -27.5t-87.5 27.5t-27.5 87.5t27.5 86.5t87.5 26.5z" />
    <glyph glyph-name="ring" unicode="&#x2da;" horiz-adv-x="661" 
d="M330 1473q120 0 174.5 -48.5t54.5 -154.5t-54.5 -154.5t-174.5 -48.5t-174 48.5t-54 154.5t54 154.5t174 48.5zM330 1153q73 0 103 27t30 90t-30.5 89.5t-102.5 26.5t-102.5 -26.5t-30.5 -89.5t30.5 -90t102.5 -27z" />
    <glyph glyph-name="ogonek" unicode="&#x2db;" horiz-adv-x="548" 
d="M305 18h96q-117 -71 -166 -177q-42 -93 -7 -151q28 -46 98 -46q30 0 60 9t45 19l15 9v-152q-61 -41 -143 -41q-55 0 -98 20.5t-66 56t-33 80.5t-0.5 96.5t32.5 100.5t66.5 95.5t100.5 80.5z" />
    <glyph glyph-name="tilde" unicode="&#x2dc;" horiz-adv-x="849" 
d="M102 1229q0 106 50 175t124 69q44 0 83 -19.5t66.5 -47.5t52 -56.5t51 -48t53.5 -19.5q35 0 56 34.5t21 96.5h89q0 -106 -51 -175t-124 -69q-44 0 -83 19.5t-66 47.5t-51.5 56.5t-51 48t-53.5 19.5q-35 0 -56.5 -34.5t-21.5 -96.5h-88z" />
    <glyph glyph-name="hungarumlaut" unicode="&#x2dd;" horiz-adv-x="907" 
d="M102 1126l209 308h162l-237 -308h-134zM432 1126l209 308h164l-240 -308h-133z" />
    <glyph glyph-name="Wgrave" unicode="&#x1e80;" horiz-adv-x="2072" 
d="M928 1434h217l305 -1266l340 1266h180l-399 -1434h-232l-311 1266l-295 -1266h-231l-400 1434h181l340 -1266zM1133 1536h-136l-243 246h157z" />
    <glyph glyph-name="wgrave" unicode="&#x1e81;" horiz-adv-x="1738" 
d="M1321 0h-199l-252 899l-252 -899h-198l-338 1024h166l276 -889l250 889h199l241 -889l277 889h166zM975 1126h-141l-259 308h173z" />
    <glyph glyph-name="Wacute" unicode="&#x1e82;" horiz-adv-x="2072" 
d="M928 1434h217l305 -1266l340 1266h180l-399 -1434h-232l-311 1266l-295 -1266h-231l-400 1434h181l340 -1266zM932 1536l215 246h166l-238 -246h-143z" />
    <glyph glyph-name="wacute" unicode="&#x1e83;" horiz-adv-x="1738" 
d="M1321 0h-199l-252 899l-252 -899h-198l-338 1024h166l276 -889l250 889h199l241 -889l277 889h166zM768 1126l227 308h172l-258 -308h-141z" />
    <glyph glyph-name="Wdieresis" unicode="&#x1e84;" horiz-adv-x="2074" 
d="M930 1434h217l303 -1262l342 1262h180l-399 -1434h-232l-311 1266l-295 -1266h-231l-402 1434h183l340 -1266zM844 1729q60 0 88.5 -25t28.5 -80t-28.5 -80.5t-88.5 -25.5t-87.5 25.5t-27.5 80.5t27.5 80t87.5 25zM1223 1729q61 0 88.5 -24.5t27.5 -80.5t-27.5 -81
t-88.5 -25q-60 0 -87.5 25.5t-27.5 80.5t27.5 80t87.5 25z" />
    <glyph glyph-name="wdieresis" unicode="&#x1e85;" horiz-adv-x="1740" 
d="M1321 0h-199l-252 899l-252 -899h-198l-338 1024h166l276 -887l250 887h199l244 -891l276 891h166zM680 1407q61 0 89 -28.5t28 -90.5q0 -61 -28.5 -90t-88.5 -29t-87.5 28.5t-27.5 90.5q0 63 27.5 91t87.5 28zM1044 1407q60 0 87.5 -28.5t27.5 -90.5t-27.5 -90.5
t-87.5 -28.5t-87 28.5t-27 90.5q0 63 27 91t87 28z" />
    <glyph glyph-name="uni1E9E" unicode="&#x1e9e;" horiz-adv-x="1245" 
d="M613 1475q233 0 338.5 -93t105.5 -297q0 -119 -77 -183t-232 -85q195 -23 283.5 -117.5t88.5 -281.5q0 -219 -92 -318.5t-295 -99.5q-109 0 -211 41v129q100 -33 174 -33q136 0 198 69.5t62 221.5q0 162 -93.5 235.5t-299.5 73.5v142q185 0 262.5 51t77.5 174
q0 118 -66 175.5t-214 57.5q-166 0 -241 -79t-75 -252v-1006h-164v1024q0 228 115.5 339.5t354.5 111.5z" />
    <glyph glyph-name="Ygrave" unicode="&#x1ef2;" horiz-adv-x="1329" 
d="M756 580h-2v-580h-172v580l-500 854h201l387 -689l387 689h190zM760 1536h-135l-246 246h160z" />
    <glyph glyph-name="ygrave" unicode="&#x1ef3;" horiz-adv-x="1075" 
d="M504 12l4 13l-447 999h160l357 -799l278 799h158l-381 -1065q-62 -172 -143 -250t-199 -78h-113v121h107q71 0 123 62t96 198zM645 1126h-141l-258 308h172z" />
    <glyph glyph-name="endash" unicode="&#x2013;" horiz-adv-x="1269" 
d="M1167 616v-137h-1065v137h1065z" />
    <glyph glyph-name="emdash" unicode="&#x2014;" horiz-adv-x="1720" 
d="M1618 616v-137h-1516v137h1516z" />
    <glyph glyph-name="quoteleft" unicode="&#x2018;" horiz-adv-x="434" 
d="M205 932q-64 0 -93.5 49t-29.5 156q0 154 50 225.5t159 71.5v-93q-51 0 -73.5 -40.5t-22.5 -131.5q59 0 86 -26t30 -84q3 -66 -22.5 -96.5t-83.5 -30.5z" />
    <glyph glyph-name="quoteright" unicode="&#x2019;" horiz-adv-x="434" 
d="M209 1454q64 0 93.5 -49t29.5 -156q0 -154 -50 -225.5t-159 -71.5v92q51 0 73.5 41t22.5 132q-59 0 -86.5 26t-30.5 84q-3 66 22.5 96.5t84.5 30.5z" />
    <glyph glyph-name="quotesinglbase" unicode="&#x201a;" horiz-adv-x="434" 
d="M209 217q64 0 93.5 -49t29.5 -156q0 -154 -50 -225.5t-159 -71.5v92q51 0 73.5 41t22.5 132q-59 0 -86.5 26t-30.5 84q-3 66 22.5 96.5t84.5 30.5z" />
    <glyph glyph-name="quotedblleft" unicode="&#x201c;" horiz-adv-x="776" 
d="M205 932q-64 0 -93.5 49t-29.5 156q0 154 50 225.5t159 71.5v-93q-51 0 -73.5 -40.5t-22.5 -131.5q59 0 86 -26t30 -84q3 -66 -22.5 -96.5t-83.5 -30.5zM547 932q-64 0 -93.5 49t-29.5 156q0 154 50 225.5t159 71.5v-93q-51 0 -73.5 -40.5t-22.5 -131.5q59 0 86 -26
t30 -84q3 -66 -22.5 -96.5t-83.5 -30.5z" />
    <glyph glyph-name="quotedblright" unicode="&#x201d;" horiz-adv-x="782" 
d="M209 1454q64 0 93.5 -49t29.5 -156q0 -154 -50 -225.5t-159 -71.5v92q51 0 73.5 41t22.5 132q-59 0 -86.5 26t-30.5 84q-3 66 22.5 96.5t84.5 30.5zM557 1454q64 0 93.5 -49t29.5 -156q0 -154 -50 -225.5t-159 -71.5v92q51 0 73.5 41t22.5 132q-59 0 -86 26t-30 84
q-3 66 22.5 96.5t83.5 30.5z" />
    <glyph glyph-name="quotedblbase" unicode="&#x201e;" horiz-adv-x="776" 
d="M209 217q64 0 93.5 -49t29.5 -156q0 -154 -50 -225.5t-159 -71.5v92q51 0 73.5 41t22.5 132q-59 0 -86.5 26t-30.5 84q-3 66 22.5 96.5t84.5 30.5zM551 217q64 0 93.5 -49t29.5 -156q0 -154 -50 -225.5t-159 -71.5v92q51 0 73.5 41t22.5 132q-59 0 -86.5 26t-30.5 84
q-3 66 22.5 96.5t84.5 30.5z" />
    <glyph glyph-name="ellipsis" unicode="&#x2026;" horiz-adv-x="1196" 
d="M217 227q62 0 89.5 -27.5t27.5 -90.5q0 -61 -28.5 -89t-88.5 -28t-87.5 28t-27.5 89q0 63 27.5 90.5t87.5 27.5zM598 227q60 0 87.5 -27.5t27.5 -90.5q0 -61 -27.5 -89t-87.5 -28q-62 0 -89.5 28t-27.5 89q0 63 27.5 90.5t89.5 27.5zM977 227q61 0 89 -28t28 -90
q0 -61 -28.5 -89t-88.5 -28t-87.5 28t-27.5 89q0 63 27.5 90.5t87.5 27.5z" />
    <glyph glyph-name="perthousand" unicode="&#x2030;" horiz-adv-x="2551" 
d="M1329 799q174 0 253 -94.5t79 -303.5t-79.5 -304t-252.5 -95t-251.5 95t-78.5 304t78.5 303.5t251.5 94.5zM1329 115q109 0 157 66.5t48 219.5q0 152 -48 219.5t-157 67.5t-157 -67.5t-48 -219.5q0 -153 48 -219.5t157 -66.5zM2118 799q173 0 252 -94.5t79 -303.5
t-79 -304t-252 -95t-251.5 95t-78.5 304t78.5 303.5t251.5 94.5zM2118 115q109 0 156.5 66.5t47.5 219.5q0 152 -47.5 219.5t-154.5 67.5q-110 0 -158.5 -67.5t-48.5 -219.5q0 -153 48 -219.5t157 -66.5zM432 1454q174 0 253 -94t79 -303t-79.5 -304.5t-252.5 -95.5
q-172 0 -251 95.5t-79 304.5t79 303t251 94zM432 770q110 0 157.5 66.5t47.5 220.5q0 152 -48 219t-155 67q-110 0 -157.5 -66.5t-47.5 -219.5q0 -154 47 -220.5t156 -66.5zM506 -61h-152l901 1556h152z" />
    <glyph glyph-name="guilsinglleft" unicode="&#x2039;" horiz-adv-x="614" 
d="M352 922h160l-242 -390l242 -409h-160l-250 409z" />
    <glyph glyph-name="guilsinglright" unicode="&#x203a;" horiz-adv-x="614" 
d="M102 922h160l250 -390l-250 -409h-160l242 409z" />
    <glyph glyph-name="lira" unicode="&#x20a4;" horiz-adv-x="1366" 
d="M1260 145l2 2v-2v-143h-1139v176q128 48 176.5 122.5t48.5 207.5h-227v102h227v156h-227v102h227v158q0 235 102 342t326 107q221 0 321.5 -107t100.5 -342h-156q0 169 -61.5 245.5t-196.5 76.5q-143 0 -207.5 -76.5t-64.5 -245.5v-158h565v-102h-565v-156h565v-102h-565
q0 -142 -51.5 -226.5t-184.5 -136.5h984z" />
    <glyph glyph-name="Euro" unicode="&#x20ac;" horiz-adv-x="1820" 
d="M1518 492h180q-59 -281 -220 -407t-464 -126q-331 0 -503.5 139.5t-207.5 440.5h-201v102h193q-2 25 -2 76q0 59 2 88h-193v102h201q38 295 210.5 431.5t500.5 136.5q324 0 485.5 -126.5t198.5 -406.5h-180q-31 200 -148.5 288.5t-355.5 88.5q-235 0 -359.5 -98.5
t-158.5 -313.5h653v-102h-666q-2 -29 -2 -90q0 -49 2 -74h584v-102h-575q32 -221 158 -322.5t364 -101.5q227 0 343.5 87.5t160.5 289.5z" />
    <glyph glyph-name="trademark" unicode="&#x2122;" horiz-adv-x="2527" 
d="M1012 1434v-146h-377v-878h-156v878h-377v146h910zM1210 410v1024h217l345 -832l344 832h206v-1024h-155v807l-340 -807h-119l-340 807v-807h-158z" />
    <glyph glyph-name="minus" unicode="&#x2212;" horiz-adv-x="880" 
d="M778 479h-676v137h676v-137z" />
    <glyph glyph-name="approxequal" unicode="&#x2248;" horiz-adv-x="1433" 
d="M102 307v137q67 62 140 89.5t141.5 22.5t139.5 -27.5t139.5 -55.5l137 -66t137 -55t133.5 -26t132.5 24t128.5 92v-135q-86 -81 -181 -104.5t-182.5 -2t-177.5 62.5t-178.5 82t-172.5 63.5t-172 0t-165 -101.5zM102 694v135q85 79 180 102t182 0.5t177.5 -63.5t179 -82
t172.5 -63t172 1.5t166 104.5v-135q-68 -64 -141 -92.5t-141.5 -24.5t-139.5 26t-140 54.5t-137 65.5t-136.5 55.5t-133 27.5t-132 -22.5t-128.5 -89.5z" />
    <glyph glyph-name="notequal" unicode="&#x2260;" horiz-adv-x="1331" 
d="M418 0l102 287h-418v137h467l86 238h-553v137h603l79 225h105l-80 -225h420v-137h-469l-86 -238h555v-137h-604l-103 -287h-104z" />
    <glyph glyph-name="lessequal" unicode="&#x2264;" horiz-adv-x="1024" 
d="M102 0v145h820v-145h-820zM102 1016l820 418v-168l-674 -344l674 -344v-168l-820 417v189z" />
    <glyph glyph-name="greaterequal" unicode="&#x2265;" horiz-adv-x="1024" 
d="M102 0v145h820v-145h-820zM102 1434l820 -418v-189l-820 -417v168l674 344l-674 344v168z" />
    <glyph glyph-name="uniE132" unicode="&#xe132;" horiz-adv-x="962" 
d="M334 0h-166v1024h166v-1024zM451 -231q92 0 136 43t44 118v1094h164v-1112q0 -131 -74 -206t-215 -75h-162v138h107zM143 1126l228 308h172l-258 -308h-142zM604 1126l227 308h173l-259 -308h-141z" />
    <glyph glyph-name="uniE133" unicode="&#xe133;" horiz-adv-x="1742" 
d="M213 1434h180v-1434h-180v1434zM655 430v47h172v-47q0 -168 61.5 -241.5t201.5 -73.5q141 0 202.5 73t61.5 242v1004h180v-1004q0 -243 -105.5 -353t-338.5 -110q-229 0 -332 110t-103 353zM205 1536l213 246h166l-238 -246h-141zM1343 1536l213 246h166l-237 -246h-142z
" />
    <glyph glyph-name="a.alt1" horiz-adv-x="1216" 
d="M541 -20q-230 0 -334.5 126t-104.5 406t104.5 406t334.5 126q250 0 352 -155l27 135h133v-1024h-133l-27 135q-102 -155 -352 -155zM580 117q163 0 237 94t74 301t-74 301t-237 94q-164 0 -239 -94t-75 -301t75 -301t239 -94z" />
    <glyph glyph-name="aacute.alt1" horiz-adv-x="1216" 
d="M541 -20q-230 0 -334.5 126t-104.5 406t104.5 406t334.5 126q250 0 352 -155l27 135h133v-1024h-133l-27 135q-102 -155 -352 -155zM580 117q163 0 237 94t74 301t-74 301t-237 94q-164 0 -239 -94t-75 -301t75 -301t239 -94zM731 1434h172l-258 -308h-141z" />
    <glyph glyph-name="aacutering.alt1" horiz-adv-x="1216" 
d="M541 -20q-230 0 -334.5 126t-104.5 406t104.5 406t334.5 126q250 0 352 -155l27 135h133v-1024h-133l-27 135q-102 -155 -352 -155zM580 117q163 0 237 94t74 301t-74 301t-237 94q-164 0 -239 -94t-75 -301t75 -301t239 -94zM768 1597h131l-156 -159q103 -44 103 -170
q0 -96 -58 -145.5t-172 -49.5q-112 0 -169.5 49.5t-57.5 145.5q0 94 58 143t171 49h31zM621 1159q73 0 102 24.5t29 84.5q0 57 -29.5 81.5t-101.5 24.5q-74 0 -104 -24t-30 -82q0 -59 30.5 -84t103.5 -25z" />
    <glyph glyph-name="abreve.alt1" horiz-adv-x="1216" 
d="M541 -20q-230 0 -334.5 126t-104.5 406t104.5 406t334.5 126q250 0 352 -155l27 135h133v-1024h-133l-27 135q-102 -155 -352 -155zM580 117q163 0 237 94t74 301t-74 301t-237 94q-164 0 -239 -94t-75 -301t75 -301t239 -94zM823 1434h119q0 -161 -76 -234.5t-245 -73.5
q-170 0 -247 73.5t-77 234.5h119q0 -107 49 -156t156 -49q106 0 154 49t48 156z" />
    <glyph glyph-name="acircumflex.alt1" horiz-adv-x="1216" 
d="M541 -20q-230 0 -334.5 126t-104.5 406t104.5 406t334.5 126q250 0 352 -155l27 135h133v-1024h-133l-27 135q-102 -155 -352 -155zM580 117q163 0 237 94t74 301t-74 301t-237 94q-164 0 -239 -94t-75 -301t75 -301t239 -94zM702 1434l189 -308h-115l-155 213l-158 -213
h-115l189 308h165z" />
    <glyph glyph-name="acute.case" horiz-adv-x="583" 
d="M102 1126l213 246h166l-235 -246h-144z" />
    <glyph glyph-name="adieresis.alt1" horiz-adv-x="1216" 
d="M541 -20q-230 0 -334.5 126t-104.5 406t104.5 406t334.5 126q250 0 352 -155l27 135h133v-1024h-133l-27 135q-102 -155 -352 -155zM580 117q163 0 237 94t74 301t-74 301t-237 94q-164 0 -239 -94t-75 -301t75 -301t239 -94zM438 1407q60 0 87.5 -28.5t27.5 -90.5
t-27.5 -90.5t-87.5 -28.5q-61 0 -88.5 28.5t-27.5 90.5q0 63 27.5 91t88.5 28zM801 1407q61 0 89 -28.5t28 -90.5t-28 -90.5t-89 -28.5q-60 0 -87.5 28.5t-27.5 90.5q0 63 27.5 91t87.5 28z" />
    <glyph glyph-name="agrave.alt1" horiz-adv-x="1216" 
d="M541 -20q-230 0 -334.5 126t-104.5 406t104.5 406t334.5 126q250 0 352 -155l27 135h133v-1024h-133l-27 135q-102 -155 -352 -155zM580 117q163 0 237 94t74 301t-74 301t-237 94q-164 0 -239 -94t-75 -301t75 -301t239 -94zM469 1434l227 -308h-141l-258 308h172z" />
    <glyph glyph-name="amacron.alt1" horiz-adv-x="1216" 
d="M541 -20q-230 0 -334.5 126t-104.5 406t104.5 406t334.5 126q250 0 352 -155l27 135h133v-1024h-133l-27 135q-102 -155 -352 -155zM580 117q163 0 237 94t74 301t-74 301t-237 94q-164 0 -239 -94t-75 -301t75 -301t239 -94zM270 1235v111h697v-111h-697z" />
    <glyph glyph-name="aogonek.alt1" horiz-adv-x="1234" 
d="M928 -512q-55 0 -97 20t-65.5 55t-34 79t-2 94t30 99t63 95.5t95.5 81.5l-25 123q-102 -155 -352 -155q-230 0 -334.5 126t-104.5 406t104.5 406t334.5 126q250 0 352 -155l27 135h133v-1024h-56q-109 -77 -147 -181q-33 -91 11 -141q30 -34 89 -34q30 0 60.5 9t45.5 19
l15 9v-152q-61 -41 -143 -41zM578 119q163 0 237 94t74 301t-74 301t-237 94q-164 0 -239 -94t-75 -301t75 -301t239 -94z" />
    <glyph glyph-name="aring.alt1" horiz-adv-x="1216" 
d="M541 -20q-230 0 -334.5 126t-104.5 406t104.5 406t334.5 126q250 0 352 -155l27 135h133v-1024h-133l-27 135q-102 -155 -352 -155zM580 117q163 0 237 94t74 301t-74 301t-237 94q-164 0 -239 -94t-75 -301t75 -301t239 -94zM621 1513q119 0 173 -48t54 -154t-55 -154.5
t-175 -48.5q-118 0 -172.5 48.5t-54.5 154.5t55 154t175 48zM621 1194q72 0 101.5 27t29.5 90t-29.5 89.5t-101.5 26.5q-73 0 -103.5 -26.5t-30.5 -89.5t30.5 -90t103.5 -27z" />
    <glyph glyph-name="atilde.alt1" horiz-adv-x="1216" 
d="M541 -20q-230 0 -334.5 126t-104.5 406t104.5 406t334.5 126q250 0 352 -155l27 135h133v-1024h-133l-27 135q-102 -155 -352 -155zM580 117q163 0 237 94t74 301t-74 301t-237 94q-164 0 -239 -94t-75 -301t75 -301t239 -94zM297 1178q0 106 50.5 173.5t123.5 67.5
q44 0 83 -19.5t66 -47.5t51.5 -56t51 -47.5t53.5 -19.5q35 0 56.5 35.5t21.5 97.5h88q0 -106 -50 -175t-124 -69q-44 0 -83 19.5t-66 48t-51.5 56.5t-51 47.5t-53.5 19.5q-34 0 -56 -35.5t-22 -95.5h-88z" />
    <glyph glyph-name="breve.case" horiz-adv-x="849" 
d="M621 1372h127q0 -129 -77 -187.5t-247 -58.5q-169 0 -245.5 58.5t-76.5 187.5h125q0 -79 47 -115t150 -36t150 36t47 115z" />
    <glyph glyph-name="caron.case" horiz-adv-x="774" 
d="M672 1372l-203 -246h-164l-203 246h125l160 -162l158 162h127z" />
    <glyph glyph-name="circumflex.case" horiz-adv-x="774" 
d="M469 1372l203 -246h-127l-158 162l-160 -162h-125l203 246h164z" />
    <glyph glyph-name="commaaccent" horiz-adv-x="389" 
d="M188 -94h2q51 0 74 -36t23 -114q0 -103 -40 -150.5t-124 -47.5v73q38 0 56 26t18 83q-51 0 -73 18.5t-22 61.5q0 86 86 86z" />
    <glyph glyph-name="dieresis.case" horiz-adv-x="815" 
d="M217 1452q60 0 88.5 -25.5t28.5 -80.5t-28.5 -80t-88.5 -25t-87.5 25t-27.5 80t27.5 80.5t87.5 25.5zM596 1452q61 0 89 -25t28 -81q0 -55 -27.5 -80t-89.5 -25q-60 0 -87.5 25t-27.5 80t27.5 80.5t87.5 25.5z" />
    <glyph glyph-name="dotaccent.case" horiz-adv-x="436" 
d="M217 1350q60 0 88.5 -26t28.5 -81t-28 -79.5t-89 -24.5q-60 0 -87.5 24.5t-27.5 79.5q0 56 27.5 81.5t87.5 25.5z" />
    <glyph glyph-name="grave.case" horiz-adv-x="583" 
d="M260 1372l221 -246h-135l-244 246h158z" />
    <glyph glyph-name="hungarumlaut.case" horiz-adv-x="892" 
d="M102 1126l205 246h160l-229 -246h-136zM426 1126l207 246h158l-230 -246h-135z" />
    <glyph glyph-name="tilde.case" horiz-adv-x="849" 
d="M102 1188q0 103 48.5 158t125.5 55q44 0 83 -14.5t66.5 -35t52.5 -40.5t53 -34.5t57 -14.5q37 0 58.5 27.5t21.5 82.5h80q0 -103 -49.5 -158t-125.5 -55q-44 0 -82.5 14.5t-66 35t-52.5 40.5t-53.5 34.5t-58.5 14.5q-35 0 -56.5 -27.5t-21.5 -82.5h-80z" />
    </font>
</defs>
</svg>
