<?xml version="1.0" standalone="no"?>
<!DOCTYPE svg PUBLIC "-//W3C//DTD SVG 1.1//EN" "http://www.w3.org/Graphics/SVG/1.1/DTD/svg11.dtd" >
<svg xmlns="http://www.w3.org/2000/svg" xmlns:xlink="http://www.w3.org/1999/xlink" version="1.1">
<metadata>
Created by FontForge 20170731 at Thu Feb 18 17:03:28 2021
 By Aleksey,,,
Copyright (c) 2017 by Alexander Slobzheninov. All rights reserved.
</metadata>
<defs>
<font id="FivoSans-Medium" horiz-adv-x="1167" >
  <font-face 
    font-family="Fivo Sans Med"
    font-weight="450"
    font-stretch="normal"
    units-per-em="2048"
    panose-1="0 0 0 0 0 0 0 0 0 0"
    ascent="1638"
    descent="-410"
    x-height="1024"
    cap-height="1434"
    bbox="-123 -514 2513 1966"
    underline-thickness="102"
    underline-position="1894"
    unicode-range="U+000D-E133"
  />
<missing-glyph horiz-adv-x="409" 
 />
    <glyph glyph-name=".notdef" horiz-adv-x="409" 
 />
    <glyph glyph-name=".null" horiz-adv-x="0" 
 />
    <glyph glyph-name="nonmarkingreturn" horiz-adv-x="682" 
 />
    <glyph glyph-name="NULL" horiz-adv-x="1603" 
d="M184 1434h1235v-1434h-1235v1434zM403 1227v-1020h795v1020h-795z" />
    <glyph glyph-name="NULL" horiz-adv-x="1603" 
d="M184 1434h1235v-1434h-1235v1434zM403 1227v-1020h795v1020h-795z" />
    <glyph glyph-name="CR" unicode="&#xd;" horiz-adv-x="512" 
 />
    <glyph glyph-name="space" unicode=" " horiz-adv-x="614" 
 />
    <glyph glyph-name="exclam" unicode="!" horiz-adv-x="577" 
d="M287 268q77 0 112 -34.5t35 -110.5q0 -74 -35.5 -108.5t-111.5 -34.5q-75 0 -109.5 34t-34.5 109q0 76 34.5 110.5t109.5 34.5zM166 1434h244v-390l-48 -528h-149l-47 528v390z" />
    <glyph glyph-name="quotedbl" unicode="&#x22;" horiz-adv-x="720" 
d="M291 1434v-287l-25 -399h-160l-24 399v287h209zM639 1434v-287l-23 -399h-161l-25 399v287h209z" />
    <glyph glyph-name="numbersign" unicode="#" horiz-adv-x="1533" 
d="M799 0l57 395h-268l-58 -395h-172l58 395h-314v168h336l37 262h-313v168h336l63 441h172l-63 -441h268l63 441h175l-64 -441h320v-168h-342l-37 -262h319v-168h-342l-57 -395h-174zM918 825h-269l-37 -262h269z" />
    <glyph glyph-name="dollar" unicode="$" horiz-adv-x="1331" 
d="M573 -205v166q-247 15 -359 122t-112 325h232q0 -145 77.5 -208t254.5 -63q170 0 243.5 54t73.5 176q0 58 -29.5 101.5t-79 70t-114 47t-136 37.5t-143 36t-136 48.5t-114 69t-79 102.5t-29.5 145q0 216 107.5 322.5t342.5 121.5v170h185v-170q234 -15 342 -122t108 -324
h-233q0 143 -72.5 206.5t-236.5 63.5q-160 0 -229.5 -53t-69.5 -176q0 -50 29.5 -87.5t79.5 -60.5t114.5 -41.5t136 -36t143 -37.5t136 -52t114.5 -75.5t79.5 -111.5t29.5 -155q0 -216 -113 -323t-358 -122v-166h-185z" />
    <glyph glyph-name="percent" unicode="%" horiz-adv-x="1787" 
d="M424 1454q181 0 262.5 -95t81.5 -306q0 -212 -81 -307t-263 -95q-180 0 -261 95t-81 307q0 211 81 306t261 95zM424 793q91 0 130.5 61t39.5 199q0 137 -39.5 197.5t-128.5 60.5q-92 0 -132 -60.5t-40 -197.5q0 -138 39.5 -199t130.5 -61zM549 -61h-211l901 1556h211z
M1364 799q180 0 261 -95.5t81 -306.5q0 -212 -81 -306.5t-261 -94.5q-181 0 -262.5 94.5t-81.5 306.5q0 211 82 306.5t262 95.5zM1364 137q91 0 130.5 61t39.5 199q0 137 -39.5 197.5t-130.5 60.5t-130.5 -60.5t-39.5 -197.5q0 -138 39.5 -199t130.5 -61z" />
    <glyph glyph-name="ampersand" unicode="&#x26;" horiz-adv-x="1605" 
d="M1565 0h-297l-152 141q-195 -182 -512 -182q-250 0 -376 103t-126 298q0 77 27 144.5t78.5 121.5t107.5 94.5t131 82.5q-159 178 -159 313q0 359 420 359q206 0 302.5 -78.5t96.5 -233.5q0 -52 -19.5 -99t-49 -83t-78 -74t-91 -63.5t-104.5 -59.5l344 -338q57 117 76 269
h184q-22 -237 -121 -408zM618 141q96 0 191.5 35.5t165.5 99.5l-412 404q-108 -66 -166.5 -134.5t-58.5 -156.5q0 -120 78.5 -184t201.5 -64zM492 1141q0 -97 145 -242q65 34 105.5 57.5t82 55.5t61 65t19.5 70q0 89 -48.5 129.5t-154.5 40.5q-110 0 -160 -42t-50 -134z" />
    <glyph glyph-name="quotesingle" unicode="'" horiz-adv-x="372" 
d="M291 1434v-287l-25 -399h-160l-24 399v287h209z" />
    <glyph glyph-name="parenleft" unicode="(" horiz-adv-x="593" 
d="M367 -410q-24 40 -35 58.5t-43.5 82t-52 113t-48.5 134t-45 163t-28.5 182.5t-12.5 209q0 83 6.5 161.5t20.5 148t27.5 128t36.5 117t38 97t41 86t36.5 67.5t34 57.5t24.5 39.5h186q-74 -124 -107 -195q-147 -318 -147 -707q0 -517 254 -942h-186z" />
    <glyph glyph-name="parenright" unicode=")" horiz-adv-x="593" 
d="M227 -410h-186q254 425 254 942q0 137 -19.5 267.5t-44.5 218t-64 177.5t-61.5 129.5t-53.5 91.5q-8 12 -11 18h186q1 -2 24.5 -39.5t34 -57.5t36.5 -67.5t41 -86t38 -97t36.5 -117t27.5 -128t20.5 -148t6.5 -161.5q0 -105 -12.5 -209t-28.5 -182.5t-45 -163t-48.5 -134
t-52 -113t-43.5 -82t-35 -58.5z" />
    <glyph glyph-name="asterisk" unicode="*" horiz-adv-x="751" 
d="M319 819v123l13 82v23l-23 -13l-63 -51l-109 -61l-55 100l106 63l78 29l19 10l-21 13l-78 30l-104 62l55 100l107 -61l65 -51l23 -13v25l-13 82v123h113v-123l-12 -82v-25l22 13l66 53l106 59l56 -100l-107 -62l-76 -30l-20 -13l18 -10l78 -31l107 -61l-58 -100l-106 61
l-64 51l-22 13v-23l12 -82v-123h-113z" />
    <glyph glyph-name="plus" unicode="+" horiz-adv-x="1228" 
d="M1147 616v-180h-438v-436h-187v436h-440v180h440v408h187v-408h438z" />
    <glyph glyph-name="comma" unicode="," horiz-adv-x="452" 
d="M212 266q42 0 72.5 -15t46.5 -36t25 -55.5t11 -62.5t2 -68q0 -182 -64.5 -265t-204.5 -83v116q64 0 92.5 43t28.5 140q-72 0 -105.5 33t-33.5 106q0 75 28 111t102 36z" />
    <glyph glyph-name="hyphen" unicode="-" horiz-adv-x="839" 
d="M758 457h-676v180h676v-180z" />
    <glyph glyph-name="period" unicode="." horiz-adv-x="454" 
d="M225 268q77 0 112.5 -35t35.5 -110t-35.5 -109t-112.5 -34q-75 0 -109 34t-34 109q0 76 34 110.5t109 34.5z" />
    <glyph glyph-name="slash" unicode="/" horiz-adv-x="782" 
d="M532 1434h209l-491 -1434h-209z" />
    <glyph glyph-name="zero" unicode="0" horiz-adv-x="1437" 
d="M719 1475q323 0 469.5 -180.5t146.5 -577.5t-146.5 -577.5t-469.5 -180.5q-324 0 -470.5 180t-146.5 578q0 399 146.5 578.5t470.5 179.5zM719 139q195 0 283 137t88 441t-88 440.5t-283 136.5q-197 0 -285 -136.5t-88 -440.5t88 -441t285 -137z" />
    <glyph glyph-name="one" unicode="1" horiz-adv-x="745" 
d="M82 1253v181h479v-1434h-233v1253h-246z" />
    <glyph glyph-name="two" unicode="2" horiz-adv-x="1198" 
d="M418 180h678v-180h-1014v147q90 80 207 175t193.5 155.5t159.5 135t131 133.5t79 130t31 144q0 146 -63.5 210t-209.5 64t-210 -78t-64 -253h-234q0 269 120.5 390.5t387.5 121.5q265 0 385.5 -108.5t120.5 -346.5q0 -59 -15.5 -116t-41 -105.5t-68.5 -101.5t-85.5 -96
t-106 -99t-117 -99.5t-130 -107.5t-134.5 -115z" />
    <glyph glyph-name="three" unicode="3" horiz-adv-x="1304" 
d="M621 662h-76v167h76q163 0 237 54t74 172q0 128 -68 183.5t-223 55.5q-154 0 -221.5 -72.5t-67.5 -238.5h-209q0 258 118.5 375t379.5 117q262 0 381 -97t119 -311q0 -63 -14.5 -113.5t-38 -82t-51.5 -55t-56 -34t-51.5 -16.5t-37.5 -7l-15 -1q7 0 18.5 -1.5t45.5 -9
t64.5 -20.5t68 -39.5t64.5 -62t45.5 -92t18.5 -125.5q0 -235 -133.5 -342t-427.5 -107q-293 0 -426 121.5t-133 390.5h221q0 -175 79.5 -253.5t258.5 -78.5q174 0 251 63.5t77 205.5q0 132 -83 193t-265 61z" />
    <glyph glyph-name="four" unicode="4" horiz-adv-x="1349" 
d="M797 1434h266v-879h143v-180h-143v-375h-234v375h-747v213zM289 555h540v645z" />
    <glyph glyph-name="five" unicode="5" horiz-adv-x="1282" 
d="M459 1253v2l-58 -337q101 65 285 65q259 0 376.5 -121.5t117.5 -390.5t-134 -390.5t-430 -121.5q-253 0 -375 107t-139 344h209q15 -143 90.5 -207t227.5 -64q169 0 244 78.5t75 253.5t-73.5 253.5t-237.5 78.5q-132 0 -199 -45t-90 -148h-196l137 824h788v-181h-618z
" />
    <glyph glyph-name="six" unicode="6" horiz-adv-x="1304" 
d="M102 696q0 409 133.5 594t426.5 185q220 0 338 -97.5t161 -312.5h-221q-31 129 -95.5 185.5t-182.5 56.5q-176 0 -252 -126.5t-76 -414.5q0 5 1.5 12.5t11.5 30t24.5 43t45 45.5t70.5 43t103.5 30.5t140.5 12.5q239 0 355 -122.5t116 -385.5q0 -272 -128 -394t-412 -122
q-158 0 -265 42.5t-172.5 135t-94 227.5t-28.5 332zM662 803q-161 0 -234.5 -79.5t-73.5 -252.5t73.5 -252.5t234.5 -79.5q162 0 234.5 78.5t72.5 253.5t-72.5 253.5t-234.5 78.5z" />
    <glyph glyph-name="seven" unicode="7" horiz-adv-x="1132" 
d="M1051 1286l-615 -1286h-248l613 1253h-719v181h969v-148z" />
    <glyph glyph-name="eight" unicode="8" horiz-adv-x="1366" 
d="M162 1067q0 214 124 311t396 97q273 0 396.5 -97t123.5 -311q0 -228 -176 -311q122 -44 180 -133.5t58 -229.5q0 -227 -138 -330.5t-444 -103.5q-304 0 -442 103.5t-138 330.5q0 140 57.5 229.5t178.5 133.5q-176 83 -176 311zM680 139q184 0 266 62.5t82 199.5
q0 139 -81 200t-267 61q-184 0 -266 -61.5t-82 -199.5t82 -200t266 -62zM682 1294q-158 0 -227.5 -55t-69.5 -178q0 -124 69 -178t228 -54t229 54t70 178q0 123 -70 178t-229 55z" />
    <glyph glyph-name="nine" unicode="9" horiz-adv-x="1304" 
d="M1202 737q0 -409 -133 -593.5t-428 -184.5q-218 0 -336.5 97.5t-161.5 312.5h222q31 -130 94.5 -186t181.5 -56q176 0 252 126t78 415q0 -5 -2 -12.5t-11.5 -30t-24.5 -43t-45.5 -45.5t-70.5 -43t-103.5 -30.5t-140.5 -12.5q-240 0 -355.5 122t-115.5 385q0 271 128 394
t411 123q158 0 265 -42.5t173 -135t94.5 -228t28.5 -332.5zM641 631q161 0 234 79t73 253q0 173 -73 252t-234 79q-163 0 -235 -78t-72 -253t73 -253.5t234 -78.5z" />
    <glyph glyph-name="colon" unicode=":" horiz-adv-x="454" 
d="M227 268q77 0 111.5 -34.5t34.5 -110.5q0 -74 -35 -108.5t-111 -34.5t-110.5 34t-34.5 109q0 77 34 111t111 34zM227 1032q77 0 111.5 -34.5t34.5 -110.5q0 -74 -35 -109t-111 -35t-110.5 34.5t-34.5 109.5q0 77 34 111t111 34z" />
    <glyph glyph-name="semicolon" unicode=";" horiz-adv-x="454" 
d="M227 1032q77 0 111.5 -34.5t34.5 -110.5q0 -74 -35 -109t-111 -35t-110.5 34.5t-34.5 109.5q0 77 34 111t111 34zM214 268q42 0 72 -15t46.5 -36.5t25.5 -56t11 -63t2 -68.5q0 -182 -65.5 -265t-205.5 -83v116q63 0 92 43.5t29 139.5q-72 0 -105.5 33t-33.5 106
q0 149 132 149z" />
    <glyph glyph-name="less" unicode="&#x3c;" horiz-adv-x="983" 
d="M82 637l819 387v-221l-616 -291l616 -291v-221l-819 387v250z" />
    <glyph glyph-name="equal" unicode="=" horiz-adv-x="1325" 
d="M1243 440v-180h-1161v180h1161zM1243 825v-180h-1161v180h1161z" />
    <glyph glyph-name="greater" unicode="&#x3e;" horiz-adv-x="983" 
d="M82 1024l819 -387v-250l-819 -387v221l616 291l-616 291v221z" />
    <glyph glyph-name="question" unicode="?" horiz-adv-x="1110" 
d="M537 268q75 0 110 -34.5t35 -110.5q0 -74 -35 -108.5t-110 -34.5q-77 0 -111.5 34t-34.5 109q0 76 34.5 110.5t111.5 34.5zM430 494q0 84 19.5 148.5t50.5 104t68.5 70.5t75 55.5t68.5 51.5t50.5 67.5t19.5 93.5q0 109 -56.5 159t-182.5 50t-184 -69t-58 -221h-219
q0 248 112 359.5t361 111.5q247 0 360 -93t113 -297q0 -75 -22 -132t-57.5 -92t-78 -63.5t-85.5 -55t-78.5 -57t-57.5 -79t-22 -112.5h-197z" />
    <glyph glyph-name="at" unicode="@" horiz-adv-x="1775" 
d="M1282 942v-553q0 -108 23 -156.5t75 -48.5q63 0 91 78t28 250q0 349 -140 505.5t-452 156.5q-334 0 -483.5 -156.5t-149.5 -505.5q0 -337 129.5 -489t415.5 -152q189 0 330 100v-172q-48 -32 -132 -58t-196 -26q-377 -1 -548 189t-171 608q0 428 191.5 622.5t613.5 194.5
q402 0 584 -194t182 -623q0 -245 -72 -358t-221 -113q-194 0 -254 152q-86 -111 -290 -111q-198 0 -288.5 102.5t-90.5 327.5q0 236 90.5 343.5t290.5 107.5q177 0 278 -125l31 104h135zM877 225q117 0 170 67.5t53 219.5q0 157 -52.5 226t-170.5 69q-124 0 -179 -69
t-55 -226q0 -153 54.5 -220t179.5 -67z" />
    <glyph glyph-name="A" unicode="A" horiz-adv-x="1437" 
d="M1106 0l-102 322h-578l-107 -322h-258l492 1434h356l467 -1434h-270zM719 1208l-234 -706h461z" />
    <glyph glyph-name="B" unicode="B" horiz-adv-x="1413" 
d="M1034 758q6 -1 16 -3t38.5 -12.5t55 -25t58.5 -42t54.5 -61.5t38.5 -86.5t16 -113.5q0 -217 -126.5 -315.5t-404.5 -98.5h-596v1434h584q252 0 366.5 -89t114.5 -284q0 -54 -12 -100t-31 -76t-41.5 -54t-45.5 -37t-42 -22t-31 -12zM743 180q158 0 228.5 55.5t70.5 178.5
q0 130 -71 189t-228 59h-303v-482h303zM440 1253v-424h291q131 0 190.5 52t59.5 166q0 109 -59 157.5t-191 48.5h-291z" />
    <glyph glyph-name="C" unicode="C" horiz-adv-x="1556" 
d="M1198 475h256q-71 -271 -225.5 -393.5t-427.5 -122.5q-366 0 -532.5 180.5t-166.5 577.5t166.5 577.5t532.5 180.5q297 0 451.5 -123t201.5 -394h-256q-40 166 -132 238t-265 72q-226 0 -328 -130t-102 -421t102 -421t328 -130q163 0 254.5 71.5t142.5 237.5z" />
    <glyph glyph-name="D" unicode="D" horiz-adv-x="1499" 
d="M1397 717q0 -376 -163.5 -546.5t-524.5 -170.5h-525v1434h525q361 0 524.5 -170.5t163.5 -546.5zM698 1239h-258v-1044h258q226 0 327 123t101 399t-101 399t-327 123z" />
    <glyph glyph-name="E" unicode="E" horiz-adv-x="1261" 
d="M1180 1239h-740v-397h658v-193h-658v-454h740v-195h-996v1434h996v-195z" />
    <glyph glyph-name="F" unicode="F" horiz-adv-x="1241" 
d="M1180 1239h-740v-397h658v-193h-658v-649h-256v1434h996v-195z" />
    <glyph glyph-name="G" unicode="G" horiz-adv-x="1576" 
d="M809 629v180h666v-92q0 -397 -158.5 -577.5t-507.5 -180.5q-372 0 -539.5 180t-167.5 578t167.5 578t539.5 180q287 0 439.5 -117t205.5 -375h-246q-35 151 -129.5 218t-269.5 67q-232 0 -335 -129.5t-103 -421.5t103 -421.5t335 -129.5q223 0 321.5 108.5t98.5 354.5
h-420z" />
    <glyph glyph-name="H" unicode="H" horiz-adv-x="1536" 
d="M1094 1434h258v-1434h-258v662h-654v-662h-256v1434h256v-568h654v568z" />
    <glyph glyph-name="I" unicode="I" horiz-adv-x="624" 
d="M184 1434h256v-1434h-256v1434z" />
    <glyph glyph-name="J" unicode="J" horiz-adv-x="1179" 
d="M82 430v59h244v-59q0 -140 51 -202t166 -62q116 0 166.5 61.5t50.5 202.5v1004h256v-1004q0 -242 -112 -350.5t-361 -108.5q-243 0 -352 108.5t-109 350.5z" />
    <glyph glyph-name="K" unicode="K" horiz-adv-x="1404" 
d="M440 1434v-596l549 596h314l-641 -697l681 -737h-313l-590 637v-637h-256v1434h256z" />
    <glyph glyph-name="L" unicode="L" horiz-adv-x="1179" 
d="M1098 207v-207h-914v1434h256v-1227h658z" />
    <glyph glyph-name="M" unicode="M" horiz-adv-x="1888" 
d="M184 0v1434h348l416 -1069l418 1069h338v-1434h-246v1104l-434 -1104h-162l-434 1104v-1104h-244z" />
    <glyph glyph-name="N" unicode="N" horiz-adv-x="1560" 
d="M1130 1434h246v-1434h-303l-645 1100v-1100h-244v1434h301l645 -1100v1100z" />
    <glyph glyph-name="O" unicode="O" horiz-adv-x="1617" 
d="M809 1475q371 0 539 -180.5t168 -577.5t-168 -577.5t-539 -180.5q-372 0 -539.5 180t-167.5 578t167.5 578t539.5 180zM809 1268q-232 0 -335 -129.5t-103 -421.5t103 -421.5t335 -129.5t335 129.5t103 421.5t-103 421.5t-335 129.5z" />
    <glyph glyph-name="P" unicode="P" horiz-adv-x="1392" 
d="M1311 979q0 -212 -128 -334.5t-395 -122.5h-348v-522h-256v1434h604q267 0 395 -122.5t128 -332.5zM1053 979q0 129 -67 194.5t-210 65.5h-336v-522h336q143 0 210 66t67 196z" />
    <glyph glyph-name="Q" unicode="Q" horiz-adv-x="1617" 
d="M807 1475q369 0 537.5 -180.5t168.5 -577.5q0 -437 -202 -613l205 -247h-238l-127 153q-137 -51 -342 -51q-372 0 -539.5 180t-167.5 578t167.5 578t537.5 180zM1245 717q0 292 -103 422.5t-335 130.5t-335 -129.5t-103 -421.5t103 -421.5t335 -129.5q111 0 190 27
l-295 358h238l207 -252q98 130 98 416z" />
    <glyph glyph-name="R" unicode="R" horiz-adv-x="1458" 
d="M791 535h-351v-535h-256v1434h633q136 0 237.5 -33.5t163 -95t91.5 -143t30 -183.5q0 -342 -301 -420l318 -559h-273zM440 717h365q278 0 278 262q0 129 -67.5 194.5t-210.5 65.5h-365v-522z" />
    <glyph glyph-name="S" unicode="S" horiz-adv-x="1331" 
d="M367 1065q0 -50 29.5 -87.5t79.5 -60.5t114.5 -41.5t136 -36t143 -37.5t136 -52t114.5 -75.5t79.5 -111.5t29.5 -155q0 -235 -134 -342t-429 -107q-296 0 -430 107.5t-134 343.5h232q0 -145 77.5 -208t254.5 -63q170 0 243.5 54t73.5 176q0 58 -29.5 101.5t-79 70
t-114 47t-136 37.5t-143 36t-136 48.5t-114 69t-79 102.5t-29.5 145q0 235 129 342t414 107q284 0 413 -107.5t129 -343.5h-233q0 143 -72.5 206.5t-236.5 63.5q-160 0 -229.5 -53t-69.5 -176z" />
    <glyph glyph-name="T" unicode="T" horiz-adv-x="1292" 
d="M1210 1434v-207h-436v-1227h-256v1227h-436v207h1128z" />
    <glyph glyph-name="U" unicode="U" horiz-adv-x="1495" 
d="M164 524v910h256v-910q0 -189 77.5 -273.5t250.5 -84.5q172 0 248.5 84.5t76.5 273.5v910h258v-910q0 -296 -138.5 -430.5t-444.5 -134.5q-307 0 -445.5 134t-138.5 431z" />
    <glyph glyph-name="V" unicode="V" horiz-adv-x="1425" 
d="M319 1434l394 -1260l393 1260h258l-467 -1434h-369l-467 1434h258z" />
    <glyph glyph-name="W" unicode="W" horiz-adv-x="2093" 
d="M893 1434h307l260 -1194l293 1194h258l-377 -1434h-331l-267 1196l-245 -1196h-332l-377 1434h258l293 -1194z" />
    <glyph glyph-name="X" unicode="X" horiz-adv-x="1402" 
d="M367 1434l340 -549l344 549h270l-447 -697l467 -737h-282l-354 590l-371 -590h-273l465 737l-444 697h285z" />
    <glyph glyph-name="Y" unicode="Y" horiz-adv-x="1361" 
d="M809 563v-563h-244v563l-504 871h283l344 -633l342 633h270z" />
    <glyph glyph-name="Z" unicode="Z" horiz-adv-x="1284" 
d="M383 195h819v-195h-1120v162l799 1077h-779v195h1080v-162z" />
    <glyph glyph-name="bracketleft" unicode="[" horiz-adv-x="647" 
d="M184 1434h420v-181h-225v-1482h227v-181h-422v1844z" />
    <glyph glyph-name="backslash" unicode="\" horiz-adv-x="782" 
d="M41 1434h209l491 -1434h-209z" />
    <glyph glyph-name="bracketright" unicode="]" horiz-adv-x="647" 
d="M41 1434h422v-1844h-422v181h225v1482h-225v181z" />
    <glyph glyph-name="asciicircum" unicode="^" horiz-adv-x="1003" 
d="M623 1372l299 -717h-187l-233 559l-234 -559h-186l299 717h242z" />
    <glyph glyph-name="underscore" unicode="_" horiz-adv-x="1064" 
d="M1065 0v-180h-1065v180h1065z" />
    <glyph glyph-name="grave" unicode="`" horiz-adv-x="614" 
d="M319 1434l213 -308h-190l-260 308h237z" />
    <glyph glyph-name="a" unicode="a" horiz-adv-x="1126" 
d="M791 102q-96 -122 -330 -122q-199 0 -289 76t-90 243q0 183 113 265.5t364 82.5h211v49q0 109 -50 157t-163 48q-115 0 -164 -42.5t-49 -141.5h-221q0 172 104 249.5t336 77.5q229 0 335 -89t106 -283v-672h-185zM770 506h-166q-50 0 -86 -3t-77.5 -14t-67 -31.5
t-43 -57.5t-17.5 -89q0 -89 49 -126.5t160 -37.5q123 0 182.5 58.5t65.5 185.5v115z" />
    <glyph glyph-name="b" unicode="b" horiz-adv-x="1228" 
d="M705 -20v2q-239 0 -345 135l-32 -115h-185v1434h232v-508q104 116 330 116q232 0 337 -126t105 -406t-105 -406t-337 -126zM645 162q141 0 204.5 83.5t63.5 268.5t-63.5 268.5t-204.5 83.5t-205.5 -84t-64.5 -268t64.5 -268t205.5 -84z" />
    <glyph glyph-name="c" unicode="c" 
d="M852 367h233q-26 -203 -140 -295t-341 -92q-275 0 -398.5 126t-123.5 406t123.5 406t398.5 126q227 0 341 -92t140 -295h-233q-20 108 -79.5 157.5t-168.5 49.5q-152 0 -221.5 -84t-69.5 -268t69.5 -268t221.5 -84q109 0 167.5 49t80.5 158z" />
    <glyph glyph-name="d" unicode="d" horiz-adv-x="1228" 
d="M866 115q-106 -135 -344 -135q-232 0 -336 126t-104 406t104 406t336 126q226 0 330 -116v506h233v-1434h-184zM584 160q141 0 204.5 83.5t63.5 268.5t-63.5 268.5t-204.5 83.5t-206 -84t-65 -268t65 -268t206 -84z" />
    <glyph glyph-name="e" unicode="e" 
d="M1085 418h-774q13 -148 78.5 -215.5t194.5 -67.5q103 0 158 40.5t81 135.5h221q-35 -173 -144.5 -252t-315.5 -79q-264 0 -383 126t-119 406t119 406t383 126q263 0 382 -129.5t119 -416.5v-80zM582 889q-135 0 -201.5 -78.5t-73.5 -251.5h543q0 176 -63 253t-205 77z
" />
    <glyph glyph-name="f" unicode="f" horiz-adv-x="860" 
d="M625 1253q-129 0 -129 -116v-113h303v-156h-303v-868h-234v868h-180v156h180v113q0 138 78.5 217.5t222.5 79.5h236v-181h-174z" />
    <glyph glyph-name="g" unicode="g" horiz-adv-x="1228" 
d="M522 -20q-231 0 -335.5 127t-104.5 407t104 405t336 125q244 0 348 -139l31 119h184v-922q0 -279 -119 -405.5t-382 -126.5q-213 0 -322.5 79t-138.5 253h219q22 -95 75 -135.5t154 -40.5q149 0 215 79t66 258v33q-104 -116 -330 -116zM584 162q143 0 205.5 82.5
t62.5 269.5q0 186 -63 269t-205 83q-143 0 -207 -83t-64 -269q0 -187 63.5 -269.5t207.5 -82.5z" />
    <glyph glyph-name="h" unicode="h" horiz-adv-x="1187" 
d="M143 0h-2v1434h232v-492q96 102 297 102q206 0 299.5 -116.5t93.5 -374.5v-553h-234v553q0 166 -51 238.5t-168 72.5q-126 0 -181.5 -73t-55.5 -238v-553h-230z" />
    <glyph glyph-name="i" unicode="i" horiz-adv-x="577" 
d="M406 0h-234v1024h234v-1024zM289 1464q75 0 110 -33t35 -104q0 -72 -35.5 -105.5t-111.5 -33.5q-75 0 -109.5 33.5t-34.5 105.5t34.5 104.5t111.5 32.5z" />
    <glyph glyph-name="j" unicode="j" horiz-adv-x="569" 
d="M12 -188q74 0 113 38t39 103v1071h233v-1096q0 -138 -78.5 -217.5t-222.5 -79.5h-219v181h135zM281 1464q76 0 110.5 -33t34.5 -104q0 -72 -34.5 -105.5t-110.5 -33.5q-75 0 -110.5 33.5t-35.5 105.5t35.5 104.5t110.5 32.5z" />
    <glyph glyph-name="k" unicode="k" horiz-adv-x="1142" 
d="M375 1434v-830l409 420h277l-477 -492l518 -532h-277l-450 461v-461h-232v1434h232z" />
    <glyph glyph-name="l" unicode="l" horiz-adv-x="518" 
d="M143 0v1434h232v-1434h-232z" />
    <glyph glyph-name="m" unicode="m" horiz-adv-x="1759" 
d="M373 553v-553h-230v1024h185l34 -131q80 149 293 149q218 0 297 -165q83 167 320 167q192 0 278 -116.5t86 -374.5v-553h-233v553q0 48 -3 85t-14.5 82t-31 74.5t-56 49.5t-86.5 20q-110 0 -158 -73t-48 -238v-553h-234v553q0 165 -44.5 238t-145.5 73
q-110 0 -159.5 -73.5t-49.5 -237.5z" />
    <glyph glyph-name="n" unicode="n" horiz-adv-x="1187" 
d="M358 926q95 118 314 118q206 0 299.5 -116.5t93.5 -374.5v-553h-234v553q0 166 -51 238.5t-168 72.5q-125 0 -181 -73.5t-56 -237.5v-553h-232v1024h185z" />
    <glyph glyph-name="o" unicode="o" horiz-adv-x="1208" 
d="M604 1044q274 0 398 -126t124 -406t-124 -406t-398 -126q-275 0 -398.5 126t-123.5 406t123.5 406t398.5 126zM313 512q0 -186 68.5 -269t222.5 -83q153 0 221 83t68 269t-68 269t-221 83q-155 0 -223 -82t-68 -270z" />
    <glyph glyph-name="p" unicode="p" horiz-adv-x="1228" 
d="M705 1044v3q232 0 337 -126.5t105 -406.5t-105 -407t-337 -127q-224 0 -330 118v-508h-232v1434h185l32 -115q106 135 345 135zM645 866q-141 0 -205.5 -84t-64.5 -268t64.5 -268t205.5 -84t204.5 83.5t63.5 268.5t-63.5 268.5t-204.5 83.5z" />
    <glyph glyph-name="q" unicode="q" horiz-adv-x="1228" 
d="M82 512h-2q0 280 104 406t336 126q240 0 346 -135l35 115h184v-1434h-233v506q-104 -116 -330 -116q-232 0 -336 126t-104 406zM580 864q-141 0 -206 -84t-65 -268t65 -268t206 -84t204.5 83.5t63.5 268.5t-63.5 268.5t-204.5 83.5z" />
    <glyph glyph-name="r" unicode="r" horiz-adv-x="804" 
d="M375 512v-512h-232v1024h185l32 -106q86 126 254 126h129v-206h-129q-138 0 -188.5 -70t-50.5 -256z" />
    <glyph glyph-name="s" unicode="s" horiz-adv-x="1032" 
d="M311 764q0 -46 35 -76t91.5 -45t124.5 -27t136.5 -31.5t125 -49.5t91.5 -88.5t35 -141.5q0 -170 -106.5 -247.5t-341.5 -77.5q-221 0 -320.5 77.5t-99.5 249.5h219q0 -98 49 -141t160 -43q110 0 158.5 36.5t48.5 119.5q0 51 -34.5 84t-90 49t-122 28t-133.5 30
t-122.5 46.5t-90 85t-34.5 137.5q0 160 99.5 232.5t320.5 72.5q214 0 311 -73t97 -234h-209q0 88 -46.5 126t-152.5 38t-152.5 -32t-46.5 -105z" />
    <glyph glyph-name="t" unicode="t" horiz-adv-x="823" 
d="M459 322q0 -65 38.5 -103.5t114.5 -38.5h150v-180h-234q-146 0 -224.5 79t-78.5 218v571h-164v156h164v250h234v-250h303v-156h-303v-546z" />
    <glyph glyph-name="u" unicode="u" horiz-adv-x="1187" 
d="M817 98q-95 -118 -313 -118q-206 0 -299.5 116.5t-93.5 374.5v553h233v-553q0 -166 51 -238.5t168 -72.5q125 0 181.5 73.5t56.5 237.5v553h231v-1024h-184z" />
    <glyph glyph-name="v" unicode="v" horiz-adv-x="1116" 
d="M563 156l264 868h248l-344 -1024h-344l-346 1024h248z" />
    <glyph glyph-name="w" unicode="w" horiz-adv-x="1755" 
d="M1372 0l-2 -2h-283l-210 858l-211 -856h-283l-322 1024h236l238 -840l206 840h283l197 -842l237 842h236z" />
    <glyph glyph-name="x" unicode="x" horiz-adv-x="1067" 
d="M305 1024l225 -360l226 360h250l-330 -492l350 -532h-250l-244 399l-243 -399h-248l348 532l-328 492h244z" />
    <glyph glyph-name="y" unicode="y" horiz-adv-x="1087" 
d="M481 8l6 19l-446 997h223l316 -725l243 725h224l-390 -1092q-57 -158 -141.5 -229.5t-214.5 -71.5h-131v156h119q60 0 105.5 52t86.5 169z" />
    <glyph glyph-name="z" unicode="z" horiz-adv-x="997" 
d="M340 168h596v-168h-875v137l578 719h-557v168h833v-137z" />
    <glyph glyph-name="braceleft" unicode="{" horiz-adv-x="749" 
d="M406 238v-326q0 -74 46 -107.5t148 -33.5h109v-181h-121q-200 0 -290.5 75.5t-90.5 242.5v391q0 77 -29.5 111t-95.5 34v156q66 0 95.5 34t29.5 109v375q0 166 84 241t270 75h148v-181h-109q-102 0 -148 -33.5t-46 -107.5v-309q0 -123 -31 -189.5t-99 -91.5
q68 -25 99 -92.5t31 -191.5z" />
    <glyph glyph-name="bar" unicode="|" horiz-adv-x="565" 
d="M184 1434h197v-1844h-197v1844z" />
    <glyph glyph-name="braceright" unicode="}" horiz-adv-x="749" 
d="M389 238q0 124 30.5 191.5t98.5 92.5q-68 25 -98.5 91.5t-30.5 189.5v309q0 74 -46 107.5t-148 33.5h-109v181h147q186 0 270.5 -75t84.5 -241v-375q0 -75 29.5 -109t95.5 -34v-156q-66 0 -95.5 -34t-29.5 -111v-391q0 -167 -90.5 -242.5t-290.5 -75.5h-121v181h109
q102 0 148 33.5t46 107.5v326z" />
    <glyph glyph-name="asciitilde" unicode="~" horiz-adv-x="1392" 
d="M82 449v174q67 63 140 91t141.5 24t139.5 -26t140.5 -54.5t138 -65.5t137 -55t133.5 -27t132 22t127 89v-172q-85 -82 -179.5 -106.5t-182 -3t-178 61.5t-179.5 81.5t-173.5 64t-172.5 1t-164 -98.5z" />
    <glyph glyph-name="space_" unicode="&#xa0;" horiz-adv-x="614" 
 />
    <glyph glyph-name="exclamdown" unicode="&#xa1;" horiz-adv-x="577" 
d="M424 -410h-244v390l47 528h150l47 -528v-390zM287 748q-75 0 -109.5 34.5t-34.5 110.5q0 75 34.5 109t109.5 34q77 0 112 -34t35 -109t-35.5 -110t-111.5 -35z" />
    <glyph glyph-name="cent" unicode="&#xa2;" horiz-adv-x="1165" 
d="M512 -197v181q-225 20 -327.5 146t-102.5 382t102.5 382t327.5 146v168h184v-168q179 -17 271.5 -109t115.5 -274h-233q-20 108 -79.5 157.5t-168.5 49.5q-152 0 -221.5 -84t-69.5 -268t69.5 -268t221.5 -84q109 0 167.5 49t80.5 158h233q-23 -182 -115.5 -274
t-271.5 -109v-181h-184z" />
    <glyph glyph-name="sterling" unicode="&#xa3;" horiz-adv-x="1353" 
d="M1272 195v-195h-1170v227q109 40 158 118.5t49 213.5v82h-207v180h207v203q0 229 102.5 340t323.5 111q251 0 363 -103.5t112 -347.5h-221q0 150 -51 216.5t-168 66.5q-68 0 -113.5 -19.5t-70 -59t-34 -88t-9.5 -116.5v-203h526v-180h-526v-82q0 -148 -54 -234t-174 -130
h957z" />
    <glyph glyph-name="currency" unicode="&#xa4;" horiz-adv-x="1247" 
d="M1141 991l-2 -2l-97 -100q103 -127 103 -379t-103 -379l99 -100l-119 -125l-119 121q-105 -47 -278 -47q-174 0 -279 47l-119 -121l-121 125l99 100q-103 127 -103 379q0 254 99 379l-99 100l119 127l119 -121q113 49 285 49q173 0 278 -47l119 121zM332 512
q0 -186 68.5 -269t222.5 -83q153 0 220.5 83t67.5 269t-67.5 269t-220.5 83q-155 0 -223 -82t-68 -270z" />
    <glyph glyph-name="yen" unicode="&#xa5;" horiz-adv-x="1402" 
d="M829 563v-151h428v-168h-428v-244h-243v244h-439v168h439v151l-25 43h-414v168h316l-381 660h283l344 -633l342 633h270l-373 -660h309v-168h-403z" />
    <glyph glyph-name="section" unicode="&#xa7;" horiz-adv-x="1325" 
d="M424 1104q0 -50 27.5 -88t73.5 -63t106 -45.5t126 -39t132.5 -39.5t126.5 -52t106 -71.5t73.5 -102.5t27.5 -140q0 -223 -158 -303q55 -77 55 -191q0 -221 -114.5 -320.5t-368.5 -99.5q-238 0 -345.5 107.5t-107.5 343.5h197q0 -142 60.5 -206t195.5 -64q133 0 191.5 47
t58.5 153q0 54 -27 94t-72.5 65t-104 44.5t-123.5 36t-130.5 35.5t-124 47.5t-104 67t-72.5 99.5t-27 140q0 113 44 185t137 110q-80 90 -80 223q0 209 106.5 304.5t341.5 95.5q233 0 340 -107.5t107 -343.5h-199q0 145 -57.5 207.5t-190.5 62.5q-121 0 -174 -45t-53 -147z
M999 440q0 53 -33.5 92.5t-96 66t-128 45.5t-153 45.5t-146.5 53.5q-64 -20 -92 -57.5t-28 -101.5q0 -56 37.5 -95.5t104.5 -64t138.5 -43t161.5 -45t151 -57.5q84 44 84 161z" />
    <glyph glyph-name="dieresis" unicode="&#xa8;" horiz-adv-x="860" 
d="M225 1505q77 0 112.5 -35t35.5 -110t-35.5 -109t-112.5 -34q-75 0 -109 34t-34 109q0 76 34 110.5t109 34.5zM633 1505q76 0 110.5 -35t34.5 -110t-35 -109t-110 -34q-77 0 -111.5 34t-34.5 109q0 76 34.5 110.5t111.5 34.5z" />
    <glyph glyph-name="copyright" unicode="&#xa9;" horiz-adv-x="1767" 
d="M883 1475q411 0 596.5 -180t185.5 -578t-185.5 -578t-596.5 -180q-410 0 -595.5 180t-185.5 578t185.5 578t595.5 180zM883 115q327 0 474.5 143t147.5 459t-147.5 459t-474.5 143q-326 0 -473.5 -143t-147.5 -459t147.5 -459t473.5 -143zM885 1126q195 0 292 -77.5
t119 -249.5h-184q-19 99 -71.5 141.5t-157.5 42.5q-125 0 -180.5 -62.5t-55.5 -203.5q0 -137 52 -201.5t184 -64.5q105 0 157.5 42.5t71.5 141.5h184q-22 -172 -119.5 -250t-293.5 -78q-221 0 -320.5 97.5t-99.5 312.5t100.5 312t321.5 97z" />
    <glyph glyph-name="guillemotleft" unicode="&#xab;" horiz-adv-x="993" 
d="M336 922h223l-244 -390l244 -409h-223l-254 409zM688 922h223l-243 -390l243 -409h-223l-254 409z" />
    <glyph glyph-name="logicalnot" unicode="&#xac;" horiz-adv-x="1249" 
d="M1147 637v-447h-184v267h-881v180h1065z" />
    <glyph glyph-name="registered" unicode="&#xae;" horiz-adv-x="1767" 
d="M883 1475q411 0 596.5 -180t185.5 -578t-185.5 -578t-596.5 -180q-410 0 -595.5 180t-185.5 578t185.5 578t595.5 180zM883 115q329 0 475.5 142t146.5 460t-146.5 460t-475.5 142q-327 0 -474 -142t-147 -460t147 -460t474 -142zM1235 850h2q0 -94 -39.5 -148.5
t-124.5 -76.5l182 -275h-163l-164 262h-207v-262h-146l-2 737h361q158 0 229.5 -56t71.5 -181zM723 969v-242h213q82 0 116.5 27.5t34.5 93.5q0 65 -35 93t-116 28h-213z" />
    <glyph glyph-name="macron" unicode="&#xaf;" horiz-adv-x="860" 
d="M82 1245v141h696v-141h-696z" />
    <glyph glyph-name="degree" unicode="&#xb0;" horiz-adv-x="942" 
d="M82 1065q0 204 92 296.5t297 92.5q204 0 296.5 -92.5t92.5 -296.5t-92.5 -296.5t-296.5 -92.5t-296.5 92.5t-92.5 296.5zM229 1065q0 -132 56.5 -189t185.5 -57q128 0 184 57t56 189t-56 189t-184 57q-129 0 -185.5 -57t-56.5 -189z" />
    <glyph glyph-name="plusminus" unicode="&#xb1;" horiz-adv-x="1228" 
d="M82 0v180h1065v-180h-1065zM1147 754v-181h-438v-297h-187v297h-440v181h440v270h187v-270h438z" />
    <glyph glyph-name="acute" unicode="&#xb4;" horiz-adv-x="614" 
d="M82 1126l213 308h237l-262 -308h-188z" />
    <glyph glyph-name="paragraph" unicode="&#xb6;" horiz-adv-x="1720" 
d="M1374 1253v-1663h-196v1663h-433v-1663h-196v1024q-235 0 -341 97.5t-106 312.5t121.5 312.5t390.5 97.5h963v-181h-203z" />
    <glyph glyph-name="periodcentered" unicode="&#xb7;" horiz-adv-x="454" 
d="M225 670q77 0 112.5 -34.5t35.5 -109.5t-35.5 -109t-112.5 -34q-75 0 -109 34t-34 109t34 109.5t109 34.5z" />
    <glyph glyph-name="cedilla" unicode="&#xb8;" horiz-adv-x="575" 
d="M207 51h129l-43 -155q4 -1 11.5 -2.5t28 -7.5t39.5 -14t42.5 -23t40 -33t28 -45t11.5 -58q0 -107 -107 -166t-305 -59v104q240 0 240 121q0 48 -58.5 70t-128.5 22z" />
    <glyph glyph-name="guillemotright" unicode="&#xbb;" horiz-adv-x="1003" 
d="M82 922h225l262 -390l-262 -409h-225l252 409zM434 922h225l263 -390l-263 -409h-225l252 409z" />
    <glyph glyph-name="questiondown" unicode="&#xbf;" horiz-adv-x="1110" 
d="M680 530q0 -84 -19.5 -148.5t-50.5 -104t-69 -70.5t-76 -55.5t-69 -51.5t-50.5 -67.5t-19.5 -93.5q0 -109 56.5 -159t182.5 -50q127 0 184.5 69t57.5 221h221q0 -247 -112.5 -359t-360.5 -112q-249 0 -361 93t-112 297q0 75 22 132t57 92t77.5 63.5t85.5 55t78 57t57 79
t22 112.5h199zM582 748q-76 0 -111 35t-35 110t34.5 109t111.5 34q75 0 109 -34t34 -109q0 -76 -34 -110.5t-109 -34.5z" />
    <glyph glyph-name="Agrave" unicode="&#xc0;" horiz-adv-x="1437" 
d="M1106 0l-102 322h-578l-107 -322h-258l492 1434h356l467 -1434h-270zM719 1208l-234 -706h461zM844 1536h-178l-252 246h213z" />
    <glyph glyph-name="Aacute" unicode="&#xc1;" horiz-adv-x="1437" 
d="M1106 0l-102 322h-578l-107 -322h-258l492 1434h356l467 -1434h-270zM719 1208l-234 -706h461zM600 1536l205 246h227l-239 -246h-193z" />
    <glyph glyph-name="Acircumflex" unicode="&#xc2;" horiz-adv-x="1437" 
d="M1106 0l-102 322h-578l-107 -322h-258l492 1434h356l467 -1434h-270zM719 1208l-234 -706h461zM1028 1536h-166l-139 141l-141 -141h-166l190 246h232z" />
    <glyph glyph-name="Atilde" unicode="&#xc3;" horiz-adv-x="1437" 
d="M1106 0l-102 322h-578l-107 -322h-258l492 1434h356l467 -1434h-270zM719 1208l-234 -706h461zM391 1556q0 103 54.5 160.5t136.5 57.5q57 0 104.5 -19t74 -41.5t60 -41.5t66.5 -19q29 0 47 23t18 65h101q0 -103 -54 -160t-137 -57q-57 0 -104.5 19t-73.5 41.5
t-59.5 41.5t-65.5 19q-30 0 -48.5 -23.5t-18.5 -65.5h-101z" />
    <glyph glyph-name="Adieresis" unicode="&#xc4;" horiz-adv-x="1437" 
d="M1106 0l-102 322h-578l-107 -322h-258l492 1434h356l467 -1434h-270zM719 1208l-234 -706h461zM506 1767q77 0 111 -29.5t34 -95.5q0 -65 -34.5 -94.5t-110.5 -29.5q-75 0 -110.5 30t-35.5 94q0 66 35 95.5t111 29.5zM938 1767q75 0 110 -29.5t35 -95.5
q0 -65 -35.5 -94.5t-111.5 -29.5q-75 0 -109 29.5t-34 94.5q0 66 34 95.5t111 29.5z" />
    <glyph glyph-name="Aring" unicode="&#xc5;" horiz-adv-x="1437" 
d="M1106 0l-102 322h-578l-107 -322h-258l492 1434h356l467 -1434h-270zM719 1208l-234 -706h461zM723 1907q126 0 183 -50t57 -159q0 -110 -57.5 -160.5t-184.5 -50.5q-126 0 -183 50.5t-57 160.5q0 109 57.5 159t184.5 50zM723 1591q63 0 89 25t26 82q0 56 -27 80t-88 24
q-63 0 -90 -23.5t-27 -80.5t27 -82t90 -25z" />
    <glyph glyph-name="AE" unicode="&#xc6;" horiz-adv-x="1929" 
d="M1847 1239h-661v-397h579v-193h-579v-454h661v-195h-895v322h-471l-162 -322h-258l740 1434h1046v-195zM952 1257l-381 -755h381v755z" />
    <glyph glyph-name="Ccedilla" unicode="&#xc7;" horiz-adv-x="1556" 
d="M676 -195l45 154q-323 19 -471 200.5t-148 557.5q0 397 166.5 577.5t532.5 180.5q297 0 451.5 -123t201.5 -394h-256q-40 166 -132 238t-265 72q-226 0 -328 -130t-102 -421t102 -421t328 -130q163 0 254.5 71.5t142.5 237.5h256q-68 -258 -211 -381t-391 -133l-18 -65
q8 -1 21.5 -4t48.5 -16.5t61.5 -32t48.5 -53t22 -77.5q0 -107 -107.5 -166t-305.5 -59v104q239 0 239 121q0 48 -58 70t-128 22z" />
    <glyph glyph-name="Egrave" unicode="&#xc8;" horiz-adv-x="1261" 
d="M1180 1239h-740v-397h658v-193h-658v-454h740v-195h-996v1434h996v-195zM803 1536h-178l-252 246h215z" />
    <glyph glyph-name="Eacute" unicode="&#xc9;" horiz-adv-x="1261" 
d="M1180 1239h-740v-397h658v-193h-658v-454h740v-195h-996v1434h996v-195zM561 1536l203 246h227l-239 -246h-191z" />
    <glyph glyph-name="Ecircumflex" unicode="&#xca;" horiz-adv-x="1261" 
d="M1180 1239h-740v-397h658v-193h-658v-454h740v-195h-996v1434h996v-195zM987 1536h-166l-139 141l-139 -141h-166l188 246h234z" />
    <glyph glyph-name="Edieresis" unicode="&#xcb;" horiz-adv-x="1263" 
d="M1182 1239h-740v-397h658v-193h-658v-454h740v-195h-998v1434h998v-195zM469 1767q75 0 110 -29.5t35 -95.5q0 -65 -35.5 -94.5t-111.5 -29.5q-75 0 -109 29.5t-34 94.5q0 66 34 95.5t111 29.5zM899 1767q75 0 110 -29.5t35 -95.5q0 -64 -35 -94t-110 -30
q-76 0 -110.5 29.5t-34.5 94.5q0 66 34 95.5t111 29.5z" />
    <glyph glyph-name="Igrave" unicode="&#xcc;" horiz-adv-x="643" 
d="M203 1434h256v-1434h-256v1434zM453 1536h-181l-252 246h216z" />
    <glyph glyph-name="Iacute" unicode="&#xcd;" horiz-adv-x="641" 
d="M184 1434h256v-1434h-256v1434zM190 1536l205 246h226l-240 -246h-191z" />
    <glyph glyph-name="Icircumflex" unicode="&#xce;" horiz-adv-x="651" 
d="M197 1434h258v-1434h-258v1434zM631 1536h-166l-139 141l-140 -141h-166l189 246h233z" />
    <glyph glyph-name="Idieresis" unicode="&#xcf;" horiz-adv-x="622" 
d="M182 1434h258v-1434h-258v1434zM104 1761q75 0 110.5 -30.5t35.5 -96.5q0 -64 -34.5 -93.5t-111.5 -29.5q-75 0 -110 29.5t-35 93.5q0 66 34.5 96.5t110.5 30.5zM518 1761q75 0 110.5 -30.5t35.5 -96.5q0 -64 -35.5 -93.5t-110.5 -29.5t-110 29.5t-35 93.5
q0 66 34.5 96.5t110.5 30.5z" />
    <glyph glyph-name="Ntilde" unicode="&#xd1;" horiz-adv-x="1560" 
d="M1130 1434h246v-1434h-303l-645 1100v-1100h-244v1434h301l645 -1100v1100zM449 1556q0 103 54 160.5t136 57.5q57 0 104.5 -19t74 -41.5t60 -41.5t66.5 -19q29 0 47.5 23.5t18.5 64.5h100q0 -103 -53.5 -160t-136.5 -57q-57 0 -104.5 19t-74 41.5t-60 41.5t-65.5 19
q-30 0 -48.5 -23.5t-18.5 -65.5h-100z" />
    <glyph glyph-name="Ograve" unicode="&#xd2;" horiz-adv-x="1617" 
d="M809 1475q371 0 539 -180.5t168 -577.5t-168 -577.5t-539 -180.5q-372 0 -539.5 180t-167.5 578t167.5 578t539.5 180zM809 1268q-232 0 -335 -129.5t-103 -421.5t103 -421.5t335 -129.5t335 129.5t103 421.5t-103 421.5t-335 129.5zM930 1536h-178l-252 246h215z" />
    <glyph glyph-name="Oacute" unicode="&#xd3;" horiz-adv-x="1617" 
d="M809 1475q371 0 539 -180.5t168 -577.5t-168 -577.5t-539 -180.5q-372 0 -539.5 180t-167.5 578t167.5 578t539.5 180zM809 1268q-232 0 -335 -129.5t-103 -421.5t103 -421.5t335 -129.5t335 129.5t103 421.5t-103 421.5t-335 129.5zM688 1536l203 246h227l-239 -246
h-191z" />
    <glyph glyph-name="Ocircumflex" unicode="&#xd4;" horiz-adv-x="1617" 
d="M809 1475q371 0 539 -180.5t168 -577.5t-168 -577.5t-539 -180.5q-372 0 -539.5 180t-167.5 578t167.5 578t539.5 180zM809 1268q-232 0 -335 -129.5t-103 -421.5t103 -421.5t335 -129.5t335 129.5t103 421.5t-103 421.5t-335 129.5zM1114 1536h-166l-139 141l-139 -141
h-166l188 246h234z" />
    <glyph glyph-name="Otilde" unicode="&#xd5;" horiz-adv-x="1617" 
d="M809 1475q371 0 539 -180.5t168 -577.5t-168 -577.5t-539 -180.5q-372 0 -539.5 180t-167.5 578t167.5 578t539.5 180zM809 1268q-232 0 -335 -129.5t-103 -421.5t103 -421.5t335 -129.5t335 129.5t103 421.5t-103 421.5t-335 129.5zM477 1556q0 103 55 160.5t138 57.5
q56 0 103.5 -19t74 -41.5t60 -41.5t65.5 -19q29 0 47 23t18 65h103q0 -103 -55 -160t-138 -57q-57 0 -104.5 19t-73.5 41.5t-59.5 41.5t-65.5 19q-29 0 -48 -24t-19 -65h-101z" />
    <glyph glyph-name="Odieresis" unicode="&#xd6;" horiz-adv-x="1617" 
d="M809 1475q371 0 539 -180.5t168 -577.5t-168 -577.5t-539 -180.5q-372 0 -539.5 180t-167.5 578t167.5 578t539.5 180zM809 1268q-232 0 -335 -129.5t-103 -421.5t103 -421.5t335 -129.5q231 0 334.5 130t103.5 421t-103.5 421t-334.5 130zM594 1761q75 0 110 -30.5
t35 -96.5q0 -64 -35 -93.5t-112 -29.5q-75 0 -109 29t-34 94q0 66 34.5 96.5t110.5 30.5zM1024 1761q75 0 110 -30.5t35 -96.5q0 -64 -35 -93.5t-110 -29.5q-76 0 -110.5 29t-34.5 94q0 66 34.5 96.5t110.5 30.5z" />
    <glyph glyph-name="multiply" unicode="&#xd7;" horiz-adv-x="1114" 
d="M213 995l344 -344l344 344l131 -139l-340 -340l340 -340l-131 -139l-344 344l-344 -344l-131 139l340 340l-340 340z" />
    <glyph glyph-name="Oslash" unicode="&#xd8;" horiz-adv-x="1617" 
d="M1061 1597h160l-62 -180q184 -72 270.5 -243.5t86.5 -458.5q0 -397 -168 -577.5t-539 -180.5q-91 0 -156 8l-45 -129h-162l58 160q-208 64 -305 238.5t-97 480.5q0 398 167.5 578t539.5 180q111 0 203 -15zM942 1255q-63 13 -133 13q-232 0 -335 -129.5t-103 -421.5
q0 -205 50 -328.5t157 -177.5zM723 170q54 -4 86 -4q232 0 335 129.5t103 421.5q0 184 -40 301t-126 178z" />
    <glyph glyph-name="Ugrave" unicode="&#xd9;" horiz-adv-x="1495" 
d="M164 524v910h256v-910q0 -189 77.5 -273.5t250.5 -84.5q172 0 248.5 84.5t76.5 273.5v910h258v-910q0 -296 -138.5 -430.5t-444.5 -134.5q-307 0 -445.5 134t-138.5 431zM868 1536h-178l-252 246h215z" />
    <glyph glyph-name="Uacute" unicode="&#xda;" horiz-adv-x="1495" 
d="M164 524v910h256v-910q0 -189 77.5 -273.5t250.5 -84.5q172 0 248.5 84.5t76.5 273.5v910h258v-910q0 -296 -138.5 -430.5t-444.5 -134.5q-307 0 -445.5 134t-138.5 431zM627 1536l202 246h228l-240 -246h-190z" />
    <glyph glyph-name="Ucircumflex" unicode="&#xdb;" horiz-adv-x="1495" 
d="M164 524v910h256v-910q0 -189 77.5 -273.5t250.5 -84.5q172 0 248.5 84.5t76.5 273.5v910h258v-910q0 -296 -138.5 -430.5t-444.5 -134.5q-307 0 -445.5 134t-138.5 431zM1053 1536h-166l-139 141l-142 -141h-166l191 246h233z" />
    <glyph glyph-name="Udieresis" unicode="&#xdc;" horiz-adv-x="1497" 
d="M164 524v910h258v-910q0 -189 77.5 -273.5t250.5 -84.5q172 0 248.5 84.5t76.5 273.5v910h258v-910q0 -296 -138.5 -430.5t-444.5 -134.5q-307 0 -446.5 134.5t-139.5 430.5zM532 1761q76 0 111 -30.5t35 -96.5q0 -64 -34.5 -93.5t-111.5 -29.5q-75 0 -110 29.5t-35 93.5
q0 66 35 96.5t110 30.5zM965 1761q75 0 110 -30.5t35 -96.5q0 -64 -35 -93.5t-112 -29.5q-75 0 -109.5 29.5t-34.5 93.5q0 66 35 96.5t111 30.5z" />
    <glyph glyph-name="Yacute" unicode="&#xdd;" horiz-adv-x="1361" 
d="M809 563v-563h-244v563l-504 871h283l344 -633l342 633h270zM563 1536l205 246h225l-239 -246h-191z" />
    <glyph glyph-name="germandbls" unicode="&#xdf;" horiz-adv-x="1320" 
d="M668 1475q80 0 148.5 -11t132.5 -39t108.5 -71.5t71 -112t26.5 -156.5q0 -115 -65.5 -179.5t-202.5 -94.5q175 -32 253.5 -124.5t78.5 -264.5q0 -221 -97 -321.5t-311 -100.5q-56 0 -110.5 10t-80.5 20l-26 11v168q86 -29 156 -29q124 0 179.5 60.5t55.5 193.5
q0 84 -25 140.5t-74.5 85.5t-108.5 40t-142 11v174q161 0 231 46t70 152q0 107 -61 159t-195 52q-151 0 -218 -74.5t-67 -222.5v-997h-231v1022q0 453 504 453z" />
    <glyph glyph-name="agrave" unicode="&#xe0;" horiz-adv-x="1126" 
d="M791 102q-96 -122 -330 -122q-199 0 -289 76t-90 243q0 183 113 265.5t364 82.5h211v49q0 109 -50 157t-163 48q-115 0 -164 -42.5t-49 -141.5h-221q0 172 104 249.5t336 77.5q229 0 335 -89t106 -283v-672h-185zM770 506h-166q-50 0 -86 -3t-77.5 -14t-67 -31.5
t-43 -57.5t-17.5 -89q0 -89 49 -126.5t160 -37.5q123 0 182.5 58.5t65.5 185.5v115zM471 1434l213 -308h-190l-261 308h238z" />
    <glyph glyph-name="aacute" unicode="&#xe1;" horiz-adv-x="1126" 
d="M791 102q-96 -122 -330 -122q-199 0 -289 76t-90 243q0 183 113 265.5t364 82.5h211v49q0 109 -50 157t-163 48q-115 0 -164 -42.5t-49 -141.5h-221q0 172 104 249.5t336 77.5q229 0 335 -89t106 -283v-672h-185zM770 506h-166q-50 0 -86 -3t-77.5 -14t-67 -31.5
t-43 -57.5t-17.5 -89q0 -89 49 -126.5t160 -37.5q123 0 182.5 58.5t65.5 185.5v115zM643 1434h238l-260 -308h-191z" />
    <glyph glyph-name="acircumflex" unicode="&#xe2;" horiz-adv-x="1126" 
d="M791 102q-96 -122 -330 -122q-199 0 -289 76t-90 243q0 183 113 265.5t364 82.5h211v49q0 109 -50 157t-163 48q-115 0 -164 -42.5t-49 -141.5h-221q0 172 104 249.5t336 77.5q229 0 335 -89t106 -283v-672h-185zM770 506h-166q-50 0 -86 -3t-77.5 -14t-67 -31.5
t-43 -57.5t-17.5 -89q0 -89 49 -126.5t160 -37.5q123 0 182.5 58.5t65.5 185.5v115zM680 1434l180 -308h-153l-144 189l-145 -189h-152l180 308h234z" />
    <glyph glyph-name="atilde" unicode="&#xe3;" horiz-adv-x="1126" 
d="M791 102q-96 -122 -330 -122q-199 0 -289 76t-90 243q0 183 113 265.5t364 82.5h211v49q0 109 -50 157t-163 48q-115 0 -164 -42.5t-49 -141.5h-221q0 172 104 249.5t336 77.5q229 0 335 -89t106 -283v-672h-185zM770 506h-166q-50 0 -86 -3t-77.5 -14t-67 -31.5
t-43 -57.5t-17.5 -89q0 -89 49 -126.5t160 -37.5q123 0 182.5 58.5t65.5 185.5v115zM231 1180q0 106 56 179t135 73q47 0 86 -18t65.5 -44t49 -51.5t46 -43.5t46.5 -18q29 0 47 28.5t18 78.5h113q0 -107 -55.5 -178.5t-135.5 -71.5q-47 0 -86 18t-65 43.5t-48.5 51t-45 43.5
t-45.5 18q-30 0 -49 -28.5t-19 -79.5h-113z" />
    <glyph glyph-name="adieresis" unicode="&#xe4;" horiz-adv-x="1126" 
d="M791 102q-96 -122 -330 -122q-199 0 -289 76t-90 243q0 183 113 265.5t364 82.5h211v49q0 109 -50 157t-163 48q-115 0 -164 -42.5t-49 -141.5h-221q0 172 104 249.5t336 77.5q229 0 335 -89t106 -283v-672h-185zM770 506h-166q-50 0 -86 -3t-77.5 -14t-67 -31.5
t-43 -57.5t-17.5 -89q0 -89 49 -126.5t160 -37.5q123 0 182.5 58.5t65.5 185.5v115zM358 1450q77 0 111.5 -34t34.5 -109t-35 -109.5t-111 -34.5q-75 0 -110 34.5t-35 109.5t35 109t110 34zM766 1450q75 0 110 -34t35 -109t-35 -109.5t-110 -34.5q-76 0 -110.5 34.5
t-34.5 109.5t34.5 109t110.5 34z" />
    <glyph glyph-name="aring" unicode="&#xe5;" horiz-adv-x="1126" 
d="M791 102q-96 -122 -330 -122q-199 0 -289 76t-90 243q0 183 113 265.5t364 82.5h211v49q0 109 -50 157t-163 48q-115 0 -164 -42.5t-49 -141.5h-221q0 172 104 249.5t336 77.5q229 0 335 -89t106 -283v-672h-185zM770 506h-166q-50 0 -86 -3t-77.5 -14t-67 -31.5
t-43 -57.5t-17.5 -89q0 -89 49 -126.5t160 -37.5q123 0 182.5 58.5t65.5 185.5v115zM563 1497q126 0 183 -50t57 -159q0 -110 -57 -160.5t-183 -50.5q-127 0 -184 50t-57 161q0 109 57 159t184 50zM563 1182q63 0 89 24.5t26 81.5q0 56 -27 80.5t-88 24.5q-63 0 -90 -24
t-27 -81t27 -81.5t90 -24.5z" />
    <glyph glyph-name="ae" unicode="&#xe6;" horiz-adv-x="1853" 
d="M1772 418h-766q12 -147 75.5 -214t192.5 -67q103 0 158.5 40.5t83.5 135.5h219q-35 -173 -144.5 -252t-316.5 -79q-158 0 -256.5 57t-143.5 178q-37 -123 -137.5 -180t-275.5 -57q-198 0 -288.5 76t-90.5 243q0 177 104 259.5t334 88.5h250v49q0 107 -54 150t-165 43
q-113 0 -160.5 -40t-46.5 -132h-221q0 172 104 249.5t336 77.5q269 0 348 -157q101 157 359 157q264 0 383 -129.5t119 -416.5v-80zM768 506h-186q-143 0 -207 -46t-64 -149q0 -48 15.5 -81.5t45.5 -51t65.5 -24.5t82.5 -7q133 0 190.5 56.5t57.5 189.5v113zM1274 891
q-135 0 -200.5 -78.5t-72.5 -251.5h543q0 176 -63.5 253t-206.5 77z" />
    <glyph glyph-name="ccedilla" unicode="&#xe7;" 
d="M475 -195l49 179q-231 17 -336.5 143.5t-105.5 384.5q0 280 123.5 406t398.5 126q227 0 341 -92t140 -295h-233q-20 108 -79.5 157.5t-168.5 49.5q-152 0 -221.5 -84t-69.5 -268t69.5 -268t221.5 -84q109 0 167.5 49t80.5 158h233q-25 -191 -127.5 -283.5t-302.5 -101.5
l-22 -86q4 -1 11.5 -2.5t28 -7.5t39.5 -14t42.5 -23t40 -33t28 -45t11.5 -58q0 -107 -107 -166t-305 -59v104q240 0 240 121q0 48 -58.5 70t-128.5 22z" />
    <glyph glyph-name="egrave" unicode="&#xe8;" 
d="M1085 418h-774q13 -148 78.5 -215.5t194.5 -67.5q103 0 158 40.5t81 135.5h221q-35 -173 -144.5 -252t-315.5 -79q-264 0 -383 126t-119 406t119 406t383 126q263 0 382 -129.5t119 -416.5v-80zM582 889q-135 0 -201.5 -78.5t-73.5 -251.5h543q0 176 -63 253t-205 77z
M702 1126h-190l-260 308h237z" />
    <glyph glyph-name="eacute" unicode="&#xe9;" 
d="M1085 418h-774q13 -148 78.5 -215.5t194.5 -67.5q103 0 158 40.5t81 135.5h221q-35 -173 -144.5 -252t-315.5 -79q-264 0 -383 126t-119 406t119 406t383 126q263 0 382 -129.5t119 -416.5v-80zM582 889q-135 0 -201.5 -78.5t-73.5 -251.5h543q0 176 -63 253t-205 77z
M461 1126l213 308h237l-262 -308h-188z" />
    <glyph glyph-name="ecircumflex" unicode="&#xea;" 
d="M1085 418h-774q13 -148 78.5 -215.5t194.5 -67.5q103 0 158 40.5t81 135.5h221q-35 -173 -144.5 -252t-315.5 -79q-264 0 -383 126t-119 406t119 406t383 126q263 0 382 -129.5t119 -416.5v-80zM582 889q-135 0 -201.5 -78.5t-73.5 -251.5h543q0 176 -63 253t-205 77z
M879 1126h-154l-143 189l-146 -189h-151l180 308h233z" />
    <glyph glyph-name="edieresis" unicode="&#xeb;" 
d="M1085 418h-774q13 -148 78.5 -215.5t194.5 -67.5q103 0 158 40.5t81 135.5h221q-35 -173 -144.5 -252t-315.5 -79q-264 0 -383 126t-119 406t119 406t383 126q263 0 382 -129.5t119 -416.5v-80zM582 889q-135 0 -201.5 -78.5t-73.5 -251.5h543q0 176 -63 253t-205 77z
M377 1450q76 0 110.5 -34t34.5 -109t-34.5 -109.5t-110.5 -34.5q-75 0 -110.5 34.5t-35.5 109.5t35.5 109t110.5 34zM784 1450q75 0 110.5 -34t35.5 -109t-35.5 -109.5t-110.5 -34.5q-76 0 -110.5 34.5t-34.5 109.5t34.5 109t110.5 34z" />
    <glyph glyph-name="igrave" unicode="&#xec;" horiz-adv-x="301" 
d="M356 0h-231v1024h231v-1024zM362 1126h-190l-260 308h238z" />
    <glyph glyph-name="iacute" unicode="&#xed;" horiz-adv-x="542" 
d="M381 0h-231v1024h231v-1024zM133 1126l213 308h238l-262 -308h-189z" />
    <glyph glyph-name="icircumflex" unicode="&#xee;" horiz-adv-x="555" 
d="M393 0h-231v1024h231v-1024zM575 1126h-153l-143 189l-146 -189h-153l182 308h231z" />
    <glyph glyph-name="idieresis" unicode="&#xef;" horiz-adv-x="540" 
d="M395 0h-231v1024h231v-1024zM84 1427q76 0 110.5 -34.5t34.5 -110.5q0 -74 -34.5 -108.5t-110.5 -34.5q-75 0 -110 34t-35 109q0 76 35 110.5t110 34.5zM475 1427q76 0 111 -34.5t35 -110.5q0 -74 -36 -108.5t-112 -34.5q-75 0 -109 34t-34 109q0 76 34 110.5t111 34.5z
" />
    <glyph glyph-name="ntilde" unicode="&#xf1;" horiz-adv-x="1187" 
d="M358 926q95 118 314 118q206 0 299.5 -116.5t93.5 -374.5v-553h-234v553q0 166 -51 238.5t-168 72.5q-125 0 -181 -73.5t-56 -237.5v-553h-232v1024h185zM272 1180q0 106 56 179t135 73q47 0 86 -18t65.5 -44t49 -51.5t46 -43.5t46.5 -18q29 0 47 28.5t18 78.5h113
q0 -107 -55.5 -178.5t-135.5 -71.5q-47 0 -86 18t-65 43.5t-48.5 51t-45 43.5t-45.5 18q-30 0 -49 -28.5t-19 -79.5h-113z" />
    <glyph glyph-name="ograve" unicode="&#xf2;" horiz-adv-x="1208" 
d="M604 1044q274 0 398 -126t124 -406t-124 -406t-398 -126q-275 0 -398.5 126t-123.5 406t123.5 406t398.5 126zM313 512q0 -186 68.5 -269t222.5 -83q153 0 221 83t68 269t-68 269t-221 83q-155 0 -223 -82t-68 -270zM725 1126h-190l-261 308h238z" />
    <glyph glyph-name="oacute" unicode="&#xf3;" horiz-adv-x="1208" 
d="M604 1044q274 0 398 -126t124 -406t-124 -406t-398 -126q-275 0 -398.5 126t-123.5 406t123.5 406t398.5 126zM313 512q0 -186 68.5 -269t222.5 -83q153 0 221 83t68 269t-68 269t-221 83q-155 0 -223 -82t-68 -270zM483 1126l213 308h238l-262 -308h-189z" />
    <glyph glyph-name="ocircumflex" unicode="&#xf4;" horiz-adv-x="1208" 
d="M604 1044q274 0 398 -126t124 -406t-124 -406t-398 -126q-275 0 -398.5 126t-123.5 406t123.5 406t398.5 126zM313 512q0 -186 68.5 -269t222.5 -83q153 0 221 83t68 269t-68 269t-221 83q-155 0 -223 -82t-68 -270zM901 1126h-153l-144 189l-145 -189h-152l180 308h234z
" />
    <glyph glyph-name="otilde" unicode="&#xf5;" horiz-adv-x="1208" 
d="M604 1044q274 0 398 -126t124 -406t-124 -406t-398 -126q-275 0 -398.5 126t-123.5 406t123.5 406t398.5 126zM313 512q0 -186 68.5 -269t222.5 -83q153 0 221 83t68 269t-68 269t-221 83q-155 0 -223 -82t-68 -270zM272 1180q0 106 56 179t135 73q47 0 86 -18t65.5 -44
t49 -51.5t46 -43.5t46.5 -18q29 0 47 28.5t18 78.5h113q0 -107 -55.5 -178.5t-135.5 -71.5q-47 0 -86 18t-65 43.5t-48.5 51t-45 43.5t-45.5 18q-30 0 -49 -28.5t-19 -79.5h-113z" />
    <glyph glyph-name="odieresis" unicode="&#xf6;" horiz-adv-x="1208" 
d="M604 1044q274 0 398 -126t124 -406t-124 -406t-398 -126q-275 0 -398.5 126t-123.5 406t123.5 406t398.5 126zM313 512q0 -186 68.5 -269t222.5 -83q153 0 221 83t68 269t-68 269t-221 83q-155 0 -223 -82t-68 -270zM399 1450q77 0 111.5 -34t34.5 -109t-35 -109.5
t-111 -34.5q-75 0 -110 34.5t-35 109.5t35 109t110 34zM807 1450q75 0 110 -34t35 -109t-35 -109.5t-110 -34.5q-76 0 -110.5 34.5t-34.5 109.5t34.5 109t110.5 34z" />
    <glyph glyph-name="divide" unicode="&#xf7;" horiz-adv-x="1228" 
d="M473 127q0 61 39.5 100t103.5 39q63 0 102.5 -39.5t39.5 -99.5q0 -62 -40 -100.5t-104 -38.5q-63 0 -102 38.5t-39 100.5zM1147 449h-1065v180h1065v-180zM475 950q0 62 38.5 101t102.5 39t103 -39t39 -101q0 -61 -39 -99t-103 -38t-102.5 38t-38.5 99z" />
    <glyph glyph-name="oslash" unicode="&#xf8;" horiz-adv-x="1210" 
d="M604 1044q86 0 125 -4l45 127h113l-51 -149q151 -45 221.5 -168t70.5 -336q0 -280 -124 -406t-398 -126q-66 0 -125 6l-45 -131h-112l51 151q-152 46 -222.5 168.5t-70.5 335.5q0 280 123.5 406t398.5 126zM602 866q-155 0 -224 -82.5t-69 -269.5q0 -246 125 -317
l230 665q-36 4 -62 4zM768 831l-229 -665q40 -4 63 -4q153 0 221 83t68 269q0 247 -123 317z" />
    <glyph glyph-name="ugrave" unicode="&#xf9;" horiz-adv-x="1187" 
d="M817 98q-95 -118 -313 -118q-206 0 -299.5 116.5t-93.5 374.5v553h233v-553q0 -166 51 -238.5t168 -72.5q125 0 181.5 73.5t56.5 237.5v553h231v-1024h-184zM522 1434l213 -308h-190l-260 308h237z" />
    <glyph glyph-name="uacute" unicode="&#xfa;" horiz-adv-x="1187" 
d="M817 98q-95 -118 -313 -118q-206 0 -299.5 116.5t-93.5 374.5v553h233v-553q0 -166 51 -238.5t168 -72.5q125 0 181.5 73.5t56.5 237.5v553h231v-1024h-184zM623 1434h237l-260 -308h-190z" />
    <glyph glyph-name="ucircumflex" unicode="&#xfb;" horiz-adv-x="1187" 
d="M817 98q-95 -118 -313 -118q-206 0 -299.5 116.5t-93.5 374.5v553h233v-553q0 -166 51 -238.5t168 -72.5q125 0 181.5 73.5t56.5 237.5v553h231v-1024h-184zM688 1434l182 -308h-153l-144 189l-145 -189h-154l183 308h231z" />
    <glyph glyph-name="udieresis" unicode="&#xfc;" horiz-adv-x="1187" 
d="M817 98q-95 -118 -313 -118q-206 0 -299.5 116.5t-93.5 374.5v553h233v-553q0 -166 51 -238.5t168 -72.5q125 0 181.5 73.5t56.5 237.5v553h231v-1024h-184zM367 1450q75 0 110 -34t35 -109t-35 -109.5t-112 -34.5q-75 0 -109.5 34.5t-34.5 109.5t34.5 109t111.5 34z
M772 1450q77 0 111.5 -34t34.5 -109t-35 -109.5t-111 -34.5t-110.5 34.5t-34.5 109.5t34.5 109t110.5 34z" />
    <glyph glyph-name="yacute" unicode="&#xfd;" horiz-adv-x="1087" 
d="M481 8l6 19l-446 997h223l316 -725l243 725h224l-390 -1092q-57 -158 -141.5 -229.5t-214.5 -71.5h-131v156h119q60 0 105.5 52t86.5 169zM446 1126l213 308h238l-260 -308h-191z" />
    <glyph glyph-name="ydieresis" unicode="&#xff;" horiz-adv-x="1087" 
d="M481 8l6 19l-446 997h223l316 -725l243 725h224l-390 -1092q-57 -158 -141.5 -229.5t-214.5 -71.5h-131v156h119q60 0 105.5 52t86.5 169zM352 1450q77 0 111.5 -34t34.5 -109t-35 -109.5t-111 -34.5t-110.5 34.5t-34.5 109.5t34.5 109t110.5 34zM760 1450q75 0 110 -34
t35 -109t-35 -109.5t-112 -34.5q-75 0 -109.5 34.5t-34.5 109.5t34.5 109t111.5 34z" />
    <glyph glyph-name="Amacron" unicode="&#x100;" horiz-adv-x="1437" 
d="M1106 0l-102 322h-578l-107 -322h-258l492 1434h356l467 -1434h-270zM719 1208l-234 -706h461zM373 1702h696v-143h-696v143z" />
    <glyph glyph-name="amacron" unicode="&#x101;" horiz-adv-x="1126" 
d="M791 102q-96 -122 -330 -122q-199 0 -289 76t-90 243q0 183 113 265.5t364 82.5h211v49q0 109 -50 157t-163 48q-115 0 -164 -42.5t-49 -141.5h-221q0 172 104 249.5t336 77.5q229 0 335 -89t106 -283v-672h-185zM770 506h-166q-50 0 -86 -3t-77.5 -14t-67 -31.5
t-43 -57.5t-17.5 -89q0 -89 49 -126.5t160 -37.5q123 0 182.5 58.5t65.5 185.5v115zM213 1196v141h696v-141h-696z" />
    <glyph glyph-name="Abreve" unicode="&#x102;" horiz-adv-x="1437" 
d="M1106 0l-102 322h-578l-107 -322h-258l492 1434h356l467 -1434h-270zM719 1208l-234 -706h461zM1053 1782q0 -129 -78.5 -187.5t-251.5 -58.5q-175 0 -253.5 58.5t-78.5 187.5h172q0 -65 32 -94.5t105 -32.5q6 -2 23 -2q85 0 121.5 30t36.5 99h172z" />
    <glyph glyph-name="abreve" unicode="&#x103;" horiz-adv-x="1126" 
d="M791 102q-96 -122 -330 -122q-199 0 -289 76t-90 243q0 183 113 265.5t364 82.5h211v49q0 109 -50 157t-163 48q-115 0 -164 -42.5t-49 -141.5h-221q0 172 104 249.5t336 77.5q229 0 335 -89t106 -283v-672h-185zM770 506h-166q-50 0 -86 -3t-77.5 -14t-67 -31.5
t-43 -57.5t-17.5 -89q0 -89 49 -126.5t160 -37.5q123 0 182.5 58.5t65.5 185.5v115zM733 1434h160q0 -161 -78.5 -234.5t-251.5 -73.5t-252.5 73.5t-79.5 234.5h162q0 -94 40.5 -136.5t129.5 -42.5q90 0 130 42.5t40 136.5z" />
    <glyph glyph-name="Aogonek" unicode="&#x104;" horiz-adv-x="1441" 
d="M1309 0q-95 -72 -126 -164q-27 -84 21 -121q26 -20 68 -20q25 0 52 7.5t42 15.5l14 8v-197q-61 -41 -143 -41q-92 0 -147.5 55.5t-63.5 134t32 168.5t124 154h-76l-102 322h-578l-107 -322h-258l492 1434h356l467 -1434h-67zM719 1208l-234 -706h461z" />
    <glyph glyph-name="aogonek" unicode="&#x105;" horiz-adv-x="1134" 
d="M817 4l-26 98q-96 -122 -330 -122q-199 0 -289 76t-90 243q0 183 113 265.5t364 82.5h211v49q0 109 -50 157t-163 48q-115 0 -164 -42.5t-49 -141.5h-221q0 172 104 249.5t336 77.5q229 0 335 -89t106 -283v-672h-66q-94 -73 -124 -164q-27 -84 21 -121q26 -20 68 -20
q25 0 52.5 7.5t42.5 15.5l14 8v-197q-62 -41 -144 -41q-74 0 -126.5 36.5t-71 95t-12.5 126t48 137.5t111 121zM770 506h-166q-50 0 -86 -3t-77.5 -14t-67 -31.5t-43 -57.5t-17.5 -89q0 -89 49 -126.5t160 -37.5q123 0 182.5 58.5t65.5 185.5v115z" />
    <glyph glyph-name="Cacute" unicode="&#x106;" horiz-adv-x="1556" 
d="M1198 475h256q-71 -271 -225.5 -393.5t-427.5 -122.5q-366 0 -532.5 180.5t-166.5 577.5t166.5 577.5t532.5 180.5q297 0 451.5 -123t201.5 -394h-256q-40 166 -132 238t-265 72q-226 0 -328 -130t-102 -421t102 -421t328 -130q163 0 254.5 71.5t142.5 237.5zM688 1536
l203 246h227l-239 -246h-191z" />
    <glyph glyph-name="cacute" unicode="&#x107;" 
d="M852 367h233q-26 -203 -140 -295t-341 -92q-275 0 -398.5 126t-123.5 406t123.5 406t398.5 126q227 0 341 -92t140 -295h-233q-20 108 -79.5 157.5t-168.5 49.5q-152 0 -221.5 -84t-69.5 -268t69.5 -268t221.5 -84q109 0 167.5 49t80.5 158zM483 1126l213 308h238
l-262 -308h-189z" />
    <glyph glyph-name="Ccircumflex" unicode="&#x108;" horiz-adv-x="1556" 
d="M1198 475h256q-71 -271 -225.5 -393.5t-427.5 -122.5q-366 0 -532.5 180.5t-166.5 577.5t166.5 577.5t532.5 180.5q297 0 451.5 -123t201.5 -394h-256q-40 166 -132 238t-265 72q-226 0 -328 -130t-102 -421t102 -421t328 -130q163 0 254.5 71.5t142.5 237.5zM1114 1536
h-166l-139 141l-139 -141h-166l188 246h234z" />
    <glyph glyph-name="ccircumflex" unicode="&#x109;" 
d="M852 367h233q-26 -203 -140 -295t-341 -92q-275 0 -398.5 126t-123.5 406t123.5 406t398.5 126q227 0 341 -92t140 -295h-233q-20 108 -79.5 157.5t-168.5 49.5q-152 0 -221.5 -84t-69.5 -268t69.5 -268t221.5 -84q109 0 167.5 49t80.5 158zM901 1126h-153l-144 189
l-145 -189h-152l180 308h234z" />
    <glyph glyph-name="Cdotaccent" unicode="&#x10a;" horiz-adv-x="1556" 
d="M1198 475h256q-71 -271 -225.5 -393.5t-427.5 -122.5q-366 0 -532.5 180.5t-166.5 577.5t166.5 577.5t532.5 180.5q297 0 451.5 -123t201.5 -394h-256q-40 166 -132 238t-265 72q-226 0 -328 -130t-102 -421t102 -421t328 -130q163 0 254.5 71.5t142.5 237.5zM809 1782
q75 0 110 -30.5t35 -96.5q0 -64 -35 -93.5t-110 -29.5q-76 0 -110.5 29t-34.5 94q0 66 34.5 96.5t110.5 30.5z" />
    <glyph glyph-name="cdotaccent" unicode="&#x10b;" 
d="M852 367h233q-26 -203 -140 -295t-341 -92q-275 0 -398.5 126t-123.5 406t123.5 406t398.5 126q227 0 341 -92t140 -295h-233q-20 108 -79.5 157.5t-168.5 49.5q-152 0 -221.5 -84t-69.5 -268t69.5 -268t221.5 -84q109 0 167.5 49t80.5 158zM604 1444q75 0 110.5 -33.5
t35.5 -105.5t-35.5 -105t-112.5 -33q-75 0 -109 33.5t-34 104.5q0 72 34.5 105.5t110.5 33.5z" />
    <glyph glyph-name="Ccaron" unicode="&#x10c;" horiz-adv-x="1556" 
d="M1198 475h256q-71 -271 -225.5 -393.5t-427.5 -122.5q-366 0 -532.5 180.5t-166.5 577.5t166.5 577.5t532.5 180.5q297 0 451.5 -123t201.5 -394h-256q-40 166 -132 238t-265 72q-226 0 -328 -130t-102 -421t102 -421t328 -130q163 0 254.5 71.5t142.5 237.5zM1102 1782
l-189 -246h-233l-188 246h165l140 -142l139 142h166z" />
    <glyph glyph-name="ccaron" unicode="&#x10d;" 
d="M852 367h233q-26 -203 -140 -295t-341 -92q-275 0 -398.5 126t-123.5 406t123.5 406t398.5 126q227 0 341 -92t140 -295h-233q-20 108 -79.5 157.5t-168.5 49.5q-152 0 -221.5 -84t-69.5 -268t69.5 -268t221.5 -84q109 0 167.5 49t80.5 158zM901 1434l-182 -308h-232
l-182 308h154l145 -189l144 189h153z" />
    <glyph glyph-name="Dcaron" unicode="&#x10e;" horiz-adv-x="1499" 
d="M1397 717q0 -376 -163.5 -546.5t-524.5 -170.5h-525v1434h525q361 0 524.5 -170.5t163.5 -546.5zM698 1239h-258v-1044h258q226 0 327 123t101 399t-101 399t-327 123zM983 1782l-190 -246h-232l-190 246h166l141 -142l139 142h166z" />
    <glyph glyph-name="dcaron" unicode="&#x10f;" horiz-adv-x="1474" 
d="M867 113q-105 -133 -345 -133q-232 0 -336 126t-104 406t104 406t336 126q226 0 330 -116v506h233v-1434h-184zM586 160q141 0 204.5 83.5t63.5 268.5t-63.5 268.5t-204.5 83.5t-206 -84t-65 -268t65 -268t206 -84zM1284 1454q30 0 51.5 -9.5t32.5 -23.5t17.5 -37.5
t8 -43t1.5 -48.5q0 -111 -48.5 -162t-150.5 -51v90q44 0 64 24t20 75q-104 0 -104 82q0 56 25 80t83 24z" />
    <glyph glyph-name="Dcroat" unicode="&#x110;" horiz-adv-x="1560" 
d="M1458 717q0 -376 -163.5 -546.5t-524.5 -170.5h-524v717h-185v168h185v549h524q361 0 524.5 -170.5t163.5 -546.5zM760 1239h-258v-354h344v-168h-344v-522h258q226 0 327 123t101 399t-101 399t-327 123z" />
    <glyph glyph-name="dcroat" unicode="&#x111;" horiz-adv-x="1333" 
d="M1085 1290h187v-116h-185v-1174h-184l-35 115q-106 -135 -346 -135q-232 0 -336 126t-104 406t104 406t336 126q226 0 330 -116v246h-387v116h387v144h233v-144zM584 160q141 0 204.5 83.5t63.5 268.5t-63.5 268.5t-204.5 83.5t-206 -84t-65 -268t65 -268t206 -84z" />
    <glyph glyph-name="Emacron" unicode="&#x112;" horiz-adv-x="1261" 
d="M1180 1239h-740v-397h658v-193h-658v-454h740v-195h-996v1434h996v-195zM334 1702h696v-143h-696v143z" />
    <glyph glyph-name="emacron" unicode="&#x113;" 
d="M1085 418h-774q13 -148 78.5 -215.5t194.5 -67.5q103 0 158 40.5t81 135.5h221q-35 -173 -144.5 -252t-315.5 -79q-264 0 -383 126t-119 406t119 406t383 126q263 0 382 -129.5t119 -416.5v-80zM582 889q-135 0 -201.5 -78.5t-73.5 -251.5h543q0 176 -63 253t-205 77z
M231 1337h697v-141h-697v141z" />
    <glyph glyph-name="Ebreve" unicode="&#x114;" horiz-adv-x="1261" 
d="M1180 1239h-740v-397h658v-193h-658v-454h740v-195h-996v1434h996v-195zM1014 1782q0 -129 -79.5 -187.5t-252.5 -58.5t-252.5 58.5t-79.5 187.5h174q0 -65 31.5 -94.5t103.5 -32.5q6 -2 23 -2q86 0 122 30t36 99h174z" />
    <glyph glyph-name="ebreve" unicode="&#x115;" 
d="M1085 418h-774q13 -148 78.5 -215.5t194.5 -67.5q103 0 158 40.5t81 135.5h221q-35 -173 -144.5 -252t-315.5 -79q-264 0 -383 126t-119 406t119 406t383 126q263 0 382 -129.5t119 -416.5v-80zM582 889q-135 0 -201.5 -78.5t-73.5 -251.5h543q0 176 -63 253t-205 77z
M911 1434q0 -161 -78 -234.5t-251 -73.5t-252.5 73.5t-79.5 234.5h162q0 -94 39.5 -136.5t130.5 -42.5q90 0 130 42.5t40 136.5h159z" />
    <glyph glyph-name="Edotaccent" unicode="&#x116;" horiz-adv-x="1261" 
d="M1180 1239h-740v-397h658v-193h-658v-454h740v-195h-996v1434h996v-195zM682 1782q75 0 110 -30.5t35 -96.5q0 -64 -35 -93.5t-110 -29.5q-76 0 -110.5 29t-34.5 94q0 66 34.5 96.5t110.5 30.5z" />
    <glyph glyph-name="edotaccent" unicode="&#x117;" 
d="M1085 418h-774q13 -148 78.5 -215.5t194.5 -67.5q103 0 158 40.5t81 135.5h221q-35 -173 -144.5 -252t-315.5 -79q-264 0 -383 126t-119 406t119 406t383 126q263 0 382 -129.5t119 -416.5v-80zM582 889q-135 0 -201.5 -78.5t-73.5 -251.5h543q0 176 -63 253t-205 77z
M588 1444q75 0 110 -33.5t35 -105.5t-35 -105t-112 -33q-75 0 -109.5 33.5t-34.5 104.5q0 72 35 105.5t111 33.5z" />
    <glyph glyph-name="Eogonek" unicode="&#x118;" horiz-adv-x="1261" 
d="M1098 0h-2q-94 -72 -123 -164q-27 -84 21 -121q25 -20 67 -20q26 0 53 7.5t41 15.5l14 8v-197q-61 -41 -143 -41q-92 0 -147.5 55.5t-63.5 134t32 168.5t124 154h-787v1434h996v-195h-740v-397h658v-193h-658v-454h740v-195h-82z" />
    <glyph glyph-name="eogonek" unicode="&#x119;" 
d="M1047 309q-28 -135 -102 -213t-200 -104q-92 -74 -118 -165q-23 -82 26 -117q25 -17 64 -17q25 0 52 7.5t41 15.5l15 8v-197q-61 -41 -143 -41q-71 0 -121.5 33.5t-71 88t-18 118.5t36.5 131.5t94 119.5h-18q-264 0 -383 126.5t-119 406.5t119 406t383 126
q263 0 382 -129.5t119 -416.5v-80h-772q13 -148 78.5 -215.5t194.5 -67.5q103 0 158 40.5t81 135.5h222zM588 889q-135 0 -201.5 -78.5t-73.5 -251.5h543q0 176 -63 253t-205 77z" />
    <glyph glyph-name="Ecaron" unicode="&#x11a;" horiz-adv-x="1261" 
d="M1180 1239h-740v-397h658v-193h-658v-454h740v-195h-996v1434h996v-195zM975 1782l-189 -246h-233l-188 246h165l140 -142l139 142h166z" />
    <glyph glyph-name="ecaron" unicode="&#x11b;" 
d="M1085 418h-774q13 -148 78.5 -215.5t194.5 -67.5q103 0 158 40.5t81 135.5h221q-35 -173 -144.5 -252t-315.5 -79q-264 0 -383 126t-119 406t119 406t383 126q263 0 382 -129.5t119 -416.5v-80zM582 889q-135 0 -201.5 -78.5t-73.5 -251.5h543q0 176 -63 253t-205 77z
M879 1434l-181 -308h-233l-180 308h151l146 -189l143 189h154z" />
    <glyph glyph-name="Gbreve" unicode="&#x11e;" horiz-adv-x="1576" 
d="M809 629v180h666v-92q0 -397 -158.5 -577.5t-507.5 -180.5q-372 0 -539.5 180t-167.5 578t167.5 578t539.5 180q287 0 439.5 -117t205.5 -375h-246q-35 151 -129.5 218t-269.5 67q-232 0 -335 -129.5t-103 -421.5t103 -421.5t335 -129.5q223 0 321.5 108.5t98.5 354.5
h-420zM1141 1782q0 -129 -79.5 -187.5t-252.5 -58.5t-252.5 58.5t-79.5 187.5h174q0 -73 41 -101t117 -28q85 0 121.5 30t36.5 99h174z" />
    <glyph glyph-name="gbreve" unicode="&#x11f;" horiz-adv-x="1228" 
d="M522 -20q-231 0 -335.5 127t-104.5 407t104 405t336 125q244 0 348 -139l31 119h184v-922q0 -279 -119 -405.5t-382 -126.5q-213 0 -322.5 79t-138.5 253h219q22 -95 75 -135.5t154 -40.5q149 0 215 79t66 258v33q-104 -116 -330 -116zM584 162q143 0 205.5 82.5
t62.5 269.5q0 186 -63 269t-205 83q-143 0 -207 -83t-64 -269q0 -187 63.5 -269.5t207.5 -82.5zM940 1434q0 -161 -79 -233.5t-253 -72.5t-253 72.5t-79 233.5h162q0 -92 39.5 -134.5t130.5 -42.5t130.5 41.5t39.5 135.5h162z" />
    <glyph glyph-name="Gdotaccent" unicode="&#x120;" horiz-adv-x="1576" 
d="M809 629v180h666v-92q0 -397 -158.5 -577.5t-507.5 -180.5q-372 0 -539.5 180t-167.5 578t167.5 578t539.5 180q287 0 439.5 -117t205.5 -375h-246q-35 151 -129.5 218t-269.5 67q-232 0 -335 -129.5t-103 -421.5t103 -421.5t335 -129.5q223 0 321.5 108.5t98.5 354.5
h-420zM809 1782q75 0 110 -30.5t35 -96.5q0 -64 -35 -93.5t-110 -29.5q-76 0 -110.5 29t-34.5 94q0 66 34.5 96.5t110.5 30.5z" />
    <glyph glyph-name="gdotaccent" unicode="&#x121;" horiz-adv-x="1228" 
d="M522 -20q-231 0 -335.5 127t-104.5 407t104 405t336 125q244 0 348 -139l31 119h184v-922q0 -279 -119 -405.5t-382 -126.5q-213 0 -322.5 79t-138.5 253h219q22 -95 75 -135.5t154 -40.5q149 0 215 79t66 258v33q-104 -116 -330 -116zM584 162q143 0 205.5 82.5
t62.5 269.5q0 186 -63 269t-205 83q-143 0 -207 -83t-64 -269q0 -187 63.5 -269.5t207.5 -82.5zM616 1430q76 0 111 -33.5t35 -104.5q0 -72 -35 -105.5t-111 -33.5q-75 0 -110 33.5t-35 105.5t35 105t110 33z" />
    <glyph glyph-name="Gcedilla" unicode="&#x122;" horiz-adv-x="1576" 
d="M809 629v180h666v-92q0 -397 -158.5 -577.5t-507.5 -180.5q-372 0 -539.5 180t-167.5 578t167.5 578t539.5 180q287 0 439.5 -117t205.5 -375h-246q-35 151 -129.5 218t-269.5 67q-232 0 -335 -129.5t-103 -421.5t103 -421.5t335 -129.5q222 0 321 109t99 354h-420z
M809 -90q49 0 74.5 -25.5t31.5 -81.5q3 -24 3 -55q-1 -112 -49 -162.5t-150 -50.5v90q44 0 64 23.5t20 75.5q-53 0 -78.5 19.5t-26.5 61.5q0 15 2 23q3 43 29 62.5t80 19.5z" />
    <glyph glyph-name="gcedilla" unicode="&#x123;" horiz-adv-x="1228" 
d="M520 -20q-231 0 -335.5 127t-104.5 407t104 405t336 125q244 0 348 -139l31 119h184v-922q0 -279 -119 -405.5t-382 -126.5q-213 0 -322.5 79t-138.5 253h219q22 -95 75 -135.5t154 -40.5q149 0 215 79t66 258v33q-104 -116 -330 -116zM582 162q143 0 205.5 82.5
t62.5 269.5q0 186 -63 269t-205 83q-143 0 -207 -83t-64 -269q0 -187 63.5 -269.5t207.5 -82.5zM588 1133h-2q-29 0 -50 10t-32.5 24t-17.5 37.5t-7.5 42.5t-1.5 47q0 112 48 162.5t151 50.5v-90q-43 0 -62.5 -23t-19.5 -75q59 0 80.5 -23.5t21.5 -81.5q-3 -42 -29 -61.5
t-79 -19.5z" />
    <glyph glyph-name="Itilde" unicode="&#x128;" horiz-adv-x="620" 
d="M182 1434h256v-1434h-256v1434zM-20 1556q0 104 53.5 161t136.5 57q57 0 104.5 -19t73.5 -41.5t59.5 -41.5t65.5 -19q30 0 49 23t19 65h100q0 -103 -54 -160t-136 -57q-57 0 -104.5 19t-74 41.5t-60.5 41.5t-67 19q-29 0 -47 -23.5t-18 -65.5h-100z" />
    <glyph glyph-name="itilde" unicode="&#x129;" horiz-adv-x="538" 
d="M385 0h-231v1024h231v-1024zM-61 1180q0 107 55 179.5t135 72.5q47 0 86 -18t65.5 -44t49 -51.5t46 -43.5t46.5 -18q29 0 47 28.5t18 78.5h113q0 -106 -55.5 -178t-134.5 -72q-47 0 -86 18t-65.5 43.5t-49 51t-46 43.5t-46.5 18q-29 0 -47.5 -28.5t-18.5 -79.5h-112z" />
    <glyph glyph-name="Imacron" unicode="&#x12a;" horiz-adv-x="655" 
d="M201 1434h256v-1434h-256v1434zM-20 1694h696v-142h-696v142z" />
    <glyph glyph-name="imacron" unicode="&#x12b;" horiz-adv-x="532" 
d="M383 0h-231v1024h231v-1024zM-82 1337h696v-141h-696v141z" />
    <glyph glyph-name="Iogonek" unicode="&#x12e;" horiz-adv-x="643" 
d="M479 -471l-2 -1q-2 -2 -6 -4.5t-10 -5.5t-14 -6.5t-17 -6.5t-20 -6t-22.5 -5.5t-25 -4t-26.5 -1.5q-74 0 -125.5 36t-70 94t-13 125t46 136.5t107.5 120.5h-84v1434h256v-1434h-47q-94 -72 -123 -164q-27 -84 22 -121q26 -20 68 -20q24 0 50.5 7.5t40.5 15.5l15 8v-197z
" />
    <glyph glyph-name="iogonek" unicode="&#x12f;" horiz-adv-x="581" 
d="M362 0q-94 -72 -123 -164q-26 -84 23 -121q26 -20 68 -20q25 0 52 7.5t42 15.5l14 8v-197q-63 -41 -145 -41q-74 0 -125.5 36t-70 94t-13 125t46 136.5t107.5 120.5h-60v1024h232v-1024h-48zM293 1464q76 0 110.5 -33t34.5 -104q0 -72 -34.5 -105.5t-110.5 -33.5
q-75 0 -110.5 33.5t-35.5 105.5t35.5 104.5t110.5 32.5z" />
    <glyph glyph-name="Idotaccent" unicode="&#x130;" horiz-adv-x="659" 
d="M203 1434h256v-1434h-256v1434zM330 1782q76 0 110.5 -30.5t34.5 -96.5q0 -65 -34.5 -94t-110.5 -29q-75 0 -110.5 29.5t-35.5 93.5q0 66 35.5 96.5t110.5 30.5z" />
    <glyph glyph-name="dotlessi" unicode="&#x131;" horiz-adv-x="518" 
d="M375 0h-232v1024h232v-1024z" />
    <glyph glyph-name="IJ" unicode="&#x132;" horiz-adv-x="1773" 
d="M184 1434h256v-1434h-256v1434zM676 430v59h244v-59q0 -140 51 -202t166 -62q116 0 166.5 61.5t50.5 202.5v1004h256v-1004q0 -242 -112 -350.5t-361 -108.5q-243 0 -352 108.5t-109 350.5z" />
    <glyph glyph-name="ij" unicode="&#x133;" horiz-adv-x="1093" 
d="M406 0h-234v1024h234v-1024zM535 -188q76 0 114.5 38t38.5 103v1071h232v-1096q0 -139 -78 -218t-224 -79h-217v181h134zM289 1464q75 0 110 -33t35 -104q0 -72 -35.5 -105.5t-111.5 -33.5q-75 0 -109.5 33.5t-34.5 105.5t34.5 104.5t111.5 32.5zM805 1464q75 0 110 -33
t35 -104q0 -72 -35.5 -105.5t-111.5 -33.5q-75 0 -109.5 33.5t-34.5 105.5t34.5 104.5t111.5 32.5z" />
    <glyph glyph-name="Kcedilla" unicode="&#x136;" horiz-adv-x="1406" 
d="M442 1434v-594l549 594h314l-641 -697l682 -737h-314l-590 635v-635h-258v1434h258zM678 -90q57 0 82.5 -38.5t25.5 -123.5q0 -112 -48 -162.5t-150 -50.5v90q44 0 64 23.5t20 75.5q-55 0 -80 19t-25 62q0 55 26 80t85 25z" />
    <glyph glyph-name="kcedilla" unicode="&#x137;" horiz-adv-x="1144" 
d="M377 1434v-830l409 420h277l-477 -492l518 -532h-277l-450 461v-461h-234v1434h234zM562 -90q56 0 82 -39t26 -123q0 -112 -47.5 -162.5t-149.5 -50.5v90q44 0 64 23.5t20 75.5q-54 0 -78 19t-24 62q0 55 25.5 80t81.5 25z" />
    <glyph glyph-name="Lacute" unicode="&#x139;" horiz-adv-x="1179" 
d="M1098 207v-207h-914v1434h256v-1227h658zM203 1536l203 246h227l-240 -246h-190z" />
    <glyph glyph-name="lacute" unicode="&#x13a;" horiz-adv-x="532" 
d="M143 0v1434h234v-1434h-234zM143 1536l203 246h227l-239 -246h-191z" />
    <glyph glyph-name="Lcedilla" unicode="&#x13b;" horiz-adv-x="1153" 
d="M1100 207v-207h-916v1434h258v-1227h658zM642 -90q56 0 82 -39t26 -123q0 -112 -47.5 -162.5t-149.5 -50.5v90q44 0 64 23.5t20 75.5q-54 0 -78 19t-24 62q0 55 25.5 80t81.5 25z" />
    <glyph glyph-name="lcedilla" unicode="&#x13c;" horiz-adv-x="520" 
d="M143 0v1434h234v-1434h-234zM260 -90q57 0 83 -38.5t26 -123.5q0 -112 -47 -162.5t-150 -50.5v90q43 0 63.5 23.5t20.5 75.5q-55 0 -79.5 19t-24.5 62q0 55 25.5 80t82.5 25z" />
    <glyph glyph-name="Lcaron" unicode="&#x13d;" horiz-adv-x="1179" 
d="M1098 207v-207h-914v1434h256v-1227h658zM641 1454q57 0 83 -38.5t26 -123.5q0 -111 -48.5 -162t-150.5 -51v90q44 0 64 23.5t20 75.5q-55 0 -80 19.5t-25 62.5q0 55 26 79.5t85 24.5z" />
    <glyph glyph-name="lcaron" unicode="&#x13e;" horiz-adv-x="765" 
d="M143 0v1434h232v-1434h-232zM575 1454q58 0 83.5 -38t25.5 -124q0 -112 -48 -163.5t-151 -51.5v92q44 0 64 23.5t20 75.5q-54 0 -78 19.5t-24 62.5q0 48 28.5 76t79.5 28z" />
    <glyph glyph-name="Lslash" unicode="&#x141;" horiz-adv-x="1251" 
d="M1169 207v-207h-915v629l-193 -117v184l193 117v621h256v-465l451 272v-184l-451 -273v-577h659z" />
    <glyph glyph-name="lslash" unicode="&#x142;" horiz-adv-x="739" 
d="M61 594v184l193 117v539h231v-398l193 117v-182l-193 -117v-854h-231v711z" />
    <glyph glyph-name="Nacute" unicode="&#x143;" horiz-adv-x="1560" 
d="M1130 1434h246v-1434h-303l-645 1100v-1100h-244v1434h301l645 -1100v1100zM657 1536l205 246h228l-240 -246h-193z" />
    <glyph glyph-name="nacute" unicode="&#x144;" horiz-adv-x="1187" 
d="M358 926q95 118 314 118q206 0 299.5 -116.5t93.5 -374.5v-553h-234v553q0 166 -51 238.5t-168 72.5q-125 0 -181 -73.5t-56 -237.5v-553h-232v1024h185zM696 1434h238l-262 -308h-189z" />
    <glyph glyph-name="Ncedilla" unicode="&#x145;" horiz-adv-x="1560" 
d="M1133 1434h243v-1434h-301l-645 1100v-1100h-246v1434h303l646 -1100v1100zM780 -90q58 0 84.5 -38.5t26.5 -123.5q0 -111 -48.5 -162t-150.5 -51v90q44 0 64 23.5t20 75.5q-55 0 -79.5 19t-24.5 62q0 55 25.5 80t82.5 25z" />
    <glyph glyph-name="ncedilla" unicode="&#x146;" horiz-adv-x="1187" 
d="M358 926q95 118 314 118q206 0 299.5 -116.5t93.5 -374.5v-553h-234v553q0 166 -51 238.5t-168 72.5q-125 0 -181 -73.5t-56 -237.5v-553h-232v1024h185zM604 -90q57 0 83 -38.5t26 -123.5q0 -111 -48.5 -162t-150.5 -51v90q44 0 64 23.5t20 75.5q-53 0 -78.5 19.5
t-25.5 61.5q0 56 26 80.5t84 24.5z" />
    <glyph glyph-name="Ncaron" unicode="&#x147;" horiz-adv-x="1560" 
d="M1130 1434h246v-1434h-303l-645 1100v-1100h-244v1434h301l645 -1100v1100zM1073 1782l-188 -246h-234l-190 246h166l141 -142l139 142h166z" />
    <glyph glyph-name="ncaron" unicode="&#x148;" horiz-adv-x="1187" 
d="M358 926q95 118 314 118q206 0 299.5 -116.5t93.5 -374.5v-553h-234v553q0 166 -51 238.5t-168 72.5q-125 0 -181 -73.5t-56 -237.5v-553h-232v1024h185zM721 1126h-234l-180 308h152l145 -189l144 189h153z" />
    <glyph glyph-name="Omacron" unicode="&#x14c;" horiz-adv-x="1617" 
d="M809 1475q371 0 539 -180.5t168 -577.5t-168 -577.5t-539 -180.5q-372 0 -539.5 180t-167.5 578t167.5 578t539.5 180zM809 1268q-232 0 -335 -129.5t-103 -421.5t103 -421.5t335 -129.5t335 129.5t103 421.5t-103 421.5t-335 129.5zM461 1710h696v-143h-696v143z" />
    <glyph glyph-name="omacron" unicode="&#x14d;" horiz-adv-x="1208" 
d="M604 1044q274 0 398 -126t124 -406t-124 -406t-398 -126q-275 0 -398.5 126t-123.5 406t123.5 406t398.5 126zM313 512q0 -186 68.5 -269t222.5 -83q153 0 221 83t68 269t-68 269t-221 83q-155 0 -223 -82t-68 -270zM254 1300h696v-143h-696v143z" />
    <glyph glyph-name="Obreve" unicode="&#x14e;" horiz-adv-x="1617" 
d="M809 1475q371 0 539 -180.5t168 -577.5t-168 -577.5t-539 -180.5q-372 0 -539.5 180t-167.5 578t167.5 578t539.5 180zM809 1268q-232 0 -335 -129.5t-103 -421.5t103 -421.5t335 -129.5t335 129.5t103 421.5t-103 421.5t-335 129.5zM1141 1782q0 -129 -79.5 -187.5
t-252.5 -58.5t-252.5 58.5t-79.5 187.5h174q0 -68 37.5 -98.5t120.5 -30.5t120.5 30.5t37.5 98.5h174z" />
    <glyph glyph-name="obreve" unicode="&#x14f;" horiz-adv-x="1208" 
d="M604 1044q274 0 398 -126t124 -406t-124 -406t-398 -126q-275 0 -398.5 126t-123.5 406t123.5 406t398.5 126zM313 512q0 -186 68.5 -269t222.5 -83q153 0 221 83t68 269t-68 269t-221 83q-155 0 -223 -82t-68 -270zM934 1434q0 -161 -78.5 -234.5t-251.5 -73.5
t-252.5 73.5t-79.5 234.5h162q0 -94 40.5 -136.5t129.5 -42.5t129.5 42.5t40.5 136.5h160z" />
    <glyph glyph-name="Ohungarumlaut" unicode="&#x150;" horiz-adv-x="1617" 
d="M809 1475q371 0 539 -180.5t168 -577.5t-168 -577.5t-539 -180.5q-372 0 -539.5 180t-167.5 578t167.5 578t539.5 180zM809 1268q-232 0 -335 -129.5t-103 -421.5t103 -421.5t335 -129.5t335 129.5t103 421.5t-103 421.5t-335 129.5zM524 1536l195 307h225l-242 -307
h-178zM903 1536l193 307h225l-242 -307h-176z" />
    <glyph glyph-name="ohungarumlaut" unicode="&#x151;" horiz-adv-x="1208" 
d="M604 1044q274 0 398 -126t124 -406t-124 -406t-398 -126q-275 0 -398.5 126t-123.5 406t123.5 406t398.5 126zM313 512q0 -186 68.5 -269t222.5 -83q153 0 221 83t68 269t-68 269t-221 83q-155 0 -223 -82t-68 -270zM319 1126l195 308h225l-241 -308h-179zM698 1126
l193 308h225l-242 -308h-176z" />
    <glyph glyph-name="OE" unicode="&#x152;" horiz-adv-x="2301" 
d="M2220 1434h2v-197h-717v-397h635v-193h-635v-454h717v-195h-950v195q-36 -63 -84.5 -108.5t-93 -69t-100 -37t-93 -16.5t-84.5 -3q-373 0 -543 185t-170 591q0 387 155.5 563.5t498.5 176.5q196 0 319.5 -57t192.5 -179v195h950zM811 1268q-232 0 -335 -129.5
t-103 -421.5t103 -421.5t335 -129.5t335 129.5t103 421.5t-103 421.5t-335 129.5z" />
    <glyph glyph-name="oe" unicode="&#x153;" horiz-adv-x="1957" 
d="M1104 418q13 -135 75 -209t195 -74q191 0 240 176h221q-34 -157 -154.5 -244t-306.5 -87q-248 0 -370 149q-108 -149 -400 -149q-275 0 -398.5 126t-123.5 406t123.5 406t398.5 126q292 0 400 -149q122 149 370 149q240 0 371 -142t131 -404v-80h-772zM315 512
q0 -186 68.5 -269t222.5 -83q153 0 221 83t68 269t-68 269t-221 83q-155 0 -223 -82t-68 -270zM1374 889q-143 0 -205 -86t-69 -244h542q0 330 -268 330z" />
    <glyph glyph-name="Racute" unicode="&#x154;" horiz-adv-x="1458" 
d="M791 535h-351v-535h-256v1434h633q136 0 237.5 -33.5t163 -95t91.5 -143t30 -183.5q0 -342 -301 -420l318 -559h-273zM440 717h365q278 0 278 262q0 129 -67.5 194.5t-210.5 65.5h-365v-522zM565 1536l203 246h227l-239 -246h-191z" />
    <glyph glyph-name="racute" unicode="&#x155;" horiz-adv-x="817" 
d="M375 512v-512h-232v1024h185l32 -106q86 126 254 126h129v-206h-129q-138 0 -188.5 -70t-50.5 -256zM305 1126l213 308h238l-260 -308h-191z" />
    <glyph glyph-name="Rcedilla" unicode="&#x156;" horiz-adv-x="1460" 
d="M1087 0l-294 535h-351v-535h-258v1434h635q136 0 237.5 -33.5t163 -95t91.5 -143t30 -183.5q0 -342 -301 -420l318 -559h-271zM444 717h365q142 0 209 66t67 196q0 129 -66.5 194.5t-209.5 65.5h-365v-522zM715 -90q57 0 82.5 -38.5t25.5 -123.5q0 -112 -47 -162.5
t-149 -50.5v90q43 0 62.5 23.5t19.5 75.5q-54 0 -78.5 19t-24.5 62q0 55 26 80t83 25z" />
    <glyph glyph-name="rcedilla" unicode="&#x157;" horiz-adv-x="806" 
d="M377 512v-512h-232v1024h185l32 -106q86 126 254 126h129v-206h-129q-138 0 -188.5 -70t-50.5 -256zM252 -90q57 0 82.5 -38.5t25.5 -123.5q0 -112 -47 -162.5t-149 -50.5v90q43 0 63.5 23.5t20.5 75.5q-55 0 -80 19t-25 62q0 55 26 80t83 25z" />
    <glyph glyph-name="Rcaron" unicode="&#x158;" horiz-adv-x="1458" 
d="M782 530v2h-342v-530h-256v1434h633q136 0 239 -37t163.5 -101.5t90 -144t29.5 -172.5q0 -154 -76.5 -266.5t-234.5 -157.5l328 -557h-273zM440 717h377q72 0 125 21.5t83 59.5t44 83t14 98q0 116 -63 188t-203 72h-377v-522zM979 1784l-188 -246h-234l-188 246h166
l139 -142l139 142h166z" />
    <glyph glyph-name="rcaron" unicode="&#x159;" horiz-adv-x="819" 
d="M389 512v-512h-231v1024h184l33 -106q86 126 254 126h129v-206h-129q-139 0 -189.5 -70t-50.5 -256zM737 1434l-180 -308h-231l-183 308h152l145 -189l146 189h151z" />
    <glyph glyph-name="Sacute" unicode="&#x15a;" horiz-adv-x="1331" 
d="M367 1065q0 -50 29.5 -87.5t79.5 -60.5t114.5 -41.5t136 -36t143 -37.5t136 -52t114.5 -75.5t79.5 -111.5t29.5 -155q0 -235 -134 -342t-429 -107q-296 0 -430 107.5t-134 343.5h232q0 -145 77.5 -208t254.5 -63q170 0 243.5 54t73.5 176q0 58 -29.5 101.5t-79 70
t-114 47t-136 37.5t-143 36t-136 48.5t-114 69t-79 102.5t-29.5 145q0 235 129 342t414 107q284 0 413 -107.5t129 -343.5h-233q0 143 -72.5 206.5t-236.5 63.5q-160 0 -229.5 -53t-69.5 -176zM545 1536l203 246h227l-240 -246h-190z" />
    <glyph glyph-name="sacute" unicode="&#x15b;" horiz-adv-x="1032" 
d="M311 764q0 -46 35 -76t91.5 -45t124.5 -27t136.5 -31.5t125 -49.5t91.5 -88.5t35 -141.5q0 -170 -106.5 -247.5t-341.5 -77.5q-221 0 -320.5 77.5t-99.5 249.5h219q0 -98 49 -141t160 -43q110 0 158.5 36.5t48.5 119.5q0 51 -34.5 84t-90 49t-122 28t-133.5 30
t-122.5 46.5t-90 85t-34.5 137.5q0 160 99.5 232.5t320.5 72.5q214 0 311 -73t97 -234h-209q0 88 -46.5 126t-152.5 38t-152.5 -32t-46.5 -105zM389 1126l213 308h238l-262 -308h-189z" />
    <glyph glyph-name="Scircumflex" unicode="&#x15c;" horiz-adv-x="1331" 
d="M367 1065q0 -50 29.5 -87.5t79.5 -60.5t114.5 -41.5t136 -36t143 -37.5t136 -52t114.5 -75.5t79.5 -111.5t29.5 -155q0 -235 -134 -342t-429 -107q-296 0 -430 107.5t-134 343.5h232q0 -145 77.5 -208t254.5 -63q170 0 243.5 54t73.5 176q0 58 -29.5 101.5t-79 70
t-114 47t-136 37.5t-143 36t-136 48.5t-114 69t-79 102.5t-29.5 145q0 235 129 342t414 107q284 0 413 -107.5t129 -343.5h-233q0 143 -72.5 206.5t-236.5 63.5q-160 0 -229.5 -53t-69.5 -176zM971 1536h-166l-139 141l-140 -141h-166l189 246h233z" />
    <glyph glyph-name="scircumflex" unicode="&#x15d;" horiz-adv-x="1032" 
d="M311 764q0 -46 35 -76t91.5 -45t124.5 -27t136.5 -31.5t125 -49.5t91.5 -88.5t35 -141.5q0 -170 -106.5 -247.5t-341.5 -77.5q-221 0 -320.5 77.5t-99.5 249.5h219q0 -98 49 -141t160 -43q110 0 158.5 36.5t48.5 119.5q0 51 -34.5 84t-90 49t-122 28t-133.5 30
t-122.5 46.5t-90 85t-34.5 137.5q0 160 99.5 232.5t320.5 72.5q214 0 311 -73t97 -234h-209q0 88 -46.5 126t-152.5 38t-152.5 -32t-46.5 -105zM807 1126h-152l-145 189l-145 -189h-152l180 308h234z" />
    <glyph glyph-name="Scedilla" unicode="&#x15e;" horiz-adv-x="1331" 
d="M578 -39l2 2q-250 13 -364 120.5t-114 326.5h232q0 -145 77.5 -208t254.5 -63q170 0 243.5 54t73.5 176q0 58 -29.5 101.5t-79 70t-114 47t-136 37.5t-143 36t-136 48.5t-114 69t-79 102.5t-29.5 145q0 235 129 342t414 107q284 0 413 -107.5t129 -343.5h-233
q0 143 -72.5 206.5t-236.5 63.5q-160 0 -229.5 -53t-69.5 -176q0 -50 29.5 -87.5t79.5 -60.5t114.5 -41.5t136 -36t143 -37.5t136 -52t114.5 -75.5t79.5 -111.5t29.5 -155q0 -226 -124.5 -334t-395.5 -115l-19 -63q4 -1 11.5 -2.5t28.5 -7.5t40 -14t42.5 -23t40.5 -33
t28.5 -45t11.5 -58q0 -107 -108 -166t-306 -59v104q240 0 240 121q0 48 -58.5 70t-128.5 22z" />
    <glyph glyph-name="scedilla" unicode="&#x15f;" horiz-adv-x="1032" 
d="M430 -18v2q-182 12 -265 90t-83 235h219q0 -98 49 -141t160 -43q110 0 158.5 36.5t48.5 119.5q0 51 -34.5 84t-90 49t-122 28t-133.5 30t-122.5 46.5t-90 85t-34.5 137.5q0 160 99.5 233t320.5 73q214 0 311 -73.5t97 -234.5h-209q0 88 -46.5 126t-152.5 38t-152.5 -32
t-46.5 -105q0 -46 35 -76t91.5 -45t124.5 -27t136.5 -31.5t125 -49.5t91.5 -88.5t35 -141.5q0 -160 -93.5 -238t-297.5 -87l-22 -86q8 -1 21.5 -4t48.5 -16.5t61.5 -32t48.5 -53t22 -77.5q0 -107 -107.5 -166t-305.5 -59v104q239 0 239 121q0 48 -58 70t-128 22z" />
    <glyph glyph-name="Scaron" unicode="&#x160;" horiz-adv-x="1331" 
d="M367 1065q0 -50 29.5 -87.5t79.5 -60.5t114.5 -41.5t136 -36t143 -37.5t136 -52t114.5 -75.5t79.5 -111.5t29.5 -155q0 -235 -134 -342t-429 -107q-296 0 -430 107.5t-134 343.5h232q0 -145 77.5 -208t254.5 -63q170 0 243.5 54t73.5 176q0 58 -29.5 101.5t-79 70
t-114 47t-136 37.5t-143 36t-136 48.5t-114 69t-79 102.5t-29.5 145q0 235 129 342t414 107q284 0 413 -107.5t129 -343.5h-233q0 143 -72.5 206.5t-236.5 63.5q-160 0 -229.5 -53t-69.5 -176zM958 1782l-188 -246h-233l-189 246h166l139 -142l140 142h165z" />
    <glyph glyph-name="scaron" unicode="&#x161;" horiz-adv-x="1032" 
d="M311 764q0 -46 35 -76t91.5 -45t124.5 -27t136.5 -31.5t125 -49.5t91.5 -88.5t35 -141.5q0 -170 -106.5 -247.5t-341.5 -77.5q-221 0 -320.5 77.5t-99.5 249.5h219q0 -98 49 -141t160 -43q110 0 158.5 36.5t48.5 119.5q0 51 -34.5 84t-90 49t-122 28t-133.5 30
t-122.5 46.5t-90 85t-34.5 137.5q0 160 99.5 232.5t320.5 72.5q214 0 311 -73t97 -234h-209q0 88 -46.5 126t-152.5 38t-152.5 -32t-46.5 -105zM807 1434l-180 -308h-234l-180 308h152l145 -191l145 191h152z" />
    <glyph glyph-name="Tcedilla" unicode="&#x162;" horiz-adv-x="1290" 
d="M573 0h-57v1227h-434v207h1126v-207h-434v-1227h-74l-28 -104q8 -1 21.5 -4t48.5 -16.5t61.5 -32t48.5 -53t22 -77.5q0 -108 -107 -166.5t-306 -58.5v104q239 0 239 121q0 26 -18 44.5t-47.5 28.5t-59 14.5t-59.5 4.5z" />
    <glyph glyph-name="tcedilla" unicode="&#x163;" horiz-adv-x="823" 
d="M426 12q-98 26 -149.5 100t-51.5 185v571h-164v156h164v250h234v-250h303v-156h-303v-546q0 -65 38.5 -103.5t114.5 -38.5h150v-180h-211l-31 -104q4 -1 11.5 -2.5t28.5 -7.5t40 -14t42.5 -23t40.5 -33t28.5 -45t11.5 -58q0 -108 -107.5 -166.5t-306.5 -58.5v104
q242 0 242 121q0 48 -58 70t-128 22z" />
    <glyph glyph-name="Tcaron" unicode="&#x164;" horiz-adv-x="1290" 
d="M1208 1434v-207h-434v-1227h-258v1227h-434v207h1126zM938 1782l-188 -246h-234l-188 246h166l139 -142l139 142h166z" />
    <glyph glyph-name="tcaron" unicode="&#x165;" horiz-adv-x="823" 
d="M459 322q0 -65 38.5 -103.5t114.5 -38.5h150v-180h-234q-146 0 -224.5 79t-78.5 218v571h-164v156h164v250h234v-250h303v-156h-303v-546zM647 1464h-1q56 0 82 -39.5t26 -124.5q0 -115 -47.5 -168t-149.5 -53v92q44 0 64 25t20 82q-55 0 -78.5 20.5t-23.5 69.5
q0 96 107 96h1z" />
    <glyph glyph-name="Utilde" unicode="&#x168;" horiz-adv-x="1495" 
d="M164 524v910h256v-910q0 -189 77.5 -273.5t250.5 -84.5q172 0 248.5 84.5t76.5 273.5v910h258v-910q0 -296 -138.5 -430.5t-444.5 -134.5q-307 0 -445.5 134t-138.5 431zM416 1556q0 103 54 160.5t136 57.5q57 0 104.5 -19t74 -41.5t60 -41.5t66.5 -19q29 0 47.5 23.5
t18.5 64.5h100q0 -103 -53.5 -160t-136.5 -57q-57 0 -104.5 19t-73.5 41.5t-59.5 41.5t-65.5 19q-30 0 -49 -23.5t-19 -65.5h-100z" />
    <glyph glyph-name="utilde" unicode="&#x169;" horiz-adv-x="1187" 
d="M817 98q-95 -118 -313 -118q-206 0 -299.5 116.5t-93.5 374.5v553h233v-553q0 -166 51 -238.5t168 -72.5q125 0 181.5 73.5t56.5 237.5v553h231v-1024h-184zM250 1229q0 106 55.5 178t134.5 72q47 0 86 -18t65.5 -43.5t49 -51t46 -43.5t46.5 -18q29 0 47.5 28.5
t18.5 79.5h112q0 -107 -55 -178.5t-135 -71.5q-47 0 -86 18t-65.5 43.5t-48.5 51t-45 43.5t-46 18q-30 0 -49 -28.5t-19 -79.5h-112z" />
    <glyph glyph-name="Umacron" unicode="&#x16a;" horiz-adv-x="1495" 
d="M164 524v910h256v-910q0 -189 77.5 -273.5t250.5 -84.5q172 0 248.5 84.5t76.5 273.5v910h258v-910q0 -296 -138.5 -430.5t-444.5 -134.5q-307 0 -445.5 134t-138.5 431zM397 1702h697v-143h-697v143z" />
    <glyph glyph-name="umacron" unicode="&#x16b;" horiz-adv-x="1187" 
d="M817 98q-95 -118 -313 -118q-206 0 -299.5 116.5t-93.5 374.5v553h233v-553q0 -166 51 -238.5t168 -72.5q125 0 181.5 73.5t56.5 237.5v553h231v-1024h-184zM233 1196v141h697v-141h-697z" />
    <glyph glyph-name="Ubreve" unicode="&#x16c;" horiz-adv-x="1495" 
d="M164 524v910h256v-910q0 -189 77.5 -273.5t250.5 -84.5q172 0 248.5 84.5t76.5 273.5v910h258v-910q0 -296 -138.5 -430.5t-444.5 -134.5q-307 0 -445.5 134t-138.5 431zM1077 1782q0 -129 -78 -187.5t-251 -58.5t-252.5 58.5t-79.5 187.5h172q0 -68 38 -98.5t122 -30.5
q85 0 121 30t36 99h172z" />
    <glyph glyph-name="ubreve" unicode="&#x16d;" horiz-adv-x="1187" 
d="M817 98q-95 -118 -313 -118q-206 0 -299.5 116.5t-93.5 374.5v553h233v-553q0 -166 51 -238.5t168 -72.5q125 0 181.5 73.5t56.5 237.5v553h231v-1024h-184zM731 1434h160q0 -161 -78.5 -234.5t-251.5 -73.5t-252.5 73.5t-79.5 234.5h162q0 -94 40.5 -136.5t129.5 -42.5
q90 0 130 42.5t40 136.5z" />
    <glyph glyph-name="Uring" unicode="&#x16e;" horiz-adv-x="1495" 
d="M164 524v910h256v-910q0 -189 77.5 -273.5t250.5 -84.5q172 0 248.5 84.5t76.5 273.5v910h258v-910q0 -296 -138.5 -430.5t-444.5 -134.5q-307 0 -445.5 134t-138.5 431zM748 1833q126 0 182.5 -50t56.5 -161q0 -109 -56.5 -159t-182.5 -50q-127 0 -184.5 50t-57.5 159
q0 110 57.5 160.5t184.5 50.5zM748 1518q62 0 88 24t26 80q0 57 -26.5 82t-87.5 25q-63 0 -90 -25t-27 -82q0 -56 27 -80t90 -24z" />
    <glyph glyph-name="uring" unicode="&#x16f;" horiz-adv-x="1187" 
d="M817 98q-95 -118 -313 -118q-206 0 -299.5 116.5t-93.5 374.5v553h233v-553q0 -166 51 -238.5t168 -72.5q125 0 181.5 73.5t56.5 237.5v553h231v-1024h-184zM575 1520q126 0 183 -49.5t57 -159.5t-57 -160.5t-183 -50.5t-183.5 50.5t-57.5 160.5t57.5 159.5t183.5 49.5z
M575 1206q63 0 89 24t26 81t-26 80.5t-89 23.5t-89.5 -23.5t-26.5 -80.5t26.5 -81t89.5 -24z" />
    <glyph glyph-name="Uhungarumlaut" unicode="&#x170;" horiz-adv-x="1495" 
d="M164 524v910h256v-910q0 -189 77.5 -273.5t250.5 -84.5q172 0 248.5 84.5t76.5 273.5v910h258v-910q0 -296 -138.5 -430.5t-444.5 -134.5q-307 0 -445.5 134t-138.5 431zM463 1536l194 307h226l-242 -307h-178zM842 1536l192 307h226l-242 -307h-176z" />
    <glyph glyph-name="uhungarumlaut" unicode="&#x171;" horiz-adv-x="1204" 
d="M817 98q-95 -118 -313 -118q-206 0 -299.5 116.5t-93.5 374.5v553h233v-553q0 -166 51 -238.5t168 -72.5q125 0 181.5 73.5t56.5 237.5v553h231v-1024h-184zM459 1434h225l-242 -308h-178zM836 1434h225l-242 -308h-176z" />
    <glyph glyph-name="Uogonek" unicode="&#x172;" horiz-adv-x="1495" 
d="M1331 522q0 -229 -82.5 -359.5t-257.5 -176.5q-67 -57 -98 -126t-10.5 -117t90.5 -48q26 0 53 7.5t41 15.5l14 8v-197q-61 -41 -143 -41q-86 0 -140.5 48.5t-67.5 119.5t15 155t95 150q-58 -4 -92 -4q-307 0 -445.5 134t-138.5 431v910h256v-910q0 -189 77.5 -273.5
t250.5 -84.5q172 0 248.5 84.5t76.5 273.5v910h258v-910z" />
    <glyph glyph-name="uogonek" unicode="&#x173;" horiz-adv-x="1196" 
d="M854 0h-4l-31 98q-95 -118 -313 -118q-206 0 -299.5 116.5t-93.5 374.5v553h233v-553q0 -166 51 -238.5t168 -72.5q125 0 181.5 73.5t56.5 237.5v553h231v-1024h-53q-94 -73 -124 -164q-27 -84 21 -121q26 -20 68 -20q25 0 52.5 7.5t41.5 15.5l15 8v-197
q-62 -41 -144 -41q-92 0 -147.5 55.5t-64 134t31.5 168.5t123 154z" />
    <glyph glyph-name="Wcircumflex" unicode="&#x174;" horiz-adv-x="2093" 
d="M893 1434h307l260 -1194l293 1194h258l-377 -1434h-331l-267 1196l-245 -1196h-332l-377 1434h258l293 -1194zM1346 1536h-166l-140 141l-139 -141h-166l189 246h233z" />
    <glyph glyph-name="wcircumflex" unicode="&#x175;" horiz-adv-x="1755" 
d="M1372 0l-2 -2h-283l-210 858l-211 -856h-283l-322 1024h236l238 -840l206 840h283l197 -842l237 842h236zM1171 1126h-153l-144 189l-145 -189h-154l183 308h231z" />
    <glyph glyph-name="Ycircumflex" unicode="&#x176;" horiz-adv-x="1361" 
d="M809 563v-563h-244v563l-504 871h283l344 -633l342 633h270zM991 1536h-166l-141 141l-139 -141h-166l190 246h232z" />
    <glyph glyph-name="ycircumflex" unicode="&#x177;" horiz-adv-x="1087" 
d="M481 8l6 19l-446 997h223l316 -725l243 725h224l-390 -1092q-57 -158 -141.5 -229.5t-214.5 -71.5h-131v156h119q60 0 105.5 52t86.5 169zM852 1126h-152l-145 189l-143 -189h-154l182 308h232z" />
    <glyph glyph-name="Ydieresis" unicode="&#x178;" horiz-adv-x="1361" 
d="M809 563v-563h-244v563l-504 871h283l344 -633l342 633h270zM469 1761q75 0 110 -30.5t35 -96.5q0 -65 -34.5 -94t-110.5 -29q-75 0 -110 29.5t-35 93.5q0 66 34.5 96.5t110.5 30.5zM899 1761q76 0 110.5 -30.5t34.5 -96.5q0 -65 -34.5 -94t-110.5 -29q-75 0 -110 29.5
t-35 93.5q0 66 35 96.5t110 30.5z" />
    <glyph glyph-name="Zacute" unicode="&#x179;" horiz-adv-x="1284" 
d="M383 195h819v-195h-1120v162l799 1077h-779v195h1080v-162zM508 1536l205 246h227l-242 -246h-190z" />
    <glyph glyph-name="zacute" unicode="&#x17a;" horiz-adv-x="997" 
d="M340 168h596v-168h-875v137l578 719h-557v168h833v-137zM379 1126l213 308h237l-262 -308h-188z" />
    <glyph glyph-name="Zdotaccent" unicode="&#x17b;" horiz-adv-x="1284" 
d="M383 195h819v-195h-1120v162l799 1077h-779v195h1080v-162zM641 1782q76 0 110.5 -30.5t34.5 -96.5q0 -65 -34.5 -94t-110.5 -29q-75 0 -110 29.5t-35 93.5q0 66 35 96.5t110 30.5z" />
    <glyph glyph-name="zdotaccent" unicode="&#x17c;" horiz-adv-x="997" 
d="M340 168h596v-168h-875v137l578 719h-557v168h833v-137zM500 1444q75 0 110 -33.5t35 -105.5t-35 -105t-112 -33q-75 0 -109.5 33.5t-34.5 104.5q0 72 35 105.5t111 33.5z" />
    <glyph glyph-name="Zcaron" unicode="&#x17d;" horiz-adv-x="1284" 
d="M383 195h819v-195h-1120v162l799 1077h-779v195h1080v-162zM936 1782l-191 -246h-231l-190 246h165l142 -142l139 142h166z" />
    <glyph glyph-name="zcaron" unicode="&#x17e;" horiz-adv-x="997" 
d="M340 168h596v-168h-875v137l578 719h-557v168h833v-137zM797 1434l-181 -308h-233l-180 308h151l146 -189l143 189h154z" />
    <glyph glyph-name="Aacutering" unicode="&#x1fa;" horiz-adv-x="1437" 
d="M61 0l494 1434h352l469 -1434h-270l-100 322h-586l-103 -322h-256zM477 502h471l-233 751zM834 1825q122 -38 122 -162q0 -85 -64 -130.5t-175 -45.5q-112 0 -177 45.5t-65 130.5q0 86 65 132t177 46l96 125h156zM719 1579q59 0 93 21.5t34 62.5q0 42 -33.5 64t-93.5 22
t-94.5 -22t-34.5 -64q0 -40 34.5 -62t94.5 -22z" />
    <glyph glyph-name="aacutering" unicode="&#x1fb;" horiz-adv-x="1126" 
d="M791 102q-96 -122 -330 -122q-199 0 -289 76t-90 243q0 183 113 265.5t364 82.5h211v49q0 109 -50 157t-163 48q-115 0 -164 -42.5t-49 -141.5h-221q0 172 104 249.5t336 77.5q229 0 335 -89t106 -283v-672h-185zM770 506h-166q-50 0 -86 -3t-77.5 -14t-67 -31.5
t-43 -57.5t-17.5 -89q0 -89 49 -126.5t160 -37.5q123 0 182.5 58.5t65.5 185.5v115zM702 1614h177l-168 -160q90 -50 90 -164q0 -94 -62 -145t-178 -51q-117 0 -179.5 51t-62.5 145t62.5 145.5t179.5 51.5h29zM563 1198q64 0 89.5 21t25.5 71t-25.5 71t-89.5 21t-90.5 -21
t-26.5 -71t26.5 -71t90.5 -21z" />
    <glyph glyph-name="AEacute" unicode="&#x1fc;" horiz-adv-x="1929" 
d="M1847 1239h-661v-397h579v-193h-579v-454h661v-195h-895v322h-471l-162 -322h-258l740 1434h1046v-195zM952 1257l-381 -755h381v755zM999 1536l203 246h228l-240 -246h-191z" />
    <glyph glyph-name="aeacute" unicode="&#x1fd;" horiz-adv-x="1853" 
d="M1772 418h-766q12 -147 75.5 -214t192.5 -67q103 0 158.5 40.5t83.5 135.5h219q-35 -173 -144.5 -252t-316.5 -79q-158 0 -256.5 57t-143.5 178q-37 -123 -137.5 -180t-275.5 -57q-198 0 -288.5 76t-90.5 243q0 179 105 263.5t333 84.5h250v49q0 107 -54 150t-165 43
q-112 0 -159.5 -39.5t-47.5 -132.5h-221q0 172 104 249.5t336 77.5q269 0 348 -157q101 157 359 157q264 0 383 -129.5t119 -416.5v-80zM768 504h-186q-143 0 -207 -45.5t-64 -147.5q0 -45 14 -76.5t34.5 -48t55.5 -26t64 -11.5t72 -2q114 0 165.5 60.5t51.5 185.5v111z
M1274 891q-135 0 -200.5 -78.5t-72.5 -251.5h543q0 176 -63.5 253t-206.5 77zM793 1126l213 308h237l-262 -308h-188z" />
    <glyph glyph-name="Oslashacute" unicode="&#x1fe;" horiz-adv-x="1617" 
d="M1061 1597h160l-62 -180q184 -72 270.5 -243.5t86.5 -458.5q0 -397 -168 -577.5t-539 -180.5q-91 0 -156 8l-45 -129h-162l58 160q-208 64 -305 238.5t-97 480.5q0 398 167.5 578t539.5 180q111 0 203 -15zM942 1255q-63 13 -133 13q-232 0 -335 -129.5t-103 -421.5
q0 -205 50 -328.5t157 -177.5zM723 170q54 -4 86 -4q232 0 335 129.5t103 421.5q0 184 -40 301t-126 178zM649 1534l205 246h225l-239 -246h-191z" />
    <glyph glyph-name="oslashacute" unicode="&#x1ff;" horiz-adv-x="1210" 
d="M604 1044q86 0 125 -4l45 127h113l-51 -149q151 -45 221.5 -168t70.5 -336q0 -280 -124 -406t-398 -126q-66 0 -125 6l-45 -131h-112l51 151q-152 46 -222.5 168.5t-70.5 335.5q0 280 123.5 406t398.5 126zM602 866q-155 0 -224 -82.5t-69 -269.5q0 -246 125 -317
l230 665q-36 4 -62 4zM768 831l-229 -665q40 -4 63 -4q153 0 221 83t68 269q0 247 -123 317zM430 1128l213 308h238l-260 -308h-191z" />
    <glyph glyph-name="Scommaaccent" unicode="&#x218;" horiz-adv-x="1331" 
d="M367 1065q0 -50 29.5 -87.5t79.5 -60.5t114.5 -41.5t136 -36t143 -37.5t136 -52t114.5 -75.5t79.5 -111.5t29.5 -155q0 -235 -134 -342t-429 -107q-296 0 -430 107.5t-134 343.5h232q0 -145 77.5 -208t254.5 -63q170 0 243.5 54t73.5 176q0 58 -29.5 101.5t-79 70
t-114 47t-136 37.5t-143 36t-136 48.5t-114 69t-79 102.5t-29.5 145q0 235 129 342t414 107q284 0 413 -107.5t129 -343.5h-233q0 143 -72.5 206.5t-236.5 63.5q-160 0 -229.5 -53t-69.5 -176zM666 -90q57 0 82.5 -38.5t25.5 -123.5q-1 -112 -48.5 -162.5t-150.5 -50.5l3 90
q43 0 62 23.5t19 75.5q-54 0 -78 19t-24 62q0 55 26 80t83 25z" />
    <glyph glyph-name="scommaaccent" unicode="&#x219;" horiz-adv-x="1034" 
d="M311 764q0 -46 35.5 -76t92 -45t124.5 -27t136.5 -31.5t125 -49.5t92 -88.5t35.5 -141.5q0 -170 -106.5 -247.5t-341.5 -77.5q-221 0 -321.5 77.5t-100.5 249.5h221q0 -98 49 -141t160 -43q110 0 158.5 36.5t48.5 119.5q0 51 -34.5 84t-90 49t-122 28t-133.5 30
t-122.5 46.5t-90 85t-34.5 137.5q0 160 99.5 232.5t320.5 72.5q214 0 311 -73t97 -234h-209q0 88 -46.5 126t-152.5 38t-153.5 -32t-47.5 -105zM512 -90q57 0 83 -38.5t26 -123.5q-1 -112 -49 -162.5t-150 -50.5v90q44 0 64 23.5t20 75.5q-55 0 -80 19t-25 62q0 55 26 80
t85 25z" />
    <glyph glyph-name="uni021A" unicode="&#x21a;" horiz-adv-x="1290" 
d="M1208 1434v-207h-436v-1227h-256v1227h-434v207h1126zM645 -90q57 0 83 -38.5t26 -123.5q-1 -112 -49 -162.5t-150 -50.5v90q44 0 64 23.5t20 75.5q-53 0 -78.5 19.5t-25.5 61.5q0 56 26 80.5t84 24.5z" />
    <glyph glyph-name="uni021B" unicode="&#x21b;" horiz-adv-x="823" 
d="M459 322q0 -65 38.5 -103.5t114.5 -38.5h150v-180h-234q-146 0 -224.5 79t-78.5 218v571h-164v156h164v250h234v-250h303v-156h-303v-546zM471 -90q57 0 83 -38.5t26 -123.5q-3 -112 -50.5 -162.5t-148.5 -50.5v90q44 0 64 23.5t20 75.5q-55 0 -80 19t-25 62q0 55 26 80
t85 25z" />
    <glyph glyph-name="circumflex" unicode="&#x2c6;" horiz-adv-x="757" 
d="M496 1434l180 -308h-154l-143 189l-146 -189h-151l180 308h234z" />
    <glyph glyph-name="caron" unicode="&#x2c7;" horiz-adv-x="757" 
d="M676 1434l-180 -308h-234l-180 308h151l146 -189l143 189h154z" />
    <glyph glyph-name="breve" unicode="&#x2d8;" horiz-adv-x="825" 
d="M582 1434h161q0 -161 -79 -234.5t-252 -73.5t-251.5 73.5t-78.5 234.5h160q0 -94 40.5 -136.5t129.5 -42.5q90 0 130 42.5t40 136.5z" />
    <glyph glyph-name="dotaccent" unicode="&#x2d9;" horiz-adv-x="454" 
d="M225 1497q77 0 112.5 -32.5t35.5 -104.5t-35.5 -104.5t-112.5 -32.5q-75 0 -109 32.5t-34 104.5t34 104.5t109 32.5z" />
    <glyph glyph-name="ring" unicode="&#x2da;" horiz-adv-x="645" 
d="M322 1479q126 0 183.5 -49.5t57.5 -159.5t-57.5 -160.5t-183.5 -50.5t-183 50.5t-57 160.5t57 159.5t183 49.5zM322 1165q63 0 89.5 24t26.5 81t-26.5 80.5t-89.5 23.5t-89 -23.5t-26 -80.5t26 -81t89 -24z" />
    <glyph glyph-name="ogonek" unicode="&#x2db;" horiz-adv-x="518" 
d="M272 25h125q-103 -65 -147 -161q-40 -87 -3 -136q25 -33 81 -33q25 0 52 7.5t42 15.5l14 8v-197q-61 -41 -143 -41q-64 0 -112 28.5t-72 73.5t-27 103.5t16 117.5t64 116t110 98z" />
    <glyph glyph-name="tilde" unicode="&#x2dc;" horiz-adv-x="825" 
d="M82 1229q0 107 55 178.5t135 71.5q47 0 86 -18t65.5 -43.5t49 -51t46 -43.5t46.5 -18q29 0 47.5 28.5t18.5 79.5h112q0 -106 -55.5 -178t-134.5 -72q-47 0 -86 18t-65.5 43.5t-49 51t-46 43.5t-46.5 18q-29 0 -47 -28.5t-18 -79.5h-113z" />
    <glyph glyph-name="hungarumlaut" unicode="&#x2dd;" horiz-adv-x="958" 
d="M82 1126l192 308h226l-242 -308h-176zM459 1126l192 308h226l-242 -308h-176z" />
    <glyph glyph-name="Wgrave" unicode="&#x1e80;" horiz-adv-x="2093" 
d="M893 1434h307l260 -1194l293 1194h258l-377 -1434h-331l-267 1196l-245 -1196h-332l-377 1434h258l293 -1194zM1161 1536h-178l-252 246h215z" />
    <glyph glyph-name="wgrave" unicode="&#x1e81;" horiz-adv-x="1755" 
d="M1372 0l-2 -2h-283l-210 858l-211 -856h-283l-322 1024h236l238 -840l206 840h283l197 -842l237 842h236zM995 1126h-190l-260 308h237z" />
    <glyph glyph-name="Wacute" unicode="&#x1e82;" horiz-adv-x="2093" 
d="M893 1434h307l260 -1194l293 1194h258l-377 -1434h-331l-267 1196l-245 -1196h-332l-377 1434h258l293 -1194zM920 1536l202 246h228l-240 -246h-190z" />
    <glyph glyph-name="wacute" unicode="&#x1e83;" horiz-adv-x="1755" 
d="M1372 0l-2 -2h-283l-210 858l-211 -856h-283l-322 1024h236l238 -840l206 840h283l197 -842l237 842h236zM801 1434l213 -308h-189l-262 308h238z" />
    <glyph glyph-name="Wdieresis" unicode="&#x1e84;" horiz-adv-x="2093" 
d="M893 1434h307l258 -1196l295 1196h258l-377 -1434h-331l-267 1196l-245 -1196h-332l-377 1434h258l293 -1196zM825 1761q75 0 110.5 -30.5t35.5 -96.5q0 -64 -35.5 -93.5t-110.5 -29.5q-76 0 -110.5 29t-34.5 94q0 66 34.5 96.5t110.5 30.5zM1255 1761q75 0 110.5 -30.5
t35.5 -96.5q0 -64 -35.5 -93.5t-110.5 -29.5q-76 0 -110.5 29t-34.5 94q0 66 34.5 96.5t110.5 30.5z" />
    <glyph glyph-name="wdieresis" unicode="&#x1e85;" horiz-adv-x="1755" 
d="M1372 0l-2 -2h-283l-210 858l-211 -856h-283l-322 1024h236l238 -840l206 840h283l197 -842l237 842h236zM659 1448q77 0 111.5 -34t34.5 -109t-35 -109.5t-111 -34.5q-75 0 -110 34.5t-35 109.5t35 109t110 34zM1067 1448q75 0 110 -34t35 -109t-35 -109.5t-110 -34.5
q-76 0 -110.5 34.5t-34.5 109.5t34.5 109t110.5 34z" />
    <glyph glyph-name="uni1E9E" unicode="&#x1e9e;" horiz-adv-x="1320" 
d="M668 1475q80 0 148.5 -11t132.5 -39t108.5 -71.5t71 -112t26.5 -156.5q0 -115 -65.5 -179.5t-202.5 -94.5q175 -32 253.5 -124.5t78.5 -264.5q0 -221 -97 -321.5t-311 -100.5q-56 0 -110.5 10t-80.5 20l-26 11v168q86 -29 156 -29q124 0 179.5 60.5t55.5 193.5
q0 84 -25 140.5t-74.5 85.5t-108.5 40t-142 11v174q161 0 231 46t70 152q0 107 -61 159t-195 52q-151 0 -218 -74.5t-67 -222.5v-997h-231v1022q0 453 504 453z" />
    <glyph glyph-name="Ygrave" unicode="&#x1ef2;" horiz-adv-x="1361" 
d="M809 563v-563h-244v563l-504 871h283l344 -633l342 633h270zM807 1536h-180l-252 246h215z" />
    <glyph glyph-name="ygrave" unicode="&#x1ef3;" horiz-adv-x="1087" 
d="M481 8l6 19l-446 997h223l316 -725l243 725h224l-390 -1092q-57 -158 -141.5 -229.5t-214.5 -71.5h-131v156h119q60 0 105.5 52t86.5 169zM676 1126h-189l-262 308h240z" />
    <glyph glyph-name="endash" unicode="&#x2013;" horiz-adv-x="1228" 
d="M1147 637v-180h-1065v180h1065z" />
    <glyph glyph-name="emdash" unicode="&#x2014;" horiz-adv-x="1679" 
d="M1597 637v-180h-1515v180h1515z" />
    <glyph glyph-name="quoteleft" unicode="&#x2018;" horiz-adv-x="454" 
d="M240 846q-83 0 -120.5 56.5t-37.5 182.5q0 182 65 265.5t205 83.5v-117q-63 0 -91 -42.5t-28 -139.5q71 0 105.5 -33.5t34.5 -106.5q0 -79 -31 -114t-102 -35z" />
    <glyph glyph-name="quoteright" unicode="&#x2019;" horiz-adv-x="454" 
d="M215 1454q83 0 120.5 -55.5t37.5 -181.5q0 -182 -65.5 -265.5t-205.5 -83.5v115q63 0 91 43.5t28 140.5q-71 0 -105 33.5t-34 104.5q0 79 31 114t102 35z" />
    <glyph glyph-name="quotesinglbase" unicode="&#x201a;" horiz-adv-x="452" 
d="M213 268q84 0 121 -56t37 -183q0 -182 -64.5 -265t-204.5 -83v116q64 0 91.5 43t27.5 140q-72 0 -105.5 33t-33.5 106q0 78 31 113.5t100 35.5z" />
    <glyph glyph-name="quotedblleft" unicode="&#x201c;" horiz-adv-x="858" 
d="M240 846q-83 0 -120.5 56.5t-37.5 182.5q0 182 64.5 265.5t205.5 83.5v-117q-63 0 -91 -42.5t-28 -139.5q71 0 105.5 -33.5t34.5 -106.5q0 -79 -31 -114t-102 -35zM645 846q-83 0 -120.5 56.5t-37.5 182.5q0 182 65 265.5t206 83.5v-117q-63 0 -92 -43t-29 -139
q72 0 105.5 -33.5t33.5 -106.5q0 -149 -131 -149z" />
    <glyph glyph-name="quotedblright" unicode="&#x201d;" horiz-adv-x="858" 
d="M215 1454q83 0 120.5 -55.5t37.5 -181.5q0 -182 -65.5 -265.5t-205.5 -83.5v115q63 0 91 44t28 140q-72 0 -105.5 33.5t-33.5 104.5q0 79 31 114t102 35zM621 1454q81 0 118 -56.5t37 -180.5q0 -183 -64 -266t-204 -83v115q63 0 91 43.5t28 140.5q-72 0 -106 33.5
t-34 104.5q0 79 31.5 114t102.5 35z" />
    <glyph glyph-name="quotedblbase" unicode="&#x201e;" horiz-adv-x="858" 
d="M215 268q83 0 120.5 -56.5t37.5 -182.5q0 -182 -65.5 -265t-205.5 -83v116q63 0 91 43t28 140q-72 0 -105.5 33.5t-33.5 105.5q0 79 31 114t102 35zM621 268q82 0 118.5 -56.5t36.5 -182.5q0 -183 -64 -265.5t-204 -82.5v116q63 0 91 43t28 140q-72 0 -106 33.5
t-34 105.5q0 79 31.5 114t102.5 35z" />
    <glyph glyph-name="ellipsis" unicode="&#x2026;" horiz-adv-x="1384" 
d="M225 276q77 0 112.5 -35t35.5 -110t-35.5 -109t-112.5 -34q-75 0 -109 34t-34 109t34 110t109 35zM692 276q75 0 110.5 -35t35.5 -110t-35.5 -109t-112.5 -34q-75 0 -109 34t-34 109t34.5 110t110.5 35zM1157 276q75 0 110.5 -35t35.5 -110t-35.5 -109t-112.5 -34
q-75 0 -109 34t-34 109t34.5 110t110.5 35z" />
    <glyph glyph-name="perthousand" unicode="&#x2030;" horiz-adv-x="2594" 
d="M1364 799q180 0 261 -95.5t81 -306.5q0 -212 -81 -306.5t-261 -94.5q-181 0 -262.5 94.5t-81.5 306.5q0 211 82 306.5t262 95.5zM1364 137q91 0 130.5 61t39.5 199q0 137 -39.5 197.5t-130.5 60.5t-130.5 -60.5t-39.5 -197.5q0 -138 39.5 -199t130.5 -61zM2169 799
q181 0 262.5 -95.5t81.5 -306.5q0 -212 -81 -306.5t-263 -94.5q-180 0 -261 94.5t-81 306.5q0 211 81 306.5t261 95.5zM2169 137q91 0 130.5 61t39.5 199q0 137 -39.5 197.5t-128.5 60.5q-92 0 -132 -60.5t-40 -197.5q0 -138 39.5 -199t130.5 -61zM424 1454q181 0 262.5 -95
t81.5 -306q0 -212 -81 -307t-263 -95q-180 0 -261 95t-81 307q0 211 81 306t261 95zM424 793q91 0 130.5 61t39.5 199q0 137 -39.5 197.5t-128.5 60.5q-92 0 -132 -60.5t-40 -197.5q0 -138 39.5 -199t130.5 -61zM549 -61h-211l901 1556h211z" />
    <glyph glyph-name="guilsinglleft" unicode="&#x2039;" horiz-adv-x="643" 
d="M338 922h223l-244 -390l244 -409h-223l-256 409z" />
    <glyph glyph-name="guilsinglright" unicode="&#x203a;" horiz-adv-x="643" 
d="M82 922h223l256 -390l-256 -409h-223l244 409z" />
    <glyph glyph-name="lira" unicode="&#x20a4;" horiz-adv-x="1353" 
d="M1272 195v-195h-1170v227q100 37 148.5 101t54.5 168h-203v129h205v123h-205v131h205v145q0 229 102.5 340t323.5 111q253 0 365 -103t112 -348h-221q0 149 -52 216t-169 67q-68 0 -113.5 -19.5t-70 -59t-34 -88t-9.5 -116.5v-145h526v-131h-526v-123h526v-129h-528
q-7 -116 -62 -188.5t-164 -112.5h959z" />
    <glyph glyph-name="Euro" unicode="&#x20ac;" horiz-adv-x="1783" 
d="M1421 492h260q-57 -280 -219.5 -406.5t-466.5 -126.5q-333 0 -508 135.5t-213 427.5h-192v131h182v64v71h-182v132h192q40 289 214.5 422t506.5 133q324 0 486.5 -126.5t199.5 -406.5h-256q-28 172 -129 249t-301 77q-197 0 -305.5 -83.5t-142.5 -264.5h579v-132h-594
q-2 -23 -2 -71v-64h512v-131h-499q32 -186 140.5 -271t307.5 -85q193 0 293 76t137 250z" />
    <glyph glyph-name="trademark" unicode="&#x2122;" horiz-adv-x="2557" 
d="M995 1434v-195h-346v-829h-221v829h-346v195h913zM1167 410v1024h303l308 -772l307 772h289v-1024h-222v733l-301 -733h-159l-303 733v-733h-222z" />
    <glyph glyph-name="minus" unicode="&#x2212;" horiz-adv-x="839" 
d="M758 457h-676v180h676v-180z" />
    <glyph glyph-name="approxequal" unicode="&#x2248;" horiz-adv-x="1392" 
d="M82 281v172q67 64 140 92t141.5 24t139.5 -25.5t140.5 -54t138 -65.5t137 -55t133.5 -27t132 22t127 89v-172q-85 -82 -179.5 -106.5t-182 -3t-178 61.5t-179.5 81.5t-173.5 64t-172.5 1t-164 -98.5zM82 674v174q67 63 140 91t141.5 24t139.5 -26t140.5 -54.5t138 -65.5
t137 -55t133.5 -27t132 22t127 89v-172q-85 -82 -179.5 -106.5t-182 -3t-178 61.5t-179.5 81.5t-173.5 64t-172.5 1t-164 -98.5z" />
    <glyph glyph-name="notequal" unicode="&#x2260;" horiz-adv-x="1325" 
d="M401 0l93 260h-412v180h477l74 205h-551v180h614l72 199h137l-71 -199h409v-180h-473l-74 -205h547v-180h-612l-92 -260h-138z" />
    <glyph glyph-name="lessequal" unicode="&#x2264;" horiz-adv-x="983" 
d="M84 0v195h817v-195h-817zM82 1047l819 387v-222l-616 -290l616 -291v-221l-819 387v250z" />
    <glyph glyph-name="greaterequal" unicode="&#x2265;" horiz-adv-x="983" 
d="M82 0v195h819v-195h-819zM82 1434l819 -387v-250l-819 -387v221l616 291l-616 290v222z" />
    <glyph glyph-name="uniE132" unicode="&#xe132;" horiz-adv-x="1044" 
d="M393 0h-233v1024h233v-1024zM518 -188q76 0 115 38t39 103v1071h233v-1096q0 -139 -78.5 -218t-224.5 -79h-217v181h133zM143 1126l213 308h238l-260 -308h-191zM655 1126l213 308h238l-260 -308h-191z" />
    <glyph glyph-name="uniE133" unicode="&#xe133;" horiz-adv-x="1810" 
d="M184 1434h256v-1434h-256v1434zM676 430v59h246v-59q0 -140 50 -202t165 -62q116 0 166.5 61.5t50.5 202.5v1004h256v-1004q0 -242 -112 -350.5t-361 -108.5q-242 0 -351.5 109t-109.5 350zM190 1536l205 246h228l-240 -246h-193zM1360 1536l205 246h225l-240 -246h-190z
" />
    <glyph glyph-name="a.alt1" horiz-adv-x="1230" 
d="M522 -20q-232 0 -336 126t-104 406t104 406t336 126q239 0 344 -131l37 111h184v-1024h-184l-37 111q-105 -131 -344 -131zM584 160q141 0 204.5 83.5t63.5 268.5t-63.5 268.5t-204.5 83.5t-206 -84t-65 -268t65 -268t206 -84z" />
    <glyph glyph-name="aacute.alt1" horiz-adv-x="1230" 
d="M522 -20q-232 0 -336 126t-104 406t104 406t336 126q239 0 344 -131l37 111h184v-1024h-184l-37 111q-105 -131 -344 -131zM584 160q141 0 204.5 83.5t63.5 268.5t-63.5 268.5t-204.5 83.5t-206 -84t-65 -268t65 -268t206 -84zM692 1434h238l-260 -308h-191z" />
    <glyph glyph-name="aacutering.alt1" horiz-adv-x="1230" 
d="M522 -20q-232 0 -336 126t-104 406t104 406t336 126q239 0 344 -131l37 111h184v-1024h-184l-37 111q-105 -131 -344 -131zM584 160q141 0 204.5 83.5t63.5 268.5t-63.5 268.5t-204.5 83.5t-206 -84t-65 -268t65 -268t206 -84zM653 1473l109 122h178l-166 -157
q88 -51 88 -164q0 -94 -61.5 -145.5t-177.5 -51.5q-117 0 -179.5 51.5t-62.5 145.5q0 95 62.5 147t179.5 52h30zM625 1182q64 0 89 21t25 71t-25.5 72t-88.5 22q-64 0 -90.5 -22t-26.5 -72q0 -48 27 -70t90 -22z" />
    <glyph glyph-name="abreve.alt1" horiz-adv-x="1230" 
d="M522 -20q-232 0 -336 126t-104 406t104 406t336 126q239 0 344 -131l37 111h184v-1024h-184l-37 111q-105 -131 -344 -131zM584 160q141 0 204.5 83.5t63.5 268.5t-63.5 268.5t-204.5 83.5t-206 -84t-65 -268t65 -268t206 -84zM795 1434h159q0 -161 -78 -234.5
t-251 -73.5t-252.5 73.5t-79.5 234.5h162q0 -94 40.5 -136.5t129.5 -42.5q90 0 130 42.5t40 136.5z" />
    <glyph glyph-name="acircumflex.alt1" horiz-adv-x="1230" 
d="M522 -20q-232 0 -336 126t-104 406t104 406t336 126q239 0 344 -131l37 111h184v-1024h-184l-37 111q-105 -131 -344 -131zM584 160q141 0 204.5 83.5t63.5 268.5t-63.5 268.5t-204.5 83.5t-206 -84t-65 -268t65 -268t206 -84zM741 1434l181 -308h-154l-143 189
l-146 -189h-151l180 308h233z" />
    <glyph glyph-name="acute.case" horiz-adv-x="593" 
d="M82 1126l203 246h227l-240 -246h-190z" />
    <glyph glyph-name="adieresis.alt1" horiz-adv-x="1230" 
d="M522 -20q-232 0 -336 126t-104 406t104 406t336 126q239 0 344 -131l37 111h184v-1024h-184l-37 111q-105 -131 -344 -131zM584 160q141 0 204.5 83.5t63.5 268.5t-63.5 268.5t-204.5 83.5t-206 -84t-65 -268t65 -268t206 -84zM420 1450q76 0 110.5 -34t34.5 -109
t-34.5 -109.5t-110.5 -34.5q-75 0 -110.5 34.5t-35.5 109.5t35.5 109t110.5 34zM827 1450q75 0 110.5 -34t35.5 -109t-35.5 -109.5t-110.5 -34.5q-76 0 -110.5 34.5t-34.5 109.5t34.5 109t110.5 34z" />
    <glyph glyph-name="agrave.alt1" horiz-adv-x="1230" 
d="M522 -20q-232 0 -336 126t-104 406t104 406t336 126q239 0 344 -131l37 111h184v-1024h-184l-37 111q-105 -131 -344 -131zM584 160q141 0 204.5 83.5t63.5 268.5t-63.5 268.5t-204.5 83.5t-206 -84t-65 -268t65 -268t206 -84zM496 1434l213 -308h-189l-262 308h238z" />
    <glyph glyph-name="amacron.alt1" horiz-adv-x="1230" 
d="M522 -20q-232 0 -336 126t-104 406t104 406t336 126q239 0 344 -131l37 111h184v-1024h-184l-37 111q-105 -131 -344 -131zM584 160q141 0 204.5 83.5t63.5 268.5t-63.5 268.5t-204.5 83.5t-206 -84t-65 -268t65 -268t206 -84zM274 1219v143h697v-143h-697z" />
    <glyph glyph-name="aogonek.alt1" horiz-adv-x="1230" 
d="M897 12l-31 99q-105 -131 -344 -131q-232 0 -336 126t-104 406t104 406t336 126q239 0 344 -131l37 111h184v-1024h-77q-95 -72 -126 -164q-27 -84 21 -121q26 -20 68 -20q26 0 53 7.5t41 15.5l14 8v-197q-61 -41 -143 -41q-75 0 -128 37.5t-71 97.5t-10.5 129t52 139.5
t116.5 120.5zM584 160q141 0 204.5 83.5t63.5 268.5t-63.5 268.5t-204.5 83.5t-206 -84t-65 -268t65 -268t206 -84z" />
    <glyph glyph-name="aring.alt1" horiz-adv-x="1230" 
d="M522 -20q-232 0 -336 126t-104 406t104 406t336 126q239 0 344 -131l37 111h184v-1024h-184l-37 111q-105 -131 -344 -131zM584 160q141 0 204.5 83.5t63.5 268.5t-63.5 268.5t-204.5 83.5t-206 -84t-65 -268t65 -268t206 -84zM625 1520q126 0 182.5 -49.5t56.5 -159.5
q0 -111 -56.5 -161t-182.5 -50q-127 0 -184.5 50.5t-57.5 160.5t57 159.5t185 49.5zM625 1206q63 0 88.5 24t25.5 81t-26 80.5t-88 23.5q-63 0 -90 -23.5t-27 -80.5t27 -81t90 -24z" />
    <glyph glyph-name="atilde.alt1" horiz-adv-x="1230" 
d="M522 -20q-232 0 -336 126t-104 406t104 406t336 126q239 0 344 -131l37 111h184v-1024h-184l-37 111q-105 -131 -344 -131zM584 160q141 0 204.5 83.5t63.5 268.5t-63.5 268.5t-204.5 83.5t-206 -84t-65 -268t65 -268t206 -84zM293 1180q0 106 55.5 179t134.5 73
q47 0 86 -18t65.5 -44t49 -51.5t46 -43.5t46.5 -18q29 0 47.5 28.5t18.5 78.5h112q0 -107 -55 -178.5t-135 -71.5q-47 0 -86 18t-65.5 43.5t-48.5 51t-45 43.5t-46 18q-30 0 -48.5 -28.5t-18.5 -79.5h-113z" />
    <glyph glyph-name="breve.case" horiz-adv-x="825" 
d="M571 1372h172q0 -129 -79 -187.5t-252 -58.5t-251.5 58.5t-78.5 187.5h172q0 -68 37.5 -98.5t120.5 -30.5q86 0 122.5 30t36.5 99z" />
    <glyph glyph-name="caron.case" horiz-adv-x="774" 
d="M692 1372l-188 -246h-234l-188 246h166l139 -141l139 141h166z" />
    <glyph glyph-name="circumflex.case" horiz-adv-x="774" 
d="M504 1372l188 -246h-166l-139 142l-139 -142h-166l188 246h234z" />
    <glyph glyph-name="commaaccent" horiz-adv-x="380" 
d="M190 -90q50 0 75.5 -26t31.5 -81q2 -16 2 -55q-1 -112 -48 -162.5t-149 -50.5v90q43 0 62.5 23.5t19.5 75.5q-52 0 -76 19t-26 62v23q5 43 30.5 62.5t77.5 19.5z" />
    <glyph glyph-name="dieresis.case" horiz-adv-x="884" 
d="M225 1458q77 0 112.5 -29.5t35.5 -95.5q0 -65 -36 -95t-112 -30q-75 0 -109 30t-34 95q0 66 34 95.5t109 29.5zM657 1458q76 0 111 -29.5t35 -95.5q0 -64 -35.5 -94.5t-110.5 -30.5q-76 0 -110.5 30t-34.5 95q0 66 34 95.5t111 29.5z" />
    <glyph glyph-name="dotaccent.case" horiz-adv-x="454" 
d="M225 1384q77 0 112.5 -29t35.5 -95t-35.5 -95.5t-112.5 -29.5q-75 0 -109 29.5t-34 95.5t34 95t109 29z" />
    <glyph glyph-name="grave.case" horiz-adv-x="593" 
d="M295 1372l217 -246h-178l-252 246h213z" />
    <glyph glyph-name="hungarumlaut.case" horiz-adv-x="935" 
d="M82 1126l190 246h215l-227 -246h-178zM446 1126l193 246h215l-227 -246h-181z" />
    <glyph glyph-name="tilde.case" horiz-adv-x="825" 
d="M82 1188q0 103 53.5 160t136.5 57q57 0 104.5 -19t73.5 -41.5t59.5 -41.5t65.5 -19q30 0 49 23t19 65h100q0 -103 -54 -160t-136 -57q-57 0 -104.5 19t-74 41.5t-60 41.5t-66.5 19q-29 0 -47.5 -23.5t-18.5 -64.5h-100z" />
    </font>
</defs>
</svg>
